<svg xmlns="http://www.w3.org/2000/svg" viewBox="0 0 39.997 40">
    <defs>
        <style>
            .cls-1{fill:#1278ce}
        </style>
    </defs>
    <g id="icon_contract" transform="translate(-.018)">
        <g id="icon" transform="translate(14.081 32.969)">
            <path id="Path_12" d="M38.985 12.588a3.52 3.52 0 0 0-4.972 0l-3.526 3.529V6.83a3.492 3.492 0 0 0-1.03-2.486L26.143 1.03A3.492 3.492 0 0 0 23.657 0H3.534A3.52 3.52 0 0 0 .018 3.516v32.968A3.52 3.52 0 0 0 3.534 40h23.437a3.52 3.52 0 0 0 3.516-3.516V26.065l8.5-8.505a3.514 3.514 0 0 0-.002-4.972zM23.456 2.344a1.279 1.279 0 0 1 1.03.343L27.8 6a1.279 1.279 0 0 1 .343 1.03h-4.687zm4.687 34.141a1.173 1.173 0 0 1-1.172 1.172H3.534a1.173 1.173 0 0 1-1.172-1.172V3.516a1.173 1.173 0 0 1 1.172-1.172h17.578V8.2a1.172 1.172 0 0 0 1.172 1.172h5.859v9.088l-3.458 3.46-1.656 1.66a1.172 1.172 0 0 0-.283.458l-1.657 4.972a1.172 1.172 0 0 0 1.482 1.482l4.972-1.657a1.171 1.171 0 0 0 .457-.283l.142-.142zm-2.628-12.077l1.657 1.657-.633.633-2.486.829.829-2.486zm3.314 0l-1.657-1.657 5.633-5.638 1.657 1.657zm8.5-8.505l-1.208 1.209-1.657-1.657 1.208-1.209a1.172 1.172 0 1 1 1.655 1.654z" class="cls-1" data-name="Path 12" transform="translate(-14.081 -32.969)"/>
            <path id="Path_13" d="M77.6 150H61.19a1.172 1.172 0 0 0 0 2.344H77.6a1.172 1.172 0 0 0 0-2.344z" class="cls-1" data-name="Path 13" transform="translate(-69.393 -171.25)"/>
            <path id="Path_14" d="M72.909 210H61.19a1.172 1.172 0 0 0 0 2.344h11.719a1.172 1.172 0 0 0 0-2.344z" class="cls-1" data-name="Path 14" transform="translate(-69.393 -226.563)"/>
            <path id="Path_15" d="M72.909 270H61.19a1.172 1.172 0 0 0 0 2.344h11.719a1.172 1.172 0 0 0 0-2.344z" class="cls-1" data-name="Path 15" transform="translate(-69.393 -281.875)"/>
            <path id="Path_16" d="M72.909 330H61.19a1.172 1.172 0 0 0 0 2.344h11.719a1.172 1.172 0 0 0 0-2.344z" class="cls-1" data-name="Path 16" transform="translate(-69.393 -337.188)"/>
            <path id="Path_17" d="M188.221 422h-7.031a1.172 1.172 0 0 0 0 2.344h7.031a1.172 1.172 0 0 0 0-2.344z" class="cls-1" data-name="Path 17" transform="translate(-180.018 -422)"/>
        </g>
    </g>
</svg>
