<svg xmlns="http://www.w3.org/2000/svg" viewBox="0 0 24 24">
    <defs>
        <style>
            .cls-1{fill:#e9e9e0}.cls-2{fill:#d9d7ca}.cls-3{fill:#1278ce}.cls-4{fill:#fff}.cls-5{fill:none}
        </style>
    </defs>
    <g id="icon_pdf" transform="translate(-1057 -112)">
        <g id="Group_34" data-name="Group 34" transform="translate(165 -399)">
            <g id="pdf" transform="translate(896 512)">
                <path id="Path_5" d="M18.476 0H7.075C6.757 0 6.5.257 6.5.757v20.85a.592.592 0 0 0 .575.393h15.743a.592.592 0 0 0 .575-.393V5.1c0-.273-.037-.361-.1-.426L18.721.1a.347.347 0 0 0-.245-.1z" class="cls-1" data-name="Path 5" transform="translate(-6.5)"/>
                <path id="Path_6" d="M37.5.151v4.655h4.655z" class="cls-2" data-name="Path 6" transform="translate(-25.321 -.092)"/>
                <path id="Path_7" d="M18.242 17.286a.631.631 0 0 1-.38-.128.941.941 0 0 1-.438-.881c.071-.64.862-1.309 2.351-1.991a26.371 26.371 0 0 0 1.488-4.223 3.88 3.88 0 0 1-.5-2.61.754.754 0 0 1 .445-.477 1.929 1.929 0 0 1 .4-.068c.2 0 .372.255.5.412s.379.461-.147 2.672a12.553 12.553 0 0 0 2 2.971 7.643 7.643 0 0 1 1.319-.141c.615 0 .988.143 1.14.439a.8.8 0 0 1-.153.849 1.044 1.044 0 0 1-.872.468 2.612 2.612 0 0 1-1.654-.9 18.824 18.824 0 0 0-3.468 1.109 11.147 11.147 0 0 1-.936 1.67c-.404.565-.752.829-1.095.829zm1.046-2.014c-.84.472-1.182.86-1.206 1.078 0 .036-.015.131.169.272.058-.022.4-.175 1.036-1.35zm5.357-1.745c.32.246.4.371.608.371a.592.592 0 0 0 .475-.173.622.622 0 0 0 .09-.163c-.048-.026-.112-.077-.462-.077a5.744 5.744 0 0 0-.711.042zm-2.935-2.586a28.008 28.008 0 0 1-1.05 2.972 19.629 19.629 0 0 1 2.552-.794 13.448 13.448 0 0 1-1.502-2.178zm-.238-3.324a.942.942 0 0 0 .038 1.263c.372-.831-.021-1.269-.038-1.263z" class="cls-3" data-name="Path 7" transform="translate(-13.129 -4.194)"/>
                <path id="Path_8" d="M22.818 45.679H7.075A.575.575 0 0 1 6.5 45.1V39h16.893v6.1a.575.575 0 0 1-.575.579z" class="cls-3" data-name="Path 8" transform="translate(-6.5 -23.679)"/>
                <g id="Group_33" data-name="Group 33" transform="translate(3.632 16.863)">
                    <path id="Path_9" d="M16.389 46.882h-.645v-3.958h1.139a1.6 1.6 0 0 1 .5.081 1.358 1.358 0 0 1 .443.242 1.262 1.262 0 0 1 .317.389 1.079 1.079 0 0 1 .121.513 1.4 1.4 0 0 1-.1.545 1.14 1.14 0 0 1-.285.411 1.283 1.283 0 0 1-.44.258 1.7 1.7 0 0 1-.569.091h-.478v1.429zm0-3.47v1.568h.591a.7.7 0 0 0 .234-.04.589.589 0 0 0 .212-.132.643.643 0 0 0 .156-.255 1.208 1.208 0 0 0 .059-.405 1.1 1.1 0 0 0-.027-.223.643.643 0 0 0-.11-.242.651.651 0 0 0-.234-.193.868.868 0 0 0-.4-.078h-.483z" class="cls-4" data-name="Path 9" transform="translate(-15.744 -42.924)"/>
                    <path id="Path_10" d="M27.28 44.793a2.908 2.908 0 0 1-.1.835 2.076 2.076 0 0 1-.266.58 1.366 1.366 0 0 1-.363.368 1.819 1.819 0 0 1-.389.2 1.609 1.609 0 0 1-.344.086 2.289 2.289 0 0 1-.231.018h-1.5v-3.956h1.192a2.265 2.265 0 0 1 .878.158 1.823 1.823 0 0 1 .629.422 1.73 1.73 0 0 1 .373.6 1.983 1.983 0 0 1 .121.689zm-1.912 1.617a1.067 1.067 0 0 0 .945-.419 2.126 2.126 0 0 0 .29-1.214 2.056 2.056 0 0 0-.059-.489 1.046 1.046 0 0 0-.228-.438 1.2 1.2 0 0 0-.459-.317 1.978 1.978 0 0 0-.752-.121h-.376v3h.639z" class="cls-4" data-name="Path 10" transform="translate(-20.808 -42.924)"/>
                    <path id="Path_11" d="M35.253 43.413v1.246h1.654v.44h-1.654v1.783H34.6v-3.958h2.476v.489z" class="cls-4" data-name="Path 11" transform="translate(-27.191 -42.924)"/>
                </g>
            </g>
        </g>
        <path id="Rectangle_118" d="M0 0h24v24H0z" class="cls-5" data-name="Rectangle 118" transform="translate(1057 112)"/>
    </g>
</svg>
