<svg xmlns="http://www.w3.org/2000/svg" viewBox="0 0 40 40">
    <defs>
        <style>
            .cls-1{fill:none}.cls-2{fill:#1278ce}
        </style>
    </defs>
    <g id="icon_instagram" transform="translate(-16 -3931)">
        <path id="Rectangle_54" d="M0 0h40v40H0z" class="cls-1" data-name="Rectangle 54" transform="translate(16 3931)"/>
        <g id="instagram" transform="translate(23 3938)">
            <path id="Path_63" d="M17.875 0h-9.75A8.126 8.126 0 0 0 0 8.125v9.75A8.126 8.126 0 0 0 8.125 26h9.75A8.126 8.126 0 0 0 26 17.875v-9.75A8.126 8.126 0 0 0 17.875 0zm5.688 17.875a5.694 5.694 0 0 1-5.687 5.688H8.125a5.694 5.694 0 0 1-5.687-5.687V8.125a5.694 5.694 0 0 1 5.687-5.687h9.75a5.694 5.694 0 0 1 5.688 5.688z" class="cls-2" data-name="Path 63"/>
            <path id="Path_64" d="M134.5 128a6.5 6.5 0 1 0 6.5 6.5 6.5 6.5 0 0 0-6.5-6.5zm0 10.563a4.063 4.063 0 1 1 4.063-4.062 4.068 4.068 0 0 1-4.063 4.062z" class="cls-2" data-name="Path 64" transform="translate(-121.5 -121.5)"/>
            <circle id="Ellipse_19" cx=".866" cy=".866" r=".866" class="cls-2" data-name="Ellipse 19" transform="translate(19.121 5.146)"/>
        </g>
    </g>
</svg>
