<svg xmlns="http://www.w3.org/2000/svg" viewBox="0 0 40 40">
    <defs>
        <style>
            .cls-1{fill:none}.cls-2{fill:#1278ce}
        </style>
    </defs>
    <g id="icon_instagram" transform="translate(-16 -3931)">
        <path id="Rectangle_54" d="M0 0h40v40H0z" class="cls-1" data-name="Rectangle 54" transform="translate(16 3931)"/>
        <g id="whatsapp" transform="translate(22.31 3939)">
            <path id="Path_65" d="M13.011.014A11.908 11.908 0 0 0 2.986 17.309l-1.264 6.134a.463.463 0 0 0 .561.544l6.011-1.424A11.9 11.9 0 1 0 13.011.014zm7.172 18.479a9.326 9.326 0 0 1-10.738 1.758l-.837-.417-3.685.873.777-3.765-.412-.808A9.328 9.328 0 0 1 7 5.313a9.32 9.32 0 1 1 13.183 13.181z" class="cls-2" data-name="Path 65"/>
            <path id="Path_66" d="M116.355 115.736l-2.306-.662a.859.859 0 0 0-.85.224l-.564.574a.84.84 0 0 1-.913.193 12.308 12.308 0 0 1-3.971-3.5.84.84 0 0 1 .066-.931l.492-.637a.859.859 0 0 0 .106-.873l-.97-2.194a.86.86 0 0 0-1.343-.307 3.878 3.878 0 0 0-1.5 2.288c-.164 1.615.529 3.652 3.149 6.1 3.027 2.825 5.45 3.2 7.028 2.816a3.878 3.878 0 0 0 2.062-1.8.86.86 0 0 0-.486-1.291z" class="cls-2" data-name="Path 66" transform="translate(-96.985 -101.251)"/>
        </g>
    </g>
</svg>
