<svg xmlns="http://www.w3.org/2000/svg" viewBox="0 0 40 40">
    <defs>
        <style>
            .cls-1{fill:#1278ce}.cls-2{fill:none}.cls-3{fill:#fff}
        </style>
    </defs>
    <g id="icon_next" transform="translate(-1200 -1555)">
        <circle id="Ellipse_20" cx="16" cy="16" r="16" class="cls-1" data-name="Ellipse 20" transform="translate(1204 1559)"/>
        <path id="Rectangle_66" d="M0 0h40v40H0z" class="cls-2" data-name="Rectangle 66" transform="translate(1200 1555)"/>
        <path id="Path_67" d="M34.189 20.355a.441.441 0 0 1-.654 0 .52.52 0 0 1 0-.7l5.749-6.155-5.749-6.155a.52.52 0 0 1 0-.7.441.441 0 0 1 .654 0l6.076 6.505a.52.52 0 0 1 0 .7z" class="cls-3" data-name="Path 67" transform="rotate(180 628.2 794.25)"/>
    </g>
</svg>
