<svg xmlns="http://www.w3.org/2000/svg" viewBox="0 0 101 40">
    <defs>
        <style>
            .cls-1{fill:none}.cls-2{fill:#1278ce}.cls-3{fill:#fff}.cls-4{fill:#008aff}
        </style>
    </defs>
    <g id="logo_yukstay" transform="translate(-16 -8)">
        <path id="bonding_box" d="M0 0h101v40H0z" class="cls-1" transform="translate(16 8)"/>
        <g id="font" transform="translate(50 22)">
            <path id="Path_5_1_" d="M8.837 1.536a9.424 9.424 0 0 1-.19 1.621c-.19.6-.38 1.194-.665 1.877-.19.6-.475 1.109-.665 1.706a12.884 12.884 0 0 1-.76 1.536 7.926 7.926 0 0 1-.475.938c-.19.341-.38.768-.57 1.194a9.049 9.049 0 0 1-.76 1.28c-.285.427-.57.853-.76 1.194a2.531 2.531 0 0 1-.855.853 1.5 1.5 0 0 1-.855.341.853.853 0 0 1-.855-.427 1.526 1.526 0 0 1-.287-.849 3.885 3.885 0 0 1 .19-1.024 4.938 4.938 0 0 1 .475-1.024l.57-1.024c.19-.341.475-.6.57-.853a2.985 2.985 0 0 1-.76-.341c-.1-.171-.285-.341-.38-.512-.19-.427-.38-.853-.665-1.365a10.054 10.054 0 0 1-.57-1.539 8.167 8.167 0 0 1-.38-1.45A7.586 7.586 0 0 1 0 2.218a1.7 1.7 0 0 1 .1-.682A2.093 2.093 0 0 1 .38.853 2.336 2.336 0 0 1 .855.341a1.152 1.152 0 0 1 .76-.256 1.087 1.087 0 0 1 .855.341 3.086 3.086 0 0 1 .665.853c.1.427.285.768.38 1.194A8.073 8.073 0 0 1 3.9 3.668c.1.427.19.768.285 1.109 0 .341.1.6.1.768a3.7 3.7 0 0 0 .285-.768 8.99 8.99 0 0 1 .475-1.109l.57-1.28c.19-.427.475-.768.665-1.194a3.432 3.432 0 0 1 .76-.853A1.5 1.5 0 0 1 7.887 0a.771.771 0 0 1 .475.171A1.84 1.84 0 0 0 8.647.6c.1.171.1.341.19.512a.349.349 0 0 0 0 .424z" class="cls-2"/>
            <path id="Path_6_1_" d="M17.262 8.892a11.466 11.466 0 0 1-.19 1.791 4.953 4.953 0 0 1-.665 1.621 4.226 4.226 0 0 1-1.33 1.194 4.219 4.219 0 0 1-2 .427 5.188 5.188 0 0 1-2-.427 4 4 0 0 1-1.33-1.109 4.953 4.953 0 0 1-.665-1.621A11.467 11.467 0 0 1 8.9 8.977a6.575 6.575 0 0 1 .285-1.962 3.95 3.95 0 0 1 .19-.768c.1-.341.285-.682.38-.938l.57-.768a1.226 1.226 0 0 1 .76-.341 1.1 1.1 0 0 1 .57.171 1.537 1.537 0 0 1 .38.427 1.142 1.142 0 0 1 .19.6c0 .256.1.427.1.6a2.133 2.133 0 0 1-.1.768c-.1.256-.1.512-.19.768-.1.341-.1.682-.19 1.024V10a1.461 1.461 0 0 0 .19.6l.285.512a.75.75 0 0 0 .57.171 1.152 1.152 0 0 0 .76-.256 1.547 1.547 0 0 0 .475-.6 2.277 2.277 0 0 0 .19-.768c0-.256.1-.512.1-.768a7.443 7.443 0 0 0-.1-1.45 7.586 7.586 0 0 1-.19-1.45v-.255a.984.984 0 0 1 .1-.512 1.84 1.84 0 0 1 .285-.427c.1-.171.285-.256.38-.341a1.459 1.459 0 0 1 .57-.171 1.152 1.152 0 0 1 .76.256 4.816 4.816 0 0 1 .57.682 2.865 2.865 0 0 1 .38.938 3.885 3.885 0 0 1 .19 1.024 3.447 3.447 0 0 1 .1.938 1.163 1.163 0 0 0-.198.769z" class="cls-2" transform="translate(-.443 -.617)"/>
            <path id="Path_7_1_" d="M27.252 4.168a1.59 1.59 0 0 1-.285.938 3.5 3.5 0 0 1-.665.938c-.285.341-.57.6-.855.938a5.763 5.763 0 0 0-.76.768c.19.256.38.6.665 1.024s.475.853.76 1.28a6.069 6.069 0 0 1 .57 1.365 2.166 2.166 0 0 1 .285 1.109 1.067 1.067 0 0 1-.285.682.991.991 0 0 1-.665.341.911.911 0 0 1-.665-.256 2.4 2.4 0 0 1-.665-.682c-.19-.256-.475-.6-.665-.853a9.062 9.062 0 0 0-.57-.938c-.19-.256-.285-.6-.475-.853a1.277 1.277 0 0 1-.285-.682 1.653 1.653 0 0 1-.475.341 2.019 2.019 0 0 0-.57.341v1.024a5.953 5.953 0 0 1-.19 1.28 2.8 2.8 0 0 1-.475 1.109 1.217 1.217 0 0 1-.95.427.989.989 0 0 1-.76-.427 2.865 2.865 0 0 1-.38-.938c-.1-.341-.1-.682-.19-1.109v-.853a21.534 21.534 0 0 1 .1-2.474 21.536 21.536 0 0 0 .1-2.474V4.68a3.741 3.741 0 0 1 .1-1.024c.1-.341.1-.768.19-1.109l.285-1.024a2.011 2.011 0 0 1 .57-.768A1.152 1.152 0 0 1 20.791.5a.86.86 0 0 1 .57.256 1.349 1.349 0 0 1 .38.6 2.277 2.277 0 0 1 .19.768 2.885 2.885 0 0 1 .1.853V5.96a.7.7 0 0 0 .1.427c.1 0 .19-.085.38-.256a3.856 3.856 0 0 0 .57-.6 1.752 1.752 0 0 0 .95-.6l.855-.768a5.192 5.192 0 0 1 .855-.6 1.152 1.152 0 0 1 .76-.256.705.705 0 0 1 .57.256 5.017 5.017 0 0 1 .181.605z" class="cls-2" transform="translate(-.931 -.073)"/>
            <path id="Path_8_1_" d="M39.162 1.394a.915.915 0 0 1-.285.682 4.045 4.045 0 0 1-.665.512c-.19.171-.475.256-.665.427s-.475.256-.665.512a1.546 1.546 0 0 0-.475.6 2.277 2.277 0 0 0-.19.768 1.843 1.843 0 0 0 .19.682 2.615 2.615 0 0 0 .475.6 3.855 3.855 0 0 1 .57.6c.285-.085.475.085.665.341a2.574 2.574 0 0 1 .475.853 3.885 3.885 0 0 1 .19 1.024 3.3 3.3 0 0 1-.19.938 3.09 3.09 0 0 1-.57 1.109 7.113 7.113 0 0 1-.76 1.024c-.285.341-.665.6-.95.938a9.988 9.988 0 0 1-1.045.682 2.359 2.359 0 0 1-1.045.256 2.082 2.082 0 0 1-1.045-.256 1.019 1.019 0 0 1-.475-.853 1.478 1.478 0 0 1 .19-.682 3.649 3.649 0 0 1 .475-.6l.665-.6a4.193 4.193 0 0 0 .665-.6 2.615 2.615 0 0 0 .475-.6 1.478 1.478 0 0 0 .19-.682 1.531 1.531 0 0 0-.38-1.024l-.855-1.024c-.285-.341-.57-.768-.855-1.109a1.816 1.816 0 0 1-.38-1.194 3.209 3.209 0 0 1 .475-1.536 5.648 5.648 0 0 1 1.14-1.45A9.472 9.472 0 0 1 36.026.627 3.565 3.565 0 0 1 37.736.2a1.968 1.968 0 0 1 1.14.341c.191.086.286.427.286.853z" class="cls-2" transform="translate(-1.628 -.029)"/>
            <path id="Path_9_1_" d="M44.5 13.823a5.967 5.967 0 0 1-2.09-.341 2.744 2.744 0 0 1-1.14-.853 3.393 3.393 0 0 1-.475-1.365 10.292 10.292 0 0 1-.1-1.791 9.777 9.777 0 0 1 .1-1.621c.1-.512.1-1.109.19-1.706h-.665a2.082 2.082 0 0 1-1.045-.256.78.78 0 0 1-.285-1.109c0-.085.1-.085.1-.171a1.712 1.712 0 0 1 .665-.427l.855-.256c.285-.085.57-.085.855-.171a3.742 3.742 0 0 1 .1-1.024c.1-.256.19-.6.285-.938a1.746 1.746 0 0 1 .57-.853A1.087 1.087 0 0 1 43.269.6a1.458 1.458 0 0 1 .57.171.876.876 0 0 1 .38.427 1.13 1.13 0 0 1 .19.512c0 .171.1.427.1.6a1.7 1.7 0 0 1-.1.682 2.3 2.3 0 0 1-.19.853h1.33a1.917 1.917 0 0 1 .665.171.937.937 0 0 1 .475.341.619.619 0 0 1 .19.427.59.59 0 0 1-.285.512 2.906 2.906 0 0 1-.665.427l-.855.256c-.38 0-.665.085-.95.085-.1.427-.1.853-.19 1.28 0 .427-.1.768-.1 1.194l-.1.512v1.109c0 .171.1.341.1.6a.876.876 0 0 0 .38.427.865.865 0 0 0 .665.171h1.14a.65.65 0 0 1 .665.341 1.163 1.163 0 0 1 .19.768.74.74 0 0 1-.285.6 2.48 2.48 0 0 1-.57.427c-.285.085-.475.171-.76.256-.28-.012-.47.074-.759.074z" class="cls-2" transform="translate(-1.934 -.088)"/>
            <path id="Path_10_1_" d="M55.662 11.322v.768a3.3 3.3 0 0 1-.19.938 2.01 2.01 0 0 1-.38.768 1.027 1.027 0 0 1-.855.427 1.608 1.608 0 0 1-1.045-.427 1.394 1.394 0 0 1-.38-1.024 4.064 4.064 0 0 1-1.33.768 4.74 4.74 0 0 1-1.52.256 2.359 2.359 0 0 1-1.045-.256 5.192 5.192 0 0 1-.855-.6 1.746 1.746 0 0 1-.57-.853 2.79 2.79 0 0 1-.19-.938 2.173 2.173 0 0 1 .57-1.45A4.9 4.9 0 0 1 49.2 8.677a8.768 8.768 0 0 1 1.615-.6 10.9 10.9 0 0 1 1.615-.341V7.4a1.34 1.34 0 0 0-.285-.853A1.166 1.166 0 0 0 51.2 6.2a3.045 3.045 0 0 0-.855.171 2.465 2.465 0 0 0-.665.341c-.19.085-.38.256-.57.341a1.917 1.917 0 0 1-.665.171.911.911 0 0 1-.665-.256.74.74 0 0 1-.285-.6 1.531 1.531 0 0 1 .38-1.024 2.62 2.62 0 0 1 .95-.768c.38-.171.76-.341 1.235-.512A5.268 5.268 0 0 1 51.2 3.9a4.328 4.328 0 0 1 1.045.085 3.038 3.038 0 0 1 .95.341 5.192 5.192 0 0 1 .855.6 5.989 5.989 0 0 1 .57.768l.57 1.28a6.651 6.651 0 0 1 .285 1.45 7.444 7.444 0 0 1 .1 1.45 7.444 7.444 0 0 1 .087 1.448zm-2.946-.512V9.7h-.19c-.19 0-.38.085-.57.085a1.581 1.581 0 0 0-.665.341 2.479 2.479 0 0 0-.57.427c-.19.171-.19.341-.285.512a.431.431 0 0 0 .19.341.779.779 0 0 0 .475.085 3.045 3.045 0 0 0 .855-.171 1.475 1.475 0 0 1 .76-.512z" class="cls-2" transform="translate(-2.354 -.573)"/>
            <path id="Path_11_1_" d="M61.271 18.628a4.456 4.456 0 0 1-1.045-.171 3.658 3.658 0 0 1-1.045-.341 5.193 5.193 0 0 1-.855-.6 1.214 1.214 0 0 1-.38-.768.473.473 0 0 1 .1-.341c.1-.085.19-.256.285-.341a.513.513 0 0 1 .38-.171.623.623 0 0 1 .38-.085.94.94 0 0 1 .475.085 1.071 1.071 0 0 1 .475.171c.19.085.285.085.475.171a.94.94 0 0 0 .475.085 1.653 1.653 0 0 0 .855-.256 1.246 1.246 0 0 0 .57-.768 4.477 4.477 0 0 0 .38-1.024c.1-.341.19-.768.285-1.109 0-.341.1-.682.1-1.024v-.768a6.221 6.221 0 0 1-1.33 1.365 2.77 2.77 0 0 1-1.615.512 2.878 2.878 0 0 1-1.245-.25 3.681 3.681 0 0 1-.95-.682 3.96 3.96 0 0 1-.665-1.024A4.514 4.514 0 0 1 57 10.1a5.084 5.084 0 0 0-.1-1.28V7.708a2.632 2.632 0 0 0 .1-.938 5.452 5.452 0 0 1 .285-1.194 1.982 1.982 0 0 1 .57-.938.868.868 0 0 1 .855-.341.705.705 0 0 1 .57.256 1.655 1.655 0 0 1 .38.682 2.277 2.277 0 0 1 .19.768c0 .341.1.6.1.938v2.047c0 .171.1.341.1.512a.709.709 0 0 0 .38.341 1.917 1.917 0 0 0 .665.171 1.152 1.152 0 0 0 .76-.256 2.336 2.336 0 0 0 .475-.512 1.843 1.843 0 0 0 .19-.682V6.514a2.133 2.133 0 0 1 .1-.768 1.843 1.843 0 0 1 .19-.682 1.782 1.782 0 0 1 .38-.512.75.75 0 0 1 .57-.171 1.227 1.227 0 0 1 .855.341 1.746 1.746 0 0 1 .57.853 4.516 4.516 0 0 1 .38 1.194 5.954 5.954 0 0 1 .19 1.28c0 .427.1.853.1 1.194v2.474a13.794 13.794 0 0 1-.19 1.877 13.575 13.575 0 0 1-.475 1.877 5.423 5.423 0 0 1-.855 1.621 5.119 5.119 0 0 1-1.235 1.194 6.1 6.1 0 0 1-1.829.342z" class="cls-2" transform="translate(-2.832 -.628)"/>
        </g>
        <g id="icon_logo_yukstay" transform="translate(16 14)">
            <path id="background" d="M14 0A14 14 0 1 1 0 14 14.009 14.009 0 0 1 14 0z" class="cls-2"/>
            <g id="path" transform="translate(4 7)">
                <path id="Path_2_1_" d="M27.789 13.1a3.586 3.586 0 0 1 .5.048l7.837 2.885v5.577a2.5 2.5 0 0 1-.553 1.587 2.945 2.945 0 0 1-.913.625l-8.75 3.341-.14-.363 8.75-3.317a1.93 1.93 0 0 0 1.058-.937 2.393 2.393 0 0 0 .192-.913V16.3l-7.548-2.788a1.642 1.642 0 0 0-1.37.264 2.238 2.238 0 0 0-.625.793v1.875l7.26 2.764v.192L25.7 22.5a2.555 2.555 0 0 0-1.2 1.1 3.164 3.164 0 0 0-.216.721v.024c0 .024-.024.048-.048.072-.048.048-.048.1-.24.048-.5-.168-1.01-.385-1.514-.577-1.659-.649-3.293-1.322-4.928-1.923a16.19 16.19 0 0 1-.409-.144l-.24-.048.048-.192c0-.024.024-.048.048-.072.1-.12.312-.024.481.048 2.043.745 4.038 1.587 6.082 2.38.144.048.288.12.433.168h.024v-.024a2.772 2.772 0 0 1 .529-1.106 3.626 3.626 0 0 1 1.034-.769l7.115-2.885-6.827-2.62V14.47A2.441 2.441 0 0 1 27 13.244a2.209 2.209 0 0 1 .793-.144z" class="cls-3" transform="translate(-16.131 -13.1)"/>
                <path id="Path_4_1_" d="M22.763 29.061l-6.731 2.6-.841.361a2.134 2.134 0 0 0-.913.986 2.741 2.741 0 0 0-.192.962v1.659l7.909 2.861v-2.146l.024-.048a2.817 2.817 0 0 1 .962-1.226 3.232 3.232 0 0 1 .577-.288l7.957-3.2.144.337-7.981 3.221a2.357 2.357 0 0 0-.962.649 3.245 3.245 0 0 0-.361.625v2.548l-.048.048-8.607-3.122v-1.924a2.718 2.718 0 0 1 .745-1.875 2.588 2.588 0 0 1 .577-.433l.865-.361 6.755-2.6c.048.125.072.245.121.366z" class="cls-3" transform="translate(-13.7 -24.95)"/>
            </g>
        </g>
    </g>
</svg>
