<svg xmlns="http://www.w3.org/2000/svg" id="logo_yukstay" viewBox="0 0 141.167 56">
    <defs>
        <style>
            .cls-1{fill:none}.cls-2{fill:#1278ce}.cls-3{fill:#fff}.cls-4{fill:#008aff}
        </style>
    </defs>
    <path id="bonding_box" d="M0 0h141.167v56H0z" class="cls-1"/>
    <g id="font" transform="translate(47.6 19.6)">
        <path id="Path_5_1_" d="M12.372 2.15a13.194 13.194 0 0 1-.266 2.269c-.266.836-.532 1.672-.931 2.627-.266.836-.665 1.553-.931 2.389a18.038 18.038 0 0 1-1.064 2.15 11.1 11.1 0 0 1-.666 1.315c-.266.478-.532 1.075-.8 1.672a12.668 12.668 0 0 1-1.064 1.791c-.4.6-.8 1.194-1.064 1.672a3.543 3.543 0 0 1-1.2 1.194 2.093 2.093 0 0 1-1.2.478 1.2 1.2 0 0 1-1.2-.6 2.137 2.137 0 0 1-.4-1.194 5.439 5.439 0 0 1 .266-1.433 6.914 6.914 0 0 1 .665-1.433l.8-1.433c.266-.478.665-.836.8-1.194a4.18 4.18 0 0 1-1.064-.478c-.133-.239-.4-.478-.532-.717-.266-.6-.532-1.194-.931-1.911a14.075 14.075 0 0 1-.8-2.15 11.434 11.434 0 0 1-.532-2.03A10.621 10.621 0 0 1 0 3.105a2.378 2.378 0 0 1 .133-.955 2.93 2.93 0 0 1 .4-.955A3.271 3.271 0 0 1 1.2.478 1.612 1.612 0 0 1 2.262.119 1.521 1.521 0 0 1 3.459.6a4.32 4.32 0 0 1 .931 1.191c.133.6.4 1.075.532 1.672a11.3 11.3 0 0 1 .532 1.672c.133.6.266 1.075.4 1.553 0 .478.133.836.133 1.075a5.174 5.174 0 0 0 .4-1.075 12.587 12.587 0 0 1 .665-1.553l.8-1.791c.266-.6.665-1.075.931-1.672A4.8 4.8 0 0 1 9.844.478 2.093 2.093 0 0 1 11.042 0a1.079 1.079 0 0 1 .665.239 2.576 2.576 0 0 0 .4.6c.133.239.133.478.266.717a.489.489 0 0 0-.001.594z" class="cls-2"/>
        <path id="Path_6_1_" d="M20.607 10.769a16.053 16.053 0 0 1-.266 2.508 6.935 6.935 0 0 1-.931 2.269 5.916 5.916 0 0 1-1.862 1.672 5.907 5.907 0 0 1-2.794.6 7.263 7.263 0 0 1-2.794-.6 5.6 5.6 0 0 1-1.86-1.553 6.935 6.935 0 0 1-.934-2.265 16.054 16.054 0 0 1-.266-2.512 9.206 9.206 0 0 1 .4-2.747 5.53 5.53 0 0 1 .266-1.075c.133-.478.4-.955.532-1.314l.8-1.075A1.716 1.716 0 0 1 11.96 4.2a1.535 1.535 0 0 1 .8.239 2.151 2.151 0 0 1 .532.6 1.6 1.6 0 0 1 .266.836c0 .358.133.6.133.836a2.986 2.986 0 0 1-.133 1.075c-.133.358-.133.717-.266 1.075-.133.478-.133.955-.266 1.433v2.03a2.045 2.045 0 0 0 .266.836l.4.717a1.051 1.051 0 0 0 .8.239 1.612 1.612 0 0 0 1.064-.358 2.165 2.165 0 0 0 .665-.836 3.188 3.188 0 0 0 .266-1.075c0-.358.133-.717.133-1.075a10.42 10.42 0 0 0-.133-2.03 10.62 10.62 0 0 1-.266-2.03V6.35a1.378 1.378 0 0 1 .133-.717 2.576 2.576 0 0 1 .4-.6c.133-.239.4-.358.532-.478a2.042 2.042 0 0 1 .8-.239 1.612 1.612 0 0 1 1.064.358 6.742 6.742 0 0 1 .8.955 4.011 4.011 0 0 1 .532 1.314 5.439 5.439 0 0 1 .258 1.437 4.826 4.826 0 0 1 .133 1.314 1.628 1.628 0 0 0-.266 1.075z" class="cls-2" transform="translate(2.94 .816)"/>
        <path id="Path_7_1_" d="M30.673 5.636a2.226 2.226 0 0 1-.4 1.314 4.9 4.9 0 0 1-.931 1.314c-.4.478-.8.836-1.2 1.314a8.068 8.068 0 0 0-1.064 1.075c.266.358.532.836.931 1.433s.665 1.194 1.064 1.791a8.5 8.5 0 0 1 .8 1.911 3.033 3.033 0 0 1 .4 1.553 1.494 1.494 0 0 1-.4.955 1.387 1.387 0 0 1-.931.478 1.276 1.276 0 0 1-.931-.358 3.355 3.355 0 0 1-.931-.955c-.266-.358-.665-.836-.931-1.194a12.686 12.686 0 0 0-.8-1.314c-.266-.358-.4-.836-.665-1.194a1.788 1.788 0 0 1-.4-.955 2.314 2.314 0 0 1-.665.478 2.827 2.827 0 0 0-.8.478v1.43a8.334 8.334 0 0 1-.266 1.791 3.926 3.926 0 0 1-.665 1.553 1.7 1.7 0 0 1-1.33.6 1.384 1.384 0 0 1-1.064-.6 4.011 4.011 0 0 1-.532-1.314c-.133-.478-.133-.955-.266-1.553v-1.194a30.148 30.148 0 0 1 .133-3.464 30.151 30.151 0 0 0 .133-3.464V6.352a5.238 5.238 0 0 1 .138-1.433c.133-.478.133-1.075.266-1.553l.4-1.433a2.816 2.816 0 0 1 .8-1.075A1.612 1.612 0 0 1 21.627.5a1.2 1.2 0 0 1 .8.358 1.889 1.889 0 0 1 .532.836 3.188 3.188 0 0 1 .266 1.075 4.04 4.04 0 0 1 .133 1.194v4.18a.984.984 0 0 0 .133.6c.133 0 .266-.119.532-.358a5.4 5.4 0 0 0 .8-.836 2.453 2.453 0 0 0 1.33-.836l1.2-1.075a7.268 7.268 0 0 1 1.2-.836 1.612 1.612 0 0 1 1.064-.358.987.987 0 0 1 .8.358 7.024 7.024 0 0 1 .256.834z" class="cls-2" transform="translate(6.177 .097)"/>
        <path id="Path_8_1_" d="M41.746 1.872a1.281 1.281 0 0 1-.4.955 5.662 5.662 0 0 1-.931.717c-.266.239-.665.358-.931.6s-.665.358-.931.717a2.165 2.165 0 0 0-.665.836 3.187 3.187 0 0 0-.266 1.075 2.58 2.58 0 0 0 .266.955 3.661 3.661 0 0 0 .665.836 5.4 5.4 0 0 1 .8.836c.4-.119.665.119.931.478a3.6 3.6 0 0 1 .665 1.194 5.439 5.439 0 0 1 .266 1.433 4.616 4.616 0 0 1-.266 1.314 4.326 4.326 0 0 1-.8 1.553 9.958 9.958 0 0 1-1.063 1.429c-.4.478-.931.836-1.33 1.314a13.982 13.982 0 0 1-1.463.955 3.3 3.3 0 0 1-1.463.358 2.915 2.915 0 0 1-1.463-.358 1.427 1.427 0 0 1-.665-1.194 2.07 2.07 0 0 1 .266-.955 5.109 5.109 0 0 1 .665-.836l.931-.836a5.87 5.87 0 0 0 .931-.836 3.661 3.661 0 0 0 .665-.836 2.07 2.07 0 0 0 .266-.955 2.143 2.143 0 0 0-.532-1.433L34.7 9.755c-.4-.478-.8-1.075-1.2-1.553a2.542 2.542 0 0 1-.532-1.672 4.492 4.492 0 0 1 .665-2.15 7.908 7.908 0 0 1 1.6-2.03A13.262 13.262 0 0 1 37.356.8a4.992 4.992 0 0 1 2.395-.6 2.755 2.755 0 0 1 1.6.478c.262.122.395.597.395 1.194z" class="cls-2" transform="translate(10.801 .039)"/>
        <path id="Path_9_1_" d="M46.764 19.112a8.354 8.354 0 0 1-2.927-.478 3.842 3.842 0 0 1-1.6-1.194 4.751 4.751 0 0 1-.665-1.911 14.41 14.41 0 0 1-.133-2.508 13.688 13.688 0 0 1 .133-2.269c.133-.717.133-1.553.266-2.389h-.928A2.915 2.915 0 0 1 39.447 8a1.092 1.092 0 0 1-.4-1.553c0-.119.133-.119.133-.239a2.4 2.4 0 0 1 .931-.6l1.2-.358c.4-.119.8-.119 1.2-.239a5.238 5.238 0 0 1 .133-1.433c.133-.358.266-.836.4-1.314a2.444 2.444 0 0 1 .8-1.194 1.521 1.521 0 0 1 1.19-.47 2.042 2.042 0 0 1 .8.239 1.226 1.226 0 0 1 .532.6 1.582 1.582 0 0 1 .266.717c0 .239.133.6.133.836a2.379 2.379 0 0 1-.133.955 3.223 3.223 0 0 1-.266 1.194h1.862a2.683 2.683 0 0 1 .931.239 1.311 1.311 0 0 1 .665.478.866.866 0 0 1 .266.6.826.826 0 0 1-.4.717 4.069 4.069 0 0 1-.931.6l-1.2.358c-.532 0-.931.119-1.33.119-.133.6-.133 1.194-.266 1.791 0 .6-.133 1.075-.133 1.672l-.133.717v1.553c0 .239.133.478.133.836a1.226 1.226 0 0 0 .532.6 1.212 1.212 0 0 0 .931.239h1.6a.91.91 0 0 1 .931.478 1.628 1.628 0 0 1 .266 1.075 1.036 1.036 0 0 1-.4.836 3.473 3.473 0 0 1-.8.6c-.4.119-.665.239-1.064.358-.397-.015-.663.105-1.062.105z" class="cls-2" transform="translate(12.835 .117)"/>
        <path id="Path_10_1_" d="M59.007 14.291v1.075a4.617 4.617 0 0 1-.266 1.314 2.815 2.815 0 0 1-.532 1.075 1.438 1.438 0 0 1-1.2.6 2.251 2.251 0 0 1-1.463-.6 1.952 1.952 0 0 1-.532-1.433 5.69 5.69 0 0 1-1.861 1.078 6.636 6.636 0 0 1-2.129.358 3.3 3.3 0 0 1-1.463-.358 7.269 7.269 0 0 1-1.2-.836 2.444 2.444 0 0 1-.8-1.194 3.906 3.906 0 0 1-.266-1.314 3.043 3.043 0 0 1 .8-2.03 6.857 6.857 0 0 1 1.862-1.433 12.275 12.275 0 0 1 2.262-.836 15.261 15.261 0 0 1 2.262-.478V8.8a1.875 1.875 0 0 0-.4-1.194 1.633 1.633 0 0 0-1.33-.478 4.263 4.263 0 0 0-1.2.239 3.451 3.451 0 0 0-.931.478c-.266.119-.532.358-.8.478a2.683 2.683 0 0 1-.931.239 1.276 1.276 0 0 1-.931-.358 1.036 1.036 0 0 1-.4-.836A2.143 2.143 0 0 1 48.1 5.93a3.668 3.668 0 0 1 1.33-1.075 22.877 22.877 0 0 1 1.729-.717 7.375 7.375 0 0 1 1.6-.239 6.059 6.059 0 0 1 1.463.119 4.253 4.253 0 0 1 1.33.478 7.27 7.27 0 0 1 1.2.836 8.386 8.386 0 0 1 .8 1.075l.8 1.791a9.311 9.311 0 0 1 .4 2.03 10.422 10.422 0 0 1 .133 2.03 10.423 10.423 0 0 1 .122 2.033zm-4.124-.717v-1.553h-.266c-.266 0-.532.119-.8.119a2.214 2.214 0 0 0-.931.478 3.47 3.47 0 0 0-.8.6c-.266.239-.266.478-.4.717a.6.6 0 0 0 .266.478 1.09 1.09 0 0 0 .665.119 4.263 4.263 0 0 0 1.2-.239 2.065 2.065 0 0 1 1.064-.717z" class="cls-2" transform="translate(15.624 .758)"/>
        <path id="Path_11_1_" d="M63.019 24.37a6.239 6.239 0 0 1-1.463-.239 5.122 5.122 0 0 1-1.463-.478 7.27 7.27 0 0 1-1.2-.836 1.7 1.7 0 0 1-.532-1.075.662.662 0 0 1 .133-.478c.133-.119.266-.358.4-.478a.719.719 0 0 1 .532-.239.872.872 0 0 1 .532-.119 1.316 1.316 0 0 1 .665.119 1.5 1.5 0 0 1 .665.239c.266.119.4.119.665.239a1.316 1.316 0 0 0 .665.119 2.314 2.314 0 0 0 1.2-.358 1.745 1.745 0 0 0 .8-1.075 6.267 6.267 0 0 0 .532-1.433c.133-.478.266-1.075.4-1.553 0-.478.133-.955.133-1.433v-1.074a8.709 8.709 0 0 1-1.862 1.911 3.878 3.878 0 0 1-2.262.717 4.03 4.03 0 0 1-1.729-.358 5.153 5.153 0 0 1-1.33-.955 5.545 5.545 0 0 1-.931-1.433 6.32 6.32 0 0 1-.532-1.672 7.117 7.117 0 0 0-.133-1.791V9.082a3.685 3.685 0 0 0 .133-1.314 7.633 7.633 0 0 1 .4-1.672 2.775 2.775 0 0 1 .8-1.314 1.215 1.215 0 0 1 1.2-.478.987.987 0 0 1 .8.358 2.318 2.318 0 0 1 .532.955 3.188 3.188 0 0 1 .266 1.075c0 .478.133.836.133 1.314v2.866c0 .239.133.478.133.717a.992.992 0 0 0 .532.478 2.683 2.683 0 0 0 .931.239 1.612 1.612 0 0 0 1.064-.358 3.271 3.271 0 0 0 .665-.717 2.58 2.58 0 0 0 .266-.955V7.41a2.986 2.986 0 0 1 .133-1.075 2.581 2.581 0 0 1 .266-.955 2.5 2.5 0 0 1 .532-.717 1.051 1.051 0 0 1 .8-.239 1.718 1.718 0 0 1 1.2.478 2.444 2.444 0 0 1 .8 1.194 6.323 6.323 0 0 1 .532 1.672 8.336 8.336 0 0 1 .266 1.791c0 .6.133 1.194.133 1.672V14.7a19.311 19.311 0 0 1-.266 2.627 19.005 19.005 0 0 1-.665 2.627 7.593 7.593 0 0 1-1.2 2.269 7.167 7.167 0 0 1-1.729 1.672 8.546 8.546 0 0 1-2.542.475z" class="cls-2" transform="translate(18.795 .83)"/>
    </g>
    <g id="icon_logo_yukstay" transform="translate(0 8.4)">
        <path id="background" d="M19.6 0A19.6 19.6 0 1 1 0 19.6 19.613 19.613 0 0 1 19.6 0z" class="cls-2"/>
        <g id="path" transform="translate(5.6 9.8)">
            <path id="Path_2_1_" d="M32.145 13.1a5.021 5.021 0 0 1 .707.067l10.971 4.038v7.808a3.5 3.5 0 0 1-.774 2.221 4.122 4.122 0 0 1-1.279.875l-12.25 4.678-.2-.5 12.25-4.644a2.7 2.7 0 0 0 1.481-1.312 3.35 3.35 0 0 0 .269-1.279v-7.476l-10.567-3.9a2.3 2.3 0 0 0-1.918.37 3.133 3.133 0 0 0-.875 1.111v2.625l10.163 3.87v.269l-10.9 4.341a3.577 3.577 0 0 0-1.683 1.548 4.43 4.43 0 0 0-.3 1.01v.034c0 .034-.034.067-.067.1-.067.067-.067.135-.337.067-.707-.236-1.413-.538-2.12-.808-2.322-.909-4.611-1.851-6.9-2.692-.2-.067-.4-.135-.572-.2l-.337-.067.067-.269c0-.034.034-.067.067-.1.135-.168.437-.034.673.067 2.861 1.043 5.654 2.221 8.514 3.332.2.067.4.168.606.236h.034v-.04a3.881 3.881 0 0 1 .74-1.548 5.077 5.077 0 0 1 1.447-1.077l9.962-4.038-9.558-3.668v-3.13a3.417 3.417 0 0 1 1.576-1.719 3.093 3.093 0 0 1 1.111-.2z" class="cls-3" transform="translate(-15.823 -13.1)"/>
            <path id="Path_4_1_" d="M26.388 29.2l-9.423 3.635-1.178.5a2.988 2.988 0 0 0-1.279 1.38 3.837 3.837 0 0 0-.269 1.346v2.322l11.072 4v-3l.034-.067a3.943 3.943 0 0 1 1.346-1.716 4.524 4.524 0 0 1 .808-.4l11.139-4.476.2.471-11.173 4.51a3.3 3.3 0 0 0-1.346.909 4.543 4.543 0 0 0-.5.875v3.581l-.067.067L13.7 38.762V36.07a3.8 3.8 0 0 1 1.043-2.625 3.623 3.623 0 0 1 .808-.606l1.212-.5 9.456-3.639c.068.168.101.337.169.5z" class="cls-3" transform="translate(-13.7 -23.45)"/>
        </g>
    </g>
</svg>
