<svg xmlns="http://www.w3.org/2000/svg" viewBox="0 0 40 40">
    <defs>
        <style>
            .cls-1{fill:none}.cls-2{fill:#1278ce}
        </style>
    </defs>
    <g id="icon_clean" transform="translate(-1048 -2216)">
        <path id="Rectangle_84" d="M0 0h40v40H0z" class="cls-1" data-name="Rectangle 84" transform="translate(1048 2216)"/>
        <g id="icon" transform="translate(969.003 2224)">
            <path id="Path_105" d="M102.8 18.72V16.8a.4.4 0 0 0-.188-.339L99.6 14.578V1.2a1.2 1.2 0 0 0-2.4 0v13.378l-3.012 1.883A.4.4 0 0 0 94 16.8v2a.383.383 0 0 0 .016.077l-1.985 4.563a.4.4 0 0 0 .369.56h12a.4.4 0 0 0 .369-.554zM98 1.2a.4.4 0 0 1 .8 0v11.6H98zm0 12.4h.8v.8H98zm-3.2 3.422l2.912-1.822h1.37L102 17.022V18.4h-7.2v-1.378zm7.888 6.178l-.709-2.126a.4.4 0 0 0-.76.253l.626 1.874h-1.157l-.709-2.126a.4.4 0 0 0-.76.253l.626 1.874h-2.89l.624-1.874a.4.4 0 0 0-.76-.253L96.11 23.2h-1.158l.624-1.874a.4.4 0 0 0-.76-.253L94.11 23.2h-1.1l1.738-4h7.386l1.667 4z" class="cls-2" data-name="Path 105"/>
            <path id="Path_106" d="M284.4 249.6h.4v.4a.4.4 0 1 0 .8 0v-.4h.4a.4.4 0 1 0 0-.8h-.4v-.4a.4.4 0 1 0-.8 0v.4h-.4a.4.4 0 1 0 0 .8z" class="cls-2" data-name="Path 106" transform="translate(-182.405 -235.6)"/>
            <path id="Path_107" d="M342 288.8h-.4v-.4a.4.4 0 0 0-.8 0v.4h-.4a.4.4 0 1 0 0 .8h.4v.4a.4.4 0 0 0 .8 0v-.4h.4a.4.4 0 1 0 0-.8z" class="cls-2" data-name="Path 107" transform="translate(-235.605 -273.6)"/>
            <path id="Path_108" d="M190.8 336h-2.4a.4.4 0 1 0 0 .8h2.4a.4.4 0 0 0 0-.8z" class="cls-2" data-name="Path 108" transform="translate(-91.205 -319.2)"/>
        </g>
    </g>
</svg>
