<svg xmlns="http://www.w3.org/2000/svg" viewBox="0 0 40 40">
    <defs>
        <style>
            .cls-1{fill:none}.cls-2{fill:#1278ce}
        </style>
    </defs>
    <g id="icon_microwave" transform="translate(-648 -2160)">
        <path id="Rectangle" d="M0 0h40v40H0z" class="cls-1" transform="translate(648 2160)"/>
        <g id="icon" transform="translate(655 2096)">
            <path id="Path_275" d="M24.231 76H1.769A1.748 1.748 0 0 0 0 77.722v12.244a1.735 1.735 0 0 0 1.348 1.672v.514a.86.86 0 0 0 .87.847h.9a.86.86 0 0 0 .87-.847v-.465h18.025v.465a.86.86 0 0 0 .87.847h.9a.86.86 0 0 0 .87-.847v-.514A1.735 1.735 0 0 0 26 89.966V77.722A1.748 1.748 0 0 0 24.231 76zM3.145 92.153a.028.028 0 0 1-.028.027h-.9a.028.028 0 0 1-.028-.027v-.465h.955zm-1.376-1.285a.916.916 0 0 1-.927-.9V77.722a.916.916 0 0 1 .927-.9h18v14.046zm22.041 1.285a.028.028 0 0 1-.028.027h-.9a.028.028 0 0 1-.028-.027v-.465h.955zm1.348-2.186a.916.916 0 0 1-.927.9h-3.623V76.82h3.622a.916.916 0 0 1 .927.9z" class="cls-2" data-name="Path 275"/>
            <path id="Path_276" d="M48.594 108H32.421a.416.416 0 0 0-.421.41v11.37a.416.416 0 0 0 .421.41h16.173a.416.416 0 0 0 .421-.41v-11.37a.416.416 0 0 0-.421-.41zm-.421 11.37H32.842v-10.55h15.33z" class="cls-2" data-name="Path 276" transform="translate(-30.203 -30.251)"/>
            <path id="Path_277" d="M385.769 124h-.9a.86.86 0 0 0-.87.847v.875a.86.86 0 0 0 .87.847h.9a.86.86 0 0 0 .87-.847v-.875a.86.86 0 0 0-.87-.847zm.028 1.722a.028.028 0 0 1-.028.027h-.9a.028.028 0 0 1-.028-.027v-.875a.028.028 0 0 1 .028-.027h.9a.028.028 0 0 1 .028.027z" class="cls-2" data-name="Path 277" transform="translate(-362.436 -45.376)"/>
            <path id="Path_278" d="M386.218 188h-1.8a.41.41 0 1 0 0 .82h1.8a.41.41 0 1 0 0-.82z" class="cls-2" data-name="Path 278" transform="translate(-362.436 -105.878)"/>
            <path id="Path_279" d="M386.218 252h-1.8a.41.41 0 1 0 0 .82h1.8a.41.41 0 1 0 0-.82z" class="cls-2" data-name="Path 279" transform="translate(-362.436 -166.379)"/>
            <path id="Path_280" d="M386.218 220h-1.8a.41.41 0 1 0 0 .82h1.8a.41.41 0 1 0 0-.82z" class="cls-2" data-name="Path 280" transform="translate(-362.436 -136.129)"/>
            <path id="Path_281" d="M168 153.071a2.09 2.09 0 0 0 .534 1.411 1.3 1.3 0 0 1 .365.919.421.421 0 0 0 .842 0 2.09 2.09 0 0 0-.534-1.411 1.341 1.341 0 0 1 0-1.839 2.137 2.137 0 0 0 0-2.825 1.3 1.3 0 0 1-.365-.921.421.421 0 0 0-.842 0 2.094 2.094 0 0 0 .533 1.413 1.344 1.344 0 0 1 0 1.841 2.092 2.092 0 0 0-.533 1.412z" class="cls-2" data-name="Path 281" transform="translate(-158.566 -68.059)"/>
            <path id="Path_282" d="M201.405 169.549a.425.425 0 0 0 .339-.167 4.075 4.075 0 0 0 .619-4.137.425.425 0 0 0-.55-.222.406.406 0 0 0-.228.536 3.275 3.275 0 0 1-.512 3.329.4.4 0 0 0-.089.252.416.416 0 0 0 .421.409z" class="cls-2" data-name="Path 282" transform="translate(-189.698 -84.127)"/>
            <path id="Path_283" d="M136.692 195.206a.431.431 0 0 0 .16-.031.406.406 0 0 0 .23-.535 3.274 3.274 0 0 1 .52-3.324q.012-.015.022-.031a.406.406 0 0 0 0-.433.428.428 0 0 0-.579-.134.413.413 0 0 0-.141.139 4.071 4.071 0 0 0-.6 4.1.422.422 0 0 0 .388.249z" class="cls-2" data-name="Path 283" transform="translate(-128.363 -108.39)"/>
        </g>
    </g>
</svg>
