<svg xmlns="http://www.w3.org/2000/svg" viewBox="0 0 40 40">
    <defs>
        <style>
            .cls-1{fill:none}.cls-2{fill:#1278ce}
        </style>
    </defs>
    <g id="icon_gym" transform="translate(-448 -2328)">
        <path id="Rectangle_74" d="M0 0h40v40H0z" class="cls-1" data-name="Rectangle 74" transform="translate(448 2328)"/>
        <g id="icon" transform="translate(458 2335.999)">
            <path id="circle" d="M287.6 337.09a2.49 2.49 0 1 0 2.49-2.49 2.493 2.493 0 0 0-2.49 2.49zm1.092 0a1.4 1.4 0 1 1 1.4 1.4 1.4 1.4 0 0 1-1.4-1.4z" class="cls-2" transform="translate(-274.51 -319.369)"/>
            <path id="equip" d="M2.7 21.066l-1.52 1.966a.544.544 0 1 0 .86.665l1.9-2.462 11.192 1.625h.077a5.065 5.065 0 0 0 2.066-.437l1.142 1.379a.539.539 0 0 0 .419.2.549.549 0 0 0 .423-.9l-1.02-1.22a5.151 5.151 0 0 0-3.031-9.317h-.068l-1.284.15 1.443-3.983h1.666a.546.546 0 1 0 0-1.092H12.9a.546.546 0 0 0 0 1.092h1.252l-1.484 4.092a.084.084 0 0 0-.009.032L3.6 13.92h-.164l2.285-9.69a.544.544 0 0 0-.341-.637L1.607 2.186l.387-1.5A.545.545 0 0 0 .938.411l-.51 1.975a.547.547 0 0 0 .337.646l3.782 1.412L2.244 14.2a3.632 3.632 0 0 0 .46 6.868zm-1.608-3.514a2.548 2.548 0 0 1 2.54-2.544.26.26 0 0 0 .059 0l11.557-1.348a4.06 4.06 0 0 1 .009 8.12L3.714 20.1H3.7a.058.058 0 0 1-.027 0h-.032a2.55 2.55 0 0 1-2.549-2.548z" class="cls-2"/>
        </g>
    </g>
</svg>
