<svg xmlns="http://www.w3.org/2000/svg" viewBox="0 0 40 40">
    <defs>
        <style>
            .cls-1{fill:none}.cls-2{fill:#1278ce}
        </style>
    </defs>
    <g id="icon_electricity" transform="translate(-448 -2160)">
        <path id="bondingbox" d="M0 0h40v40H0z" class="cls-1" transform="translate(448 2160)"/>
        <g id="icon" transform="translate(435.584 2168)">
            <path id="electricity" d="M37.217 1.683a.515.515 0 0 1 .714-.205.535.535 0 0 1 .2.728l-.631 1.08a.51.51 0 0 1-.458.262.805.805 0 0 1-.257-.059zm-9.888 1.605a.51.51 0 0 0 .458.262.806.806 0 0 0 .257-.059.535.535 0 0 0 .2-.728l-.213-.363-.416-.713a.515.515 0 0 0-.714-.205.535.535 0 0 0-.2.728zm5.085-.99a.515.515 0 0 0 .513-.523V.523a.513.513 0 1 0-1.027 0v1.252a.484.484 0 0 0 .515.525zm-9.258 8.36h-1.227a.523.523 0 0 0 0 1.047h1.228a.523.523 0 0 0 0-1.047zm19.746 0h-1.227a.523.523 0 0 0 0 1.047H42.9a.523.523 0 0 0 0-1.047zm-.945-5.069a.515.515 0 0 0-.714-.205l-1.058.642a.535.535 0 0 0-.2.728.51.51 0 0 0 .458.262.805.805 0 0 0 .257-.059l1.058-.642a.529.529 0 0 0 .2-.726zm-2.8 5.535a7.126 7.126 0 0 1-.886 3.41.512.512 0 0 1-.114.205l-.058.086a6.232 6.232 0 0 1-.743.99 6.669 6.669 0 0 0-1.487 3.437v.03c0 .059.029.146.029.232v2.506A1.964 1.964 0 0 1 33.957 24h-3.17a1.964 1.964 0 0 1-1.942-1.98v-2.768a6.74 6.74 0 0 0-1.429-3.35 5.764 5.764 0 0 1-.857-1.165c-.029-.059-.058-.086-.085-.146a6.929 6.929 0 0 1 5.885-10.369 6.839 6.839 0 0 1 6.8 6.903zm-4.315 8.681H29.9v.99h4.942v-.99zm0 2.274v-.205H29.9v.205a.9.9 0 0 0 .886.815h3.174a.9.9 0 0 0 .884-.815zM38.1 11.125a5.745 5.745 0 1 0-11.488 0 6.02 6.02 0 0 0 .8 2.973v.03a7.05 7.05 0 0 0 .773 1.049l.058.059a8.937 8.937 0 0 1 1.63 3.5h5a9.345 9.345 0 0 1 1.685-3.582c0-.03.029-.03.058-.059a3.959 3.959 0 0 0 .656-.9c0-.03.029-.03.029-.059s.029-.03.029-.059a5.8 5.8 0 0 0 .77-2.952zm-13.457-5.1l-1.058-.642a.512.512 0 0 0-.714.205.533.533 0 0 0 .2.728l1.058.642a.41.41 0 0 0 .257.059.513.513 0 0 0 .458-.262.54.54 0 0 0-.2-.729z" class="cls-2"/>
        </g>
    </g>
</svg>
