<svg xmlns="http://www.w3.org/2000/svg" viewBox="0 0 40 40">
    <defs>
        <style>
            .cls-1{fill:none}.cls-2{fill:#1278ce}
        </style>
    </defs>
    <g id="icon_blender" transform="translate(-848 -2270)">
        <path id="Rectangle_81" d="M0 0h40v40H0z" class="cls-1" data-name="Rectangle 81" transform="translate(848 2270)"/>
        <g id="icon" transform="translate(814.001 2278)">
            <path id="Path_311" d="M182.569 368.053a2.045 2.045 0 0 0-2.5 1.414 1.965 1.965 0 0 0 .2 1.518 2.056 2.056 0 0 0 3.739-.483 2 2 0 0 0-1.439-2.449zm-1.712 1.622a1.224 1.224 0 0 1 1.971-.6l-1.988 1.125a1.171 1.171 0 0 1 .017-.526zm2.367.621a1.231 1.231 0 0 1-1.974.6l1.991-1.127a1.172 1.172 0 0 1-.017.531z" class="cls-2" data-name="Path 311" transform="translate(-129.063 -349.585)"/>
            <path id="Path_312" d="M61.957 3.2h-1.9l.27-2.76V.421.4a.357.357 0 0 0-.017-.07.392.392 0 0 0-.01-.069.406.406 0 0 0-.052-.088.406.406 0 0 0-.025-.042s-.005 0-.008-.005a.4.4 0 0 0-.1-.072l-.031-.02A.415.415 0 0 0 59.916 0h-15.51A.4.4 0 0 0 44 .4a.394.394 0 0 0 .045.182L46.1 4.523l1.316 10.614a2.785 2.785 0 0 0 1.093 1.877 2.806 2.806 0 0 0-1.694 1.906l-1.172 4.58a.4.4 0 0 0 .3.485.415.415 0 0 0 .1.012h13.873a.4.4 0 0 0 .408-.4.392.392 0 0 0-.012-.1l-1.169-4.577a2.8 2.8 0 0 0-1.472-1.809 2.777 2.777 0 0 0 1.23-2.046l.92-9.466h1.32a.4.4 0 0 1 .408.382l-.714 6.28a1.1 1.1 0 0 0-.008.146 1.218 1.218 0 0 0 2.427.12L64 5.2a2.023 2.023 0 0 0-2.043-2zm-3.605 15.915l1.042 4.085H46.562l1.038-4.085a2.031 2.031 0 0 1 1.98-1.515h6.788a2.031 2.031 0 0 1 1.984 1.515zm-.263-4.125a2.017 2.017 0 0 1-2.031 1.81h-5.809a2.027 2.027 0 0 1-1.991-1.6h1.454a.4.4 0 1 0 0-.8h-1.568l-.2-1.6h1.767a.4.4 0 1 0 0-.8h-1.865l-.2-1.6h2.065a.4.4 0 1 0 0-.8h-2.162l-.2-1.6h2.362a.4.4 0 1 0 0-.8h-2.46l-.2-1.6h2.66a.4.4 0 1 0 0-.8h-2.758l-.053-.444a.394.394 0 0 0-.041-.134L45.073.8h14.394zm4.353-2.542a.4.4 0 0 1-.8-.04l.72-6.364a.391.391 0 0 0 0-.044 1.212 1.212 0 0 0-1.224-1.2H59.9l.078-.8h1.981a1.21 1.21 0 0 1 1.227 1.16z" class="cls-2" data-name="Path 312"/>
        </g>
    </g>
</svg>
