<svg xmlns="http://www.w3.org/2000/svg" viewBox="0 0 40 40">
    <defs>
        <style>
            .cls-1{fill:none}.cls-2{fill:#1278ce}
        </style>
    </defs>
    <g id="icon_pool" transform="translate(-448 -2272)">
        <path id="Rectangle_73" d="M0 0h40v40H0z" class="cls-1" data-name="Rectangle 73" transform="translate(448 2272)"/>
        <g id="icon" transform="translate(446.11 2280)">
            <path id="water" d="M31.643 314.294a.471.471 0 0 0-.651-.249 5.078 5.078 0 0 1-4.907 0 5.114 5.114 0 0 0-4.988 0 5.078 5.078 0 0 1-4.907 0 5.162 5.162 0 0 0-5.015 0 .513.513 0 0 0-.244.665.533.533 0 0 0 .678.249 4.2 4.2 0 0 1 4.2.028 6.661 6.661 0 0 0 2.738.693 7.286 7.286 0 0 0 2.955-.721 4.2 4.2 0 0 1 4.2.028 6.661 6.661 0 0 0 2.738.693 7.286 7.286 0 0 0 2.955-.721.49.49 0 0 0 .248-.665z" class="cls-2" transform="translate(0 -291.68)"/>
            <path id="water-2" d="M32.043 259.094a.471.471 0 0 0-.651-.249 5.078 5.078 0 0 1-4.907 0 5.114 5.114 0 0 0-4.988 0 5.078 5.078 0 0 1-4.907 0 5.167 5.167 0 0 0-5.015 0 .513.513 0 0 0-.244.665.493.493 0 0 0 .651.249 4.2 4.2 0 0 1 4.2.028 6.661 6.661 0 0 0 2.738.693 7.285 7.285 0 0 0 2.955-.721 4.2 4.2 0 0 1 4.2.028 6.661 6.661 0 0 0 2.738.693 7.285 7.285 0 0 0 2.955-.721.525.525 0 0 0 .275-.665z" class="cls-2" data-name="water" transform="translate(-.373 -240.304)"/>
            <path id="stair" d="M99.911 0a3.674 3.674 0 0 0-3.633 3.714v1.967h-8.62V3.714a2.657 2.657 0 1 1 5.313 0 .488.488 0 1 0 .976 0 3.633 3.633 0 1 0-7.265 0v12.61a.5.5 0 0 0 .488.527.491.491 0 0 0 .488-.5V15.1h8.648v1.247a.488.488 0 1 0 .976 0V3.714a2.644 2.644 0 1 1 5.286 0 .488.488 0 1 0 .976 0A3.674 3.674 0 0 0 99.911 0zm-3.606 14.051h-8.647v-1.774h8.648zm0-2.771h-8.647V9.506h8.648zm0-2.827h-8.647V6.679h8.648z" class="cls-2" transform="translate(-70.653)"/>
        </g>
    </g>
</svg>
