<svg xmlns="http://www.w3.org/2000/svg" viewBox="0 0 40 40">
    <defs>
        <style>
            .cls-1{fill:none}.cls-2{fill:#1278ce}
        </style>
    </defs>
    <g id="icon_heater" transform="translate(-848 -2270)">
        <path id="Rectangle_81" d="M0 0h40v40H0z" class="cls-1" data-name="Rectangle 81" transform="translate(848 2270)"/>
        <g id="icon" transform="translate(791.732 2279)">
            <path id="Path_307" d="M84.04-1H68.494A1.215 1.215 0 0 0 67.267.2v20a1.215 1.215 0 0 0 1.227 1.2v.8a.81.81 0 0 0 .818.8h.818a.81.81 0 0 0 .818-.8v-.8h10.637v.8a.81.81 0 0 0 .818.8h.818a.81.81 0 0 0 .818-.8v-.8a1.215 1.215 0 0 0 1.227-1.2V.2A1.215 1.215 0 0 0 84.04-1zm-15.546.8H84.04a.405.405 0 0 1 .409.4v12H68.085V.2a.405.405 0 0 1 .409-.4zm2.046 20.8h-.351l.662-4.853a.407.407 0 0 1 .405-.347h10.022a.407.407 0 0 1 .405.347l.662 4.853H70.54zm-.409 1.6h-.818v-.8h.818zm13.091 0H82.4v-.8h.818zm.818-1.6h-.869l-.676-4.959a1.223 1.223 0 0 0-1.217-1.041H71.256a1.222 1.222 0 0 0-1.217 1.041l-.676 4.959h-.869a.405.405 0 0 1-.409-.4V13h16.364v7.2a.4.4 0 0 1-.409.4z" class="cls-2" data-name="Path 307"/>
            <path id="Path_308" d="M163.179 366.384v-.051a.409.409 0 0 0-.818 0v.051a1.637 1.637 0 1 0 .818 0zm-.409 2.349a.81.81 0 0 1-.818-.8.8.8 0 0 1 .423-.7.411.411 0 0 0 .791 0 .8.8 0 0 1 .423.7.81.81 0 0 1-.819.8z" class="cls-2" data-name="Path 308" transform="translate(-89.367 -349.733)"/>
            <path id="Path_309" d="M282.646 366.384v-.051a.409.409 0 0 0-.818 0v.051a1.637 1.637 0 1 0 .818 0zm-.409 2.349a.81.81 0 0 1-.818-.8.8.8 0 0 1 .422-.7.411.411 0 0 0 .791 0 .8.8 0 0 1 .422.7.81.81 0 0 1-.817.8z" class="cls-2" data-name="Path 309" transform="translate(-203.107 -349.733)"/>
            <path id="Path_310" d="M189.788 67.692a1.41 1.41 0 0 0 .185.013H190q.056 0 .11-.006a3.331 3.331 0 0 0 3.134-3.381c0-1.6-2.65-4.891-2.953-5.261a.43.43 0 0 0-.639 0c-.3.37-2.953 3.664-2.953 5.249a3.336 3.336 0 0 0 3.089 3.386zm-.634-1.862a6.733 6.733 0 0 1 .818-1.736 7.113 7.113 0 0 1 .819 1.722 1.019 1.019 0 0 1-.773 1.087h-.037l-.081-.003a1.037 1.037 0 0 1-.746-1.07zm-1.635-1.514c0-.985 1.557-3.2 2.455-4.359.9 1.158 2.455 3.374 2.455 4.372a2.483 2.483 0 0 1-.878 1.965 2.268 2.268 0 0 0 .058-.513 9.869 9.869 0 0 0-1.286-2.684.414.414 0 0 0-.7 0 9.672 9.672 0 0 0-1.286 2.7 2.208 2.208 0 0 0 .055.491 2.487 2.487 0 0 1-.873-1.972z" class="cls-2" data-name="Path 310" transform="translate(-113.706 -57.105)"/>
        </g>
    </g>
</svg>
