<svg xmlns="http://www.w3.org/2000/svg" viewBox="0 0 40 40">
    <defs>
        <style>
            .cls-1{fill:none}.cls-2{fill:#1278ce}
        </style>
    </defs>
    <g id="icon_laundry" transform="translate(-848 -2216)">
        <path id="Rectangle_80" d="M0 0h40v40H0z" class="cls-1" data-name="Rectangle 80" transform="translate(848 2216)"/>
        <g id="icon" transform="translate(858 2225)">
            <path id="Path_84" d="M359.7 67.351h-1.34c-.143 0-.26-.191-.26-.425s.117-.425.26-.425h1.34c.143 0 .26.191.26.425s-.118.425-.26.425z" class="cls-2" data-name="Path 84" transform="translate(-342.671 -63.671)"/>
            <path id="Path_82" d="M17.277 22H2.723A2.705 2.705 0 0 1 0 19.316V2.688A2.706 2.706 0 0 1 2.723 0h14.554A2.709 2.709 0 0 1 20 2.688v16.628A2.711 2.711 0 0 1 17.277 22zM2.723.851A1.853 1.853 0 0 0 .862 2.688v16.628a1.853 1.853 0 0 0 1.861 1.838h14.554a1.853 1.853 0 0 0 1.861-1.838V2.688A1.853 1.853 0 0 0 17.277.851z" class="cls-2" data-name="Path 82"/>
            <path id="Rectangle_140" d="M0 0h19.134v.851H0z" class="cls-2" data-name="Rectangle 140" transform="translate(.431 4.985)"/>
            <path id="Path_83" d="M278.7 67.351h-1.34c-.143 0-.26-.191-.26-.425s.117-.425.26-.425h1.34c.143 0 .26.191.26.425s-.118.425-.26.425z" class="cls-2" data-name="Path 83" transform="translate(-264.233 -63.671)"/>
            <path id="Path_85" d="M97.405 188.055a6.028 6.028 0 1 1 6.105-6.027 6.073 6.073 0 0 1-6.105 6.027zm0-11.2a5.177 5.177 0 1 0 5.243 5.177 5.217 5.217 0 0 0-5.243-5.181z" class="cls-2" data-name="Path 85" transform="translate(-87.366 -168.514)"/>
            <path id="Path_86" d="M104.824 288.68a2.115 2.115 0 0 1-1.15-.468 2.542 2.542 0 0 0-1.775-.566c-.431.034-.5.1-.659.234a3.178 3.178 0 0 1-1.5.719c-1.939.51-3.667-1.578-3.74-1.667l.672-.532a5.411 5.411 0 0 0 .944.859 2.3 2.3 0 0 0 1.9.519 2.348 2.348 0 0 0 1.155-.536 1.686 1.686 0 0 1 1.155-.442 3.386 3.386 0 0 1 2.327.706c.315.208.517.336.7.323a3.991 3.991 0 0 0 1.435-.638c.534-.315.974-.625.978-.63l.5.693a8.532 8.532 0 0 1-2.848 1.425.643.643 0 0 0-.094.001z" class="cls-2" data-name="Path 86" transform="translate(-91.864 -274.217)"/>
        </g>
    </g>
</svg>
