<svg xmlns="http://www.w3.org/2000/svg" viewBox="0 0 40 40">
    <defs>
        <style>
            .cls-1{fill:none}.cls-2{fill:#1278ce;stroke:#1278ce;stroke-width:.1px}
        </style>
    </defs>
    <g id="icon_garden" transform="translate(-848 -2270)">
        <path id="Rectangle_81" d="M0 0h40v40H0z" class="cls-1" data-name="Rectangle 81" transform="translate(848 2270)"/>
        <g id="icon" transform="translate(854.999 2225.899)">
            <path id="Path_272" d="M25.559 73.265h-5.546V70.7a3.927 3.927 0 0 0 2.909-2.015 3.857 3.857 0 0 0 2.14-1.335A4.211 4.211 0 0 0 26 64.688a4.143 4.143 0 0 0-2.008-3.577 4.593 4.593 0 0 0-4.473-4.455 4.312 4.312 0 0 0-2.149.577.412.412 0 0 0-.151.572.434.434 0 0 0 .587.147 3.438 3.438 0 0 1 1.713-.46 3.762 3.762 0 0 1 3.623 3.87.417.417 0 0 0 .235.372 3.284 3.284 0 0 1 1.766 2.954 3.206 3.206 0 0 1-2.577 3.212.427.427 0 0 0-.316.231 3.105 3.105 0 0 1-2.237 1.722v-3.7l2.108-1.891a.411.411 0 0 0 .025-.59.436.436 0 0 0-.605-.025l-1.528 1.371v-2.785a.429.429 0 0 0-.857 0v5.057l-1.528-1.371a.436.436 0 0 0-.605.025.411.411 0 0 0 .025.59l2.108 1.891v1.449a3.092 3.092 0 0 1-2.379-1.765.426.426 0 0 0-.3-.23 3.2 3.2 0 0 1-2.453-3.191 3.274 3.274 0 0 1 1.654-2.895.416.416 0 0 0 .218-.369v-.035-.02a4.015 4.015 0 0 1 .762-2.378.411.411 0 0 0-.1-.582.435.435 0 0 0-.6.1 4.819 4.819 0 0 0-.916 2.685 4.121 4.121 0 0 0-1.874 3.495 4.062 4.062 0 0 0 2.927 3.96 3.916 3.916 0 0 0 3.06 2.068v2.55h-.271a2.658 2.658 0 0 0-1.9-2.366 2.526 2.526 0 0 0-1.75-1.362 2.553 2.553 0 0 0-4.676-.688 2.629 2.629 0 0 0-2.12 1.2 2.14 2.14 0 0 0-1.853-1.369v-1.1a3.777 3.777 0 0 0 2.779-1.93 3.711 3.711 0 0 0 2.051-1.282 4.049 4.049 0 0 0 .9-2.56 3.985 3.985 0 0 0-1.915-3.437A4.415 4.415 0 0 0 6.1 54.1a4.138 4.138 0 0 0-2.444.8.411.411 0 0 0-.088.585.436.436 0 0 0 .6.086 3.272 3.272 0 0 1 1.932-.634 3.583 3.583 0 0 1 3.45 3.687.417.417 0 0 0 .233.376 3.126 3.126 0 0 1 1.681 2.812 3.052 3.052 0 0 1-2.452 3.06.427.427 0 0 0-.312.228 2.958 2.958 0 0 1-2.107 1.635v-3.512L8.6 61.418a.411.411 0 0 0 .025-.59.436.436 0 0 0-.605-.025l-1.431 1.284v-2.63a.429.429 0 0 0-.857 0v4.8L4.3 62.974a.436.436 0 0 0-.606.026.411.411 0 0 0 .025.59l2.012 1.805v1.359a2.944 2.944 0 0 1-2.243-1.677.426.426 0 0 0-.3-.23 3.049 3.049 0 0 1-2.331-3.039 3.117 3.117 0 0 1 1.573-2.756.416.416 0 0 0 .218-.369v-.034-.018a3.889 3.889 0 0 1 .29-1.485 3.806 3.806 0 0 1 .2-.407.413.413 0 0 0-.171-.567.434.434 0 0 0-.581.167 4.631 4.631 0 0 0-.239.5 4.688 4.688 0 0 0-.348 1.617A3.964 3.964 0 0 0 0 61.808a3.908 3.908 0 0 0 2.808 3.806 3.768 3.768 0 0 0 2.924 1.981v1.2a2.116 2.116 0 0 0-1.128.9 2.169 2.169 0 0 0-2.044 1.8 2.711 2.711 0 0 0-1.548 1.78H.428a.418.418 0 1 0 0 .836h25.131a.418.418 0 1 0 0-.836zm-23.649 0a1.882 1.882 0 0 1 1.183-1.085.419.419 0 0 0 .3-.385 1.323 1.323 0 0 1 1.344-1.273h.1a.43.43 0 0 0 .426-.255 1.283 1.283 0 0 1 2.448.383.423.423 0 0 0 .394.384 1.293 1.293 0 0 1 .337.072l.059.023.013.005.054.024.018.009q.037.018.072.039l.038.023.028.018.042.029.023.017.049.039.013.011a1.264 1.264 0 0 1 .119.117l.01.012.045.055.008.011a1.235 1.235 0 0 1 .091.139l.011.02.028.055.01.022a.932.932 0 0 1 .03.073.425.425 0 0 0 .313.266c.038.008.076.018.113.029l.036.012.073.026.041.017.063.028.041.021.058.032.04.025.055.037.038.027.052.041.034.029.051.048.029.029c.019.019.036.04.054.06l.02.022q.035.043.067.088l.012.019.047.073.019.035c.011.021.023.041.033.063l.018.04.026.062.016.043.02.062c0 .015.008.03.012.045l.015.064.009.045c.003.015 0 .014 0 .021zm9.56 0v-.012c0-.05-.011-.1-.02-.148v-.009q-.013-.075-.031-.148v-.006a1.513 1.513 0 0 0-.042-.144v-.015a2.456 2.456 0 0 0-.05-.135l-.008-.019q-.027-.065-.059-.128l-.01-.02q-.032-.063-.068-.123l-.011-.018q-.037-.061-.078-.119l-.01-.014a2.002 2.002 0 0 0-.089-.117l-.006-.007q-.049-.059-.1-.115a2.724 2.724 0 0 0-.108-.107l-.01-.009a2.524 2.524 0 0 0-.111-.095l-.015-.012q-.056-.044-.115-.085l-.018-.013q-.059-.04-.121-.076l-.019-.011q-.063-.036-.127-.068l-.018-.009a2.354 2.354 0 0 0-.136-.061h-.012a3.312 3.312 0 0 0-.148-.053l-.02-.019q-.026-.051-.055-.1l-.03-.049-.038-.059-.038-.055-.035-.047-.045-.058-.028-.033q-.054-.064-.113-.123l-.02-.021-.06-.056-.035-.031-.059-.049-.044-.034-.056-.042a2.342 2.342 0 0 0-.082-.055l-.022-.015a1.769 1.769 0 0 1 1.515-.841c.039 0 .081 0 .132.005a.429.429 0 0 0 .426-.255 1.684 1.684 0 0 1 3.214.5.423.423 0 0 0 .394.384 1.671 1.671 0 0 1 1.443 1.072.425.425 0 0 0 .313.266 1.818 1.818 0 0 1 1.443 1.606h-6.559z" class="cls-2" data-name="Path 272"/>
        </g>
    </g>
</svg>
