<svg xmlns="http://www.w3.org/2000/svg" viewBox="0 0 40 40">
    <defs>
        <style>
            .cls-1{fill:none}.cls-2{fill:#1278ce;stroke:#1278ce;stroke-width:.1px}
        </style>
    </defs>
    <g id="icon_fridge" transform="translate(-648 -2328)">
        <path id="Rectangle_78" d="M0 0h40v40H0z" class="cls-1" data-name="Rectangle 78" transform="translate(648 2328)"/>
        <g id="icon" transform="translate(593.258 2336)">
            <path id="Path_318" d="M109.314 36.353a1.3 1.3 0 0 0-1.3 1.3v3.9a1.3 1.3 0 0 0 2.6 0v-3.9a1.3 1.3 0 0 0-1.3-1.3zm.595 5.2a.595.595 0 0 1-1.19 0v-3.9a.595.595 0 1 1 1.19 0z" class="cls-2" data-name="Path 318" transform="translate(-40.292 -34.649)"/>
            <path id="Path_319" d="M109.314 227a1.3 1.3 0 0 0-1.3 1.3v7.185a1.3 1.3 0 1 0 2.6 0V228.3a1.3 1.3 0 0 0-1.3-1.3zm.595 8.483a.595.595 0 1 1-1.19 0V228.3a.595.595 0 0 1 1.19 0z" class="cls-2" data-name="Path 319" transform="translate(-40.292 -216.358)"/>
            <path id="Path_323" d="M81.245 0h-13.17a2.336 2.336 0 0 0-2.333 2.333v17.661a2.336 2.336 0 0 0 1.982 2.306v.471A1.231 1.231 0 0 0 68.953 24H70.5a1.231 1.231 0 0 0 1.229-1.229v-.444h5.86v.444A1.231 1.231 0 0 0 78.82 24h1.548a1.231 1.231 0 0 0 1.232-1.229V22.3a2.336 2.336 0 0 0 1.982-2.306V2.333A2.336 2.336 0 0 0 81.245 0zM71.027 22.771a.527.527 0 0 1-.526.526h-1.548a.527.527 0 0 1-.526-.526v-.444h2.6zm9.34.526H78.82a.527.527 0 0 1-.526-.526v-.444h2.6v.444a.527.527 0 0 1-.526.529zM82.876 9.2H79.9a.352.352 0 1 0 0 .7h2.979v10.094a1.632 1.632 0 0 1-1.63 1.63H68.075a1.632 1.632 0 0 1-1.63-1.63V9.907h12.046a.352.352 0 1 0 0-.7H66.445V2.333A1.632 1.632 0 0 1 68.075.7h13.17a1.632 1.632 0 0 1 1.63 1.63z" class="cls-2" data-name="Path 323"/>
        </g>
    </g>
</svg>
