<svg xmlns="http://www.w3.org/2000/svg" viewBox="0 0 40 40">
    <defs>
        <style>
            .cls-1{fill:none}.cls-2{fill:#1278ce;stroke:#1278ce;stroke-width:.1px}
        </style>
    </defs>
    <g id="icon_tv" transform="translate(-648 -2328)">
        <path id="Rectangle_78" d="M0 0h40v40H0z" class="cls-1" data-name="Rectangle 78" transform="translate(648 2328)"/>
        <g id="icon" transform="translate(657 2329.5)">
            <path id="Path_301" d="M21.4 12.647h-9.668l2.828-4.522a.388.388 0 0 0-.12-.555.4.4 0 0 0-.56.119L10.994 12.3 7.72 7.649a.426.426 0 0 0-.56-.079.417.417 0 0 0-.08.555l3.181 4.523H.6A1.6 1.6 0 0 0-1 14.234v13.489A1.6 1.6 0 0 0 .6 29.31H1v.79a.376.376 0 0 0 .4.4.376.376 0 0 0 .4-.4v-.79h18.4v.79a.4.4 0 0 0 .8 0v-.79h.4a1.6 1.6 0 0 0 1.6-1.587V14.234a1.6 1.6 0 0 0-1.6-1.587zm.8 15.076a.8.8 0 0 1-.8.793H.6a.8.8 0 0 1-.8-.793V14.234a.8.8 0 0 1 .8-.793h20.8a.8.8 0 0 1 .8.793z" class="cls-2" data-name="Path 301"/>
            <path id="Path_302" d="M46.173 149.975h-11.2a2.4 2.4 0 0 0-2.4 2.38v8.728a2.4 2.4 0 0 0 2.4 2.38h11.2a2.4 2.4 0 0 0 2.4-2.38v-8.728a2.4 2.4 0 0 0-2.4-2.38zm1.6 11.108a1.6 1.6 0 0 1-1.6 1.587h-11.2a1.6 1.6 0 0 1-1.6-1.587v-8.728a1.6 1.6 0 0 1 1.6-1.587h11.2a1.6 1.6 0 0 1 1.6 1.587v8.728z" class="cls-2" data-name="Path 302" transform="translate(-31.973 -135.741)"/>
            <path id="Path_303" d="M388.7 191.942h-3.2a.4.4 0 1 0 0 .793h3.2a.4.4 0 1 0 0-.793z" class="cls-2" data-name="Path 303" transform="translate(-367.698 -175.724)"/>
            <path id="Path_304" d="M388.7 225.516h-3.2a.4.4 0 1 0 0 .793h3.2a.4.4 0 1 0 0-.793z" class="cls-2" data-name="Path 304" transform="translate(-367.698 -207.711)"/>
            <path id="Path_305" d="M388.7 259.089h-3.2a.4.4 0 1 0 0 .793h3.2a.4.4 0 1 0 0-.793z" class="cls-2" data-name="Path 305" transform="translate(-367.698 -239.697)"/>
            <path id="Path_306" d="M388.7 292.663h-3.2a.376.376 0 0 0-.4.4v3.174a.376.376 0 0 0 .4.4h3.2a.376.376 0 0 0 .4-.4v-3.177a.376.376 0 0 0-.4-.397zm-.4 3.174h-2.4v-2.38h2.4z" class="cls-2" data-name="Path 306" transform="translate(-367.698 -271.684)"/>
        </g>
    </g>
</svg>
