<svg xmlns="http://www.w3.org/2000/svg" viewBox="0 0 40 40">
    <defs>
        <style>
            .cls-1{fill:none}.cls-2{fill:#1278ce;stroke:#1278ce;stroke-width:.1px}
        </style>
    </defs>
    <g id="icon_iron" transform="translate(-648 -2160)">
        <path id="Rectangle_75" d="M0 0h40v40H0z" class="cls-1" data-name="Rectangle 75" transform="translate(648 2160)"/>
        <g id="icon" transform="translate(654.998 2169.5)">
            <path id="Path_313" d="M23.622 9.723a.368.368 0 0 0-.5-.229.441.441 0 0 0-.206.553l1.984 5.325a.264.264 0 0 1-.012.215.217.217 0 0 1-.159.12 6.79 6.79 0 0 0-2.336.832 7.414 7.414 0 0 0-2.027 1.734h-6.8a.426.426 0 0 0 0 .847h6.507a.838.838 0 0 1-.757.533H1.6a.838.838 0 0 1-.757-.533h11.1a.426.426 0 0 0 0-.847H1.035l1.378-2.712c.17.016.339.024.506.024a5.216 5.216 0 0 0 .988-.093 4.1 4.1 0 0 0 2.13-1.083.457.457 0 0 0 .043-.6.355.355 0 0 0-.537-.049 3.4 3.4 0 0 1-1.767.894 4.547 4.547 0 0 1-.946.08l.109-.215a15.009 15.009 0 0 1 11.609-8.39l5.171-.559a1.829 1.829 0 0 1 1.18.277.365.365 0 0 0 .066.044 2.123 2.123 0 0 1 .682.791v.008c-1.3 0-2.608.045-3.889.142a23.939 23.939 0 0 0-5.083.824 10.077 10.077 0 0 0-3.186 1.588 11.807 11.807 0 0 0-2.744 3.013c-.118.169-.23.329-.342.485a.456.456 0 0 0 .059.6.355.355 0 0 0 .538-.071c.116-.161.23-.324.35-.5a11.131 11.131 0 0 1 2.562-2.823 9.241 9.241 0 0 1 2.968-1.471 23.288 23.288 0 0 1 4.935-.8c1.373-.1 2.774-.151 4.169-.138l.352.944a.369.369 0 0 0 .5.229.441.441 0 0 0 .206-.553l-.4-1.06L23.25 7a1.065 1.065 0 0 0 .833-.907l.769-.256A1.767 1.767 0 0 0 26 4.118a1.71 1.71 0 0 0-1.61-1.791h-4.673a.9.9 0 0 1-.849-.944v-.46a.383.383 0 1 0-.762 0v.459a1.71 1.71 0 0 0 1.611 1.791h4.673a.9.9 0 0 1 .849.944.931.931 0 0 1-.605.9l-.7.234a.97.97 0 0 0-1-.494l-1.734.3a2.521 2.521 0 0 0-1.557-.338l-5.171.559a14.783 14.783 0 0 0-7.214 2.871v-.556a.722.722 0 0 0-.367-.647.588.588 0 0 0-.682.087l-.384.342a1.815 1.815 0 0 0-.588 1.361v1.193a17.349 17.349 0 0 0-2.958 4.177L.051 18.489a.478.478 0 0 0-.051.233A1.7 1.7 0 0 0 1.6 20.5h17.72a1.681 1.681 0 0 0 1.594-1.635 6.644 6.644 0 0 1 1.832-1.574 6.078 6.078 0 0 1 2.093-.745.979.979 0 0 0 .713-.539 1.193 1.193 0 0 0 .054-.959zM23.054 5.6a.225.225 0 0 1 .181.049.275.275 0 0 1 .1.177v.025a.269.269 0 0 1-.2.31l-.8.14a3.115 3.115 0 0 0-.321-.518zM6 8.736a.933.933 0 0 1 .3-.7l.2-.174v.889q-.253.213-.5.436zm0 0" class="cls-2" data-name="Path 313"/>
            <path id="Path_314" d="M229.574 155.233v-.071a2.292 2.292 0 0 0-2.159-2.4H222.3a2.292 2.292 0 0 0-2.159 2.4v.071a2.291 2.291 0 0 0 2.159 2.4h5.112a2.291 2.291 0 0 0 2.162-2.4zm-6.056 1.553v-.324a.22.22 0 0 1 .207-.23h2.253a.22.22 0 0 1 .207.23v.324zm5.294-1.553a1.483 1.483 0 0 1-1.4 1.553h-.469v-.324a1.028 1.028 0 0 0-.969-1.077h-2.253a1.028 1.028 0 0 0-.969 1.077v.324h-.452a1.483 1.483 0 0 1-1.4-1.553v-.071a1.483 1.483 0 0 1 1.4-1.553h5.113a1.483 1.483 0 0 1 1.4 1.553zm0 0" class="cls-2" data-name="Path 314" transform="translate(-208.964 -143.666)"/>
        </g>
    </g>
</svg>
