<svg xmlns="http://www.w3.org/2000/svg" viewBox="0 0 40 40">
    <defs>
        <style>
            .cls-1{fill:none}.cls-2{fill:#1278ce}
        </style>
    </defs>
    <g id="icon_rental" transform="translate(-1048 -2160)">
        <path id="Rectangle_83" d="M0 0h40v40H0z" class="cls-1" data-name="Rectangle 83" transform="translate(1048 2160)"/>
        <g id="icon" transform="translate(1006.4 2168)">
            <path id="Path_103" d="M157.316 232h-4.272a.444.444 0 1 0 0 .889h4.272a.444.444 0 1 0 0-.889z" class="cls-2" data-name="Path 103" transform="translate(-93.827 -217.679)"/>
            <path id="Path_104" d="M157.291 303.6h-4.247a.444.444 0 1 0 0 .889h4.272a.443.443 0 0 0 .444-.444.481.481 0 0 0-.469-.445z" class="cls-2" data-name="Path 104" transform="translate(-93.827 -284.859)"/>
            <path id="Path_102" d="M69.119 12.173h-5.235a2.6 2.6 0 0 0-2.1-2.1V7.111h3.259a.435.435 0 0 0 .42-.543L64.007.346A.446.446 0 0 0 63.588 0h-4.494a.446.446 0 0 0-.42.346l-1.481 6.222a.487.487 0 0 0 .074.37.472.472 0 0 0 .346.173H60.9v2.963a2.572 2.572 0 0 0-2.1 2.1h-5.21a.991.991 0 0 0-.988.988v7.556a.991.991 0 0 0 .988.988h.494v1.481a.856.856 0 0 0 .886.813h.914a.856.856 0 0 0 .889-.815V21.7h9.16v1.481a.856.856 0 0 0 .889.815h.914a.856.856 0 0 0 .889-.815V21.7h.494a.991.991 0 0 0 .988-.988V13.16a.991.991 0 0 0-.988-.987zM58.18 6.222L59.44.889h3.8l1.26 5.333zm3.16 4.691a1.668 1.668 0 0 1 1.63 1.259h-3.259a1.7 1.7 0 0 1 1.63-1.258zm-7.851 2.247a.106.106 0 0 1 .1-.1h15.48c.074-.025.123.025.123.1v3.333h-15.7zm2.4 9.951h-.919V21.7h.914zm11.827 0H66.8V21.7h.914zm1.506-2.42c-.025.074-.074.123-.123.123H53.612a.106.106 0 0 1-.1-.1v-3.356h15.7z" class="cls-2" data-name="Path 102"/>
        </g>
    </g>
</svg>
