<svg xmlns="http://www.w3.org/2000/svg" viewBox="0 0 40 40">
    <defs>
        <style>
            .cls-1{fill:none}.cls-2{fill:#1278ce}
        </style>
    </defs>
    <g id="icon_tennis" transform="translate(-448 -2272)">
        <path id="Rectangle" d="M0 0h40v40H0z" class="cls-1" transform="translate(448.001 2272)"/>
        <g id="icon" transform="translate(456.926 2279.983)">
            <path id="Path_222" d="M8.125 10.033a2.155 2.155 0 0 1 .52-.258 2.351 2.351 0 0 1 3 1.434 2.567 2.567 0 0 1 .131.614 3.713 3.713 0 0 1-2.213-.234 4.733 4.733 0 0 0-2.377-.309 2.4 2.4 0 0 1 .22-.488 2.621 2.621 0 0 1 .719-.759zM2.2 28.985l.966-.97.858-.858L5.3 28.432l-2.927 2.925L1.1 30.082l.933-.933m20.989-11.185a7.269 7.269 0 0 1-.342 1.172 9.945 9.945 0 0 1-2.325 3.614 9.8 9.8 0 0 1-4.547 2.611 7.818 7.818 0 0 1-4.7-.225 3.028 3.028 0 0 0-3.22.7l-.872.872-1.272-1.271.872-.872a3.021 3.021 0 0 0 .7-3.22 8.233 8.233 0 0 1 .473-6.6 3.2 3.2 0 0 0 .891.361 8.586 8.586 0 0 0-.375.919 7.477 7.477 0 0 0-.366 3.042 6.043 6.043 0 0 0 1.7 3.708l.014.014a6 6 0 0 0 3.717 1.716c.216.019.436.033.656.033a7.665 7.665 0 0 0 2.386-.394 8.605 8.605 0 0 0 5.32-5.325 7.487 7.487 0 0 0 .368-3.039 5.921 5.921 0 0 0-5.433-5.433 7.329 7.329 0 0 0-3.042.366 7.908 7.908 0 0 0-1.106.469 3.59 3.59 0 0 0-.075-.248 3.207 3.207 0 0 0-4.085-1.956 3.133 3.133 0 0 0-.708.356 3.215 3.215 0 0 0-1.242 3.736 3.132 3.132 0 0 0 .7 1.144 9.123 9.123 0 0 0-.591 7.439 2.179 2.179 0 0 1-.511 2.316l-3.442 3.446-.164.164-.97.97L.2 29.782a.427.427 0 0 0 0 .6l1.875 1.875a.419.419 0 0 0 .6 0L8.5 26.435a2.179 2.179 0 0 1 2.316-.511 8.629 8.629 0 0 0 5.2.253 10.658 10.658 0 0 0 4.945-2.831 10.836 10.836 0 0 0 2.522-3.924m-14.664-.239l1.158-1.158 1.444 1.444a.419.419 0 0 0 .6 0 .427.427 0 0 0 0-.6l-1.444-1.444L12.5 15.5l1.927 1.927-4.446 4.447a5.221 5.221 0 0 1-1.162-2.691zm-.038-1.167a6.629 6.629 0 0 1 .15-1.041l.445.445zm6.253-1.2l-1.927-1.927 1.927-1.927 1.927 1.927zm2.527-1.316l1.927 1.927-1.927 1.927-1.927-1.931zm-4.289 8.138a5.183 5.183 0 0 1-2.691-1.163l4.449-4.449 1.927 1.927-1.927 1.926-1.53-1.533a.424.424 0 0 0-.6.6l1.533 1.533zm1.167.038l.6-.6.445.445a7.229 7.229 0 0 1-1.045.153zm1.964-.427l-.769-.773 1.927-1.927 1.233 1.233a7.641 7.641 0 0 1-2.394 1.465zm2.991-2.067l-1.233-1.233 1.927-1.927.769.769a7.608 7.608 0 0 1-1.463 2.389zm1.739-3.314l-.445-.445.6-.6a6.55 6.55 0 0 1-.155 1.043zm.113-2.2l-1.158 1.158-1.927-1.927 1.922-1.922a5.183 5.183 0 0 1 1.163 2.686zm-4.454-4.458a5.183 5.183 0 0 1 2.691 1.163l-1.922 1.922-1.927-1.927zm-1.163-.038l-.6.6-.445-.445a6.55 6.55 0 0 1 1.046-.155zm-3.3 2.2a3.222 3.222 0 0 0 .314-1.294 7.268 7.268 0 0 1 1.027-.478l.764.769-1.934 1.925-.455-.455a3.328 3.328 0 0 0 .28-.468zm-.429 1.522l-1.919 1.927-.769-.769a7.061 7.061 0 0 1 .389-.863 3.2 3.2 0 0 0 1.87-.727zm-4.816-2.733A3.713 3.713 0 0 1 9.3 12.4a5.378 5.378 0 0 0 1.772.356 3.97 3.97 0 0 0 .6-.047 2.352 2.352 0 0 1-4.589-.544zM5.9 27.832l-1.277-1.275.52-.52 1.275 1.275z" class="cls-2" data-name="Path 222" transform="translate(0 -8.367)"/>
            <path id="Path_223" d="M272.382 11.06l.37-1.28a8.935 8.935 0 0 0-.037-4.064 7.466 7.466 0 0 0-6.282-5.611 9.373 9.373 0 0 0-4.955.68.427.427 0 1 0 .328.788 8.552 8.552 0 0 1 4.5-.623 6.732 6.732 0 0 1 3.844 1.889 6.587 6.587 0 0 1 1.739 3.084 8.012 8.012 0 0 1 .028 3.67" class="cls-2" data-name="Path 223" transform="translate(-248.9)"/>
        </g>
    </g>
</svg>
