<svg xmlns="http://www.w3.org/2000/svg" viewBox="0 0 40 40">
    <defs>
        <style>
            .cls-1{fill:none}.cls-2{fill:#1278ce}
        </style>
    </defs>
    <g id="icon_bed" transform="translate(-648 -2272)">
        <path id="Rectangle_77" d="M0 0h40v40H0z" class="cls-1" data-name="Rectangle 77" transform="translate(648 2272)"/>
        <g id="icon">
            <path id="Path_72" d="M26 11.468V9.6c0-.766-.55-1.466-1.62-2.072v-6.14a1.46 1.46 0 0 0-.356-.972 1.212 1.212 0 0 0-.9-.417H2.878A1.33 1.33 0 0 0 1.62 1.388v6.143C.55 8.131 0 8.83 0 9.6v6.465A.9.9 0 0 0 .849 17h.881a.869.869 0 0 0 .833-.755l.21-1.188a.388.388 0 0 1 .356-.35H22.86a.4.4 0 0 1 .356.35l.21 1.188a.877.877 0 0 0 .834.755h.881a.9.9 0 0 0 .849-.933l.01-4.6zM2.511 1.388a.411.411 0 0 1 .367-.444h20.25a.347.347 0 0 1 .246.117.494.494 0 0 1 .115.328V7.1A14.172 14.172 0 0 0 22 6.581l-.3-.081a2.005 2.005 0 0 0 .252-.983V4.143a1.767 1.767 0 0 0-1.662-1.849h-6.07a1.6 1.6 0 0 0-1.22.588 1.587 1.587 0 0 0-1.216-.589H5.708a1.763 1.763 0 0 0-1.661 1.85V5.52a2.063 2.063 0 0 0 .253.98l-.3.087a14.172 14.172 0 0 0-1.494.513V1.388zm2.762 4.871a.953.953 0 0 1-.33-.744V4.143a.847.847 0 0 1 .771-.905h6.075a.847.847 0 0 1 .771.905v1.366a36.124 36.124 0 0 0-7.287.75zm8.172-2.116a.847.847 0 0 1 .771-.905h6.07a.847.847 0 0 1 .771.905V5.52a.971.971 0 0 1-.325.739l.005.011a35.813 35.813 0 0 0-7.3-.755V4.143zM.891 9.6c0-.55.881-1.394 3.35-2.1A33.071 33.071 0 0 1 13 6.453 33.071 33.071 0 0 1 21.759 7.5c2.469.711 3.35 1.555 3.35 2.1v1.866H.891zm24.218 6.45h-.8l-.2-1.172a1.3 1.3 0 0 0-1.232-1.122H3.135A1.3 1.3 0 0 0 1.9 14.878l-.21 1.172h-.8v-3.643h24.219z" class="cls-2" data-name="Path 72" transform="translate(655 2284)"/>
        </g>
    </g>
</svg>
