<svg xmlns="http://www.w3.org/2000/svg" viewBox="0 0 40 40">
    <defs>
        <style>
            .cls-1{fill:none}.cls-2{fill:#1278ce}
        </style>
    </defs>
    <g id="icon_security" transform="translate(-648 -2216)">
        <path id="Rectangle_76" d="M0 0h40v40H0z" class="cls-1" data-name="Rectangle 76" transform="translate(648 2216)"/>
        <g id="icon" transform="translate(1 1)">
            <path id="face" d="M37.114 233.225A8.435 8.435 0 0 1 28.5 225a4.51 4.51 0 0 1 .155-1.4l1.137.251a3.484 3.484 0 0 0-.126 1.149 7.456 7.456 0 0 0 14.9 0 3.263 3.263 0 0 0-.141-.914l1.147-.209a4.185 4.185 0 0 1 .16 1.123 8.435 8.435 0 0 1-8.618 8.225z" class="cls-2" transform="translate(629.885 2010.775)"/>
            <path id="hat" d="M19.958 10.574l-1.414-3.36 1.2-3.569a.493.493 0 0 0-.36-.622L10.095.068a.661.661 0 0 0-.413 0L.363 3.265a.492.492 0 0 0-.34.631l1.229 3.332-1.224 3.036a.452.452 0 0 0 .044.422.575.575 0 0 0 .394.246l9.416 1.647a.987.987 0 0 0 .117.009.615.615 0 0 0 .092 0l9.416-1.327a.61.61 0 0 0 .413-.246.478.478 0 0 0 .038-.441zM9.905 1.089l8.571 2.724-.918 2.719a26.415 26.415 0 0 0-10.772-.881 26.354 26.354 0 0 0-4.543.937L1.3 4.04zM10 11.563l-8.651-1.518.962-2.385a24.005 24.005 0 0 1 4.63-.993 24.948 24.948 0 0 1 10.519.924l1.161 2.757z" class="cls-2" transform="translate(657.007 2223.963)"/>
            <ellipse id="circle" cx=".841" cy=".803" class="cls-2" rx=".841" ry=".803" transform="translate(666.159 2226.226)"/>
        </g>
    </g>
</svg>
