<svg xmlns="http://www.w3.org/2000/svg" viewBox="0 0 40 40">
    <defs>
        <style>
            .cls-1{fill:none}.cls-2{fill:#1278ce}
        </style>
    </defs>
    <g id="icon_wifi" transform="translate(-648 -2160)">
        <path id="Rectangle_75" d="M0 0h40v40H0z" class="cls-1" data-name="Rectangle 75" transform="translate(648 2160)"/>
        <g id="icon" transform="translate(657 2116.408)">
            <path id="Path_68" d="M202.775 353.092a1 1 0 1 0 1-1 1 1 0 0 0-1 1zm1.071 0a.071.071 0 1 1-.071-.071c.045.009.071.035.071.071z" class="cls-2" data-name="Path 68" transform="translate(-192.775 -282.579)"/>
            <path id="Path_69" d="M93.139 158.892a.8.8 0 0 0 .562-.244.778.778 0 0 0-.051-1.093 9.956 9.956 0 0 0-13.5-.051.777.777 0 0 0-.05 1.096.763.763 0 0 0 1.085.051 8.433 8.433 0 0 1 11.429.039.751.751 0 0 0 .525.202z" class="cls-2" data-name="Path 69" transform="translate(-75.901 -94.607)"/>
            <path id="Path_70" d="M150.349 258.759a.749.749 0 0 0 .542-.254.856.856 0 0 0-.049-1.138 5.242 5.242 0 0 0-7.515-.04.855.855 0 0 0-.049 1.138.7.7 0 0 0 1.047.054 3.851 3.851 0 0 1 5.519.027.716.716 0 0 0 .505.213z" class="cls-2" data-name="Path 70" transform="translate(-136.084 -190.754)"/>
            <path id="Path_71" d="M21.209 59.592a.886.886 0 0 0 .583-.226.664.664 0 0 0-.053-1.009 16.9 16.9 0 0 0-10.779-3.765 17.017 17.017 0 0 0-10.7 3.694.663.663 0 0 0-.052 1.014.863.863 0 0 0 1.127.047 15.241 15.241 0 0 1 9.625-3.325 15.254 15.254 0 0 1 9.706 3.378.937.937 0 0 0 .543.192z" class="cls-2" data-name="Path 71" transform="translate(0 1)"/>
        </g>
    </g>
</svg>
