<svg xmlns="http://www.w3.org/2000/svg" viewBox="0 0 40 40">
    <defs>
        <style>
            .cls-1{fill:none}.cls-2{fill:#1278ce}
        </style>
    </defs>
    <g id="icon_repair" transform="translate(-1048 -2272)">
        <path id="Rectangle_85" d="M0 0h40v40H0z" class="cls-1" data-name="Rectangle 85" transform="translate(1048 2272)"/>
        <g id="icon" transform="translate(1056.997 2281)">
            <path id="Path_110" d="M137.288 151.424z" class="cls-2" data-name="Path 110" transform="translate(-131.386 -144.918)"/>
            <path id="Path_111" d="M16.472 12.215a1.286 1.286 0 0 0-1.823 0l-.3.3-.911-.911 2.384-2.384A4.728 4.728 0 0 0 21.677 3a.43.43 0 0 0-.7-.147l-2.59 2.59A3.436 3.436 0 0 1 16.56 3.62l2.59-2.59A.43.43 0 0 0 19 .326a4.728 4.728 0 0 0-6.223 5.859L10.4 8.569 7.211 5.385l-.4-2.118a.43.43 0 0 0-.2-.286L1.873.064a.43.43 0 0 0-.529.062L.129 1.341a.43.43 0 0 0-.062.529l2.917 4.74a.43.43 0 0 0 .286.2l2.118.4 3.184 3.185-7.939 7.937a2.148 2.148 0 1 0 3.038 3.038l7.94-7.939.912.911-.3.3a1.288 1.288 0 0 0 0 1.823l4.65 4.65a3.008 3.008 0 0 0 4.254-4.254zM13.579 6.6a.43.43 0 0 0 .1-.461A3.869 3.869 0 0 1 18.031.933l-2.274 2.275a.43.43 0 0 0-.1.44 4.294 4.294 0 0 0 2.7 2.7.43.43 0 0 0 .44-.1l2.274-2.274a3.869 3.869 0 0 1-5.206 4.356.429.429 0 0 0-.461.1L12.826 11 11 9.177zM3.063 20.762A1.289 1.289 0 0 1 1.24 18.94L9.18 11 11 12.823zM5.9 6.506a.43.43 0 0 0-.224-.118L3.616 6 .977 1.709l.735-.735L6 3.613l.39 2.062a.429.429 0 0 0 .118.224l7.228 7.228-.607.607zm14.612 14a2.148 2.148 0 0 1-3.039 0l-4.65-4.65a.429.429 0 0 1 0-.608l2.43-2.43a.429.429 0 0 1 .608 0l4.65 4.649a2.152 2.152 0 0 1 .003 3.044z" class="cls-2" data-name="Path 111"/>
            <path id="Path_112" d="M137.277 151.413z" class="cls-2" data-name="Path 112" transform="translate(-131.376 -144.907)"/>
            <path id="Path_114" d="M363.3 334.407l-3.434-3.435a.43.43 0 0 0-.608.608l3.434 3.435a.43.43 0 0 0 .608-.608z" class="cls-2" data-name="Path 114" transform="translate(-343.7 -316.63)"/>
            <path id="Path_113" d="M41.963 423.836a.43.43 0 0 0-.608 0l-1.215 1.215a.43.43 0 0 0 .608.608l1.215-1.215a.43.43 0 0 0 0-.608z" class="cls-2" data-name="Path 113" transform="translate(-38.292 -405.504)"/>
            <path id="Path_115" d="M335.016 362.694l-3.435-3.434a.43.43 0 1 0-.608.608l3.435 3.434a.43.43 0 0 0 .608-.608z" class="cls-2" data-name="Path 115" transform="translate(-316.629 -343.703)"/>
            <path id="Path_109" d="M97.312 395.553a.43.43 0 1 0 0 .608.43.43 0 0 0 0-.608z" class="cls-2" data-name="Path 109" transform="translate(-92.426 -378.436)"/>
        </g>
    </g>
</svg>
