<svg xmlns="http://www.w3.org/2000/svg" viewBox="0 0 40 40">
    <defs>
        <style>
            .cls-1{fill:none}.cls-2{fill:#1278ce;stroke:#1278ce;stroke-width:.2px}
        </style>
    </defs>
    <g id="icon_parking" transform="translate(-848 -2272)">
        <path id="Rectangle_81" d="M0 0h40v40H0z" class="cls-1" data-name="Rectangle 81" transform="translate(848 2272)"/>
        <g id="car" transform="translate(856 2212.951)">
            <path id="Path_92" d="M92.971 292.525a1.787 1.787 0 1 0-1.787-1.787 1.789 1.789 0 0 0 1.787 1.787zm0-2.809a1.021 1.021 0 1 1-1.021 1.021 1.022 1.022 0 0 1 1.021-1.02z" class="cls-2" data-name="Path 92" transform="translate(-86.528 -206.775)"/>
            <path id="Path_93" d="M310.6 288.951a1.787 1.787 0 1 0 1.787 1.787 1.789 1.789 0 0 0-1.787-1.787zm0 2.809a1.021 1.021 0 1 1 1.021-1.021 1.022 1.022 0 0 1-1.021 1.02z" class="cls-2" data-name="Path 93" transform="translate(-293.047 -206.775)"/>
            <path id="Path_94" d="M46.114 101.815h1.214a.383.383 0 1 0 0-.766h-1.214a2.933 2.933 0 0 0-1.745.754l-3.068 3.26a.383.383 0 0 0 .279.645H56.4a.383.383 0 0 0 .347-.544l-1.576-3.389a1.517 1.517 0 0 0-1.145-.726h-5.165a.383.383 0 0 0-.383.383v3.511h-6.012l2.461-2.615a2.272 2.272 0 0 1 1.187-.513zm3.129 0h4.785a.884.884 0 0 1 .452.285l1.322 2.843h-6.558z" class="cls-2" data-name="Path 94" transform="translate(-39.093 -28.468)"/>
            <path id="Path_95" d="M24 80.58a3.654 3.654 0 0 0-2.34-3.246l-1.791-.6a1.692 1.692 0 0 1-.827-.734l-1.575-3.346a3.008 3.008 0 0 0-2.531-1.606H7.021a4.429 4.429 0 0 0-2.861 1.236L.629 76.037A2.629 2.629 0 0 0 0 77.624v4.808a1.917 1.917 0 0 0 1.915 1.915h.718a3.83 3.83 0 0 0 7.621 0h2.324a.383.383 0 0 0 0-.766h-2.324a3.83 3.83 0 0 0-7.621 0h-.718a1.15 1.15 0 0 1-1.149-1.15v-4.807a1.878 1.878 0 0 1 .421-1.061l3.531-3.753a3.68 3.68 0 0 1 2.3-1h7.915a2.249 2.249 0 0 1 1.838 1.166l1.575 3.346a2.413 2.413 0 0 0 1.278 1.136l1.455.485a2.573 2.573 0 0 0 2.152 2.986v1.5a1.065 1.065 0 0 1-.951 1.149h-.916a3.83 3.83 0 1 0 0 .766h.916A1.826 1.826 0 0 0 24 82.431zm-17.557.32a3.064 3.064 0 1 1-3.063 3.063A3.067 3.067 0 0 1 6.443 80.9zm11.113 6.128a3.064 3.064 0 1 1 3.064-3.064 3.067 3.067 0 0 1-3.063 3.063zm4.254-8.638q0-.074.006-.148a3.009 3.009 0 0 1 1.372 1.9 1.81 1.81 0 0 1-1.378-1.752z" class="cls-2" data-name="Path 95"/>
        </g>
    </g>
</svg>
