<svg xmlns="http://www.w3.org/2000/svg" viewBox="0 0 40 40">
    <defs>
        <style>
            .cls-1{fill:none}.cls-2{fill:#1278ce}
        </style>
    </defs>
    <g id="icon_groceries" transform="translate(-848 -2160)">
        <path id="Rectangle_79" d="M0 0h40v40H0z" class="cls-1" data-name="Rectangle 79" transform="translate(848 2160)"/>
        <g id="groceries" transform="translate(852.09 2168)">
            <path id="Path_78" d="M35.88 22.189a.422.422 0 0 0 .536-.264.745.745 0 0 1 .943-.465 1.59 1.59 0 0 0 2.014-.993.422.422 0 1 0-.8-.272.744.744 0 0 1-.943.465 1.592 1.592 0 0 0-2.014.993.423.423 0 0 0 .264.536z" class="cls-2" data-name="Path 78" transform="translate(-17.146 -11.5)"/>
            <path id="Path_79" d="M38.246 15.219a.422.422 0 0 0 .536-.264.742.742 0 0 1 .943-.465 1.59 1.59 0 0 0 2.014-.994.422.422 0 1 0-.8-.272.743.743 0 0 1-.939.466 1.587 1.587 0 0 0-2.014.993.422.422 0 0 0 .26.536z" class="cls-2" data-name="Path 79" transform="translate(-18.513 -7.473)"/>
            <path id="Path_80" d="M40.61 8.585a.423.423 0 0 0 .536-.264.55.55 0 0 1 .7-.343 1.393 1.393 0 0 0 1.768-.871.422.422 0 1 0-.8-.272.548.548 0 0 1-.7.343 1.4 1.4 0 0 0-1.768.872.423.423 0 0 0 .264.535z" class="cls-2" data-name="Path 80" transform="translate(-19.879 -3.782)"/>
            <path id="Path_81" d="M23.791 10.658a.549.549 0 0 0-.241-.09 29.727 29.727 0 0 0 1.365-7.944A2.842 2.842 0 0 0 23.757.261a1.731 1.731 0 0 0-1.8-.019c-1.262.651-2.164 2.565-2.888 4.1l-.123.261A2.446 2.446 0 0 0 17.6 2.912a2.015 2.015 0 0 0-1.566-1.557A1.307 1.307 0 0 0 16 1.224a1.456 1.456 0 0 0-1.2-1.03 1.436 1.436 0 0 0-.9.185 1.531 1.531 0 0 0-.747-.195 1.556 1.556 0 0 0-1.512 1.2 1.9 1.9 0 0 0-1.4 1.812A2.115 2.115 0 0 0 8.8 6.006a1.662 1.662 0 0 0-.23 1.707A2.244 2.244 0 0 0 6.888 6.9a.422.422 0 0 0 .013.845h.041a1.467 1.467 0 0 1 1.031.566 2.875 2.875 0 0 0-1.854 1.217 2.151 2.151 0 0 0-.1 1.557.732.732 0 0 0-.106.415l.717 10.216A2.406 2.406 0 0 0 9.033 24h11.856a2.4 2.4 0 0 0 2.4-2.276l.737-10.571v-.008a.547.547 0 0 0-.235-.487zm-4.5-4.843c.167-.312.35-.7.543-1.109.635-1.348 1.5-3.194 2.511-3.714a.921.921 0 0 1 .968-.016 2.04 2.04 0 0 1 .758 1.624 28.926 28.926 0 0 1-1.356 7.811c-.027.088-.088.267-.175.511l-.72.32a.393.393 0 0 0-.046.024 1.3 1.3 0 0 1-1.348 0l-.3-.181A2.18 2.18 0 0 0 19 10.776h-.014a2.176 2.176 0 0 0-1.137.311l-.3.181a1.327 1.327 0 0 1-.541.171l.034-.109q.174-.59.37-1.166c.049-.146.1-.291.152-.436q.163-.458.34-.906c.052-.134.1-.269.158-.4a28.114 28.114 0 0 1 1.224-2.607zm-5.384 1c.049-.063.1-.125.143-.185a1.042 1.042 0 0 0 .087-.136.905.905 0 0 0 .08-.63l1.763-.386a.965.965 0 0 0 .045.158.947.947 0 0 0 .416.467l.2.108.171.092.083.045c.05.028.1.06.148.09s.083.052.124.081l.136.1c.044.032.077.067.114.1s.08.079.117.123a1.452 1.452 0 0 1 .179.255c-.179.4-.348.8-.511 1.205l-.077.187a4.311 4.311 0 0 0-1.463.73 2.486 2.486 0 0 1-2.068.5l-.256-1.174a1.927 1.927 0 0 1 .562-1.729zM16 4.251a.174.174 0 0 1 .033 0 .178.178 0 0 1 .172.137.176.176 0 0 1-.133.208l-2.337.504a.175.175 0 0 1-.074-.341l1.24-.271zm-1.365 6.533c-.032 0-.065 0-.1.006a2.167 2.167 0 0 0-.673.179l-.081-.37c.122.01.243.02.356.02a3.266 3.266 0 0 0 2.011-.7 5.174 5.174 0 0 1 .585-.364l-.115.331c-.027.079-.056.158-.082.237q-.186.564-.353 1.137l-.281-.168a2.18 2.18 0 0 0-1.123-.312h-.016c-.043-.004-.088.001-.132.004zM9.579 6.416l.277-.228-.18-.31a1.27 1.27 0 0 1 1.048-1.907l.513-.022-.12-.5a1.041 1.041 0 0 1-.03-.244 1.051 1.051 0 0 1 .967-1.044l.39-.03v-.42a.709.709 0 0 1 .708-.685.7.7 0 0 1 .472.185l.3.267.276-.278a.6.6 0 0 1 .493-.167.609.609 0 0 1 .5.43.55.55 0 0 1 .02.224l-.049.472h.476a1.163 1.163 0 0 1 1.16 1.08l.019.277.262.092a1.61 1.61 0 0 1 1.08 1.556 1.525 1.525 0 0 1-.28.836 4.469 4.469 0 0 0-.843-.536 3.389 3.389 0 0 0-.2-.1.092.092 0 0 1-.048-.072.241.241 0 0 1 .059-.188.907.907 0 0 0 .2-.78L17 4.089a.9.9 0 0 0-1.071-.689l-.113.025-1.24.271-1.21.264a.9.9 0 0 0-.687 1.072l.025.115.025.114a.9.9 0 0 0 .522.632.256.256 0 0 1 .14.136c.011.031 0 .047-.02.088-.042.056-.087.113-.133.172l-.144.185-.049.066c-.035.048-.07.1-.1.147l-.056.084a2.822 2.822 0 0 0-.145.245c-.032.059-.06.121-.089.185-.012.027-.025.053-.036.081a2.33 2.33 0 0 0-.1.29c0 .016-.006.033-.01.05a2.3 2.3 0 0 0-.047.268c0 .037-.005.076-.008.114s-.01.1-.01.149l-.005-.006-.017-.022a3.72 3.72 0 0 0-.221-.27c-.023-.027-.047-.052-.071-.078q-.093-.1-.187-.189l-.061-.058a2.921 2.921 0 0 0-.238-.193c-.022-.016-.045-.03-.068-.045-.06-.04-.12-.077-.181-.11-.03-.016-.059-.032-.089-.046a1.835 1.835 0 0 0-.19-.08c-.021-.008-.042-.018-.063-.024a1.762 1.762 0 0 0-.209-.053h-.024c-.014 0-.028-.008-.043-.01-.049-.007-.1 0-.144-.008s-.067-.009-.1-.009h-.031a1.708 1.708 0 0 0-.193.016c-.032 0-.063.007-.1.013a1.979 1.979 0 0 0-.244.062l-.036.011a2.647 2.647 0 0 0-.6.294.8.8 0 0 1-.059-.3.822.822 0 0 1 .309-.632zM6.866 9.923a2.107 2.107 0 0 1 1.365-.809 2.279 2.279 0 0 0 .944-.542c.12-.115.233-.213.342-.3a1.879 1.879 0 0 1 .9-.461h.018a.858.858 0 0 1 .245.007c.021 0 .042.011.063.016a.884.884 0 0 1 .117.035c.025.01.051.024.076.036a1.227 1.227 0 0 1 .11.056c.029.017.057.04.086.06s.068.046.1.074.064.057.1.086.064.056.1.088.071.078.107.118.058.063.088.1.081.1.121.156c.026.034.051.064.077.1.046.064.092.136.139.207.02.031.041.059.061.091q.1.159.2.339a3.209 3.209 0 0 1 .275 2.06l-.067-.009a1.312 1.312 0 0 1-.457-.163l-.3-.181a2.18 2.18 0 0 0-1.123-.312h-.014a2.176 2.176 0 0 0-1.137.311l-.147.088a1.588 1.588 0 0 1-1.656 0l-.568-.341a.724.724 0 0 0-.238-.09 1.214 1.214 0 0 1 .073-.82zm15.585 11.749a1.562 1.562 0 0 1-1.56 1.482H9.034a1.563 1.563 0 0 1-1.561-1.49l-.7-9.985.367.22a2.534 2.534 0 0 0 2.583 0l.147-.088a1.295 1.295 0 0 1 1.348 0l.3.181a2.172 2.172 0 0 0 1.239.3c.038 0 .076 0 .114-.005h.014a2.172 2.172 0 0 0 .832-.272.4.4 0 0 0 .073-.023l.3-.181a1.295 1.295 0 0 1 1.348 0l.3.181a2.182 2.182 0 0 0 1.033.305h.029a2.158 2.158 0 0 0 .369-.017c.07-.009.138-.027.207-.042.033-.008.067-.015.1-.025a2.165 2.165 0 0 0 .542-.223l.3-.181a1.295 1.295 0 0 1 1.348 0l.3.181a2.18 2.18 0 0 0 1.131.31h.019a2.181 2.181 0 0 0 1.1-.3l.829-.368a.45.45 0 0 0 .047-.033l.065-.029z" class="cls-2" data-name="Path 81"/>
        </g>
    </g>
</svg>
