<svg xmlns="http://www.w3.org/2000/svg" viewBox="0 0 40 40">
    <defs>
        <style>
            .cls-1{fill:none}.cls-2{fill:#1278ce}
        </style>
    </defs>
    <g id="icon_dispenser" transform="translate(-648 -2328)">
        <path id="Rectangle_78" d="M0 0h40v40H0z" class="cls-1" data-name="Rectangle 78" transform="translate(648 2328)"/>
        <g id="icon" transform="translate(657 2336)">
            <path id="Path_324" d="M18.91 101.294H2.2A2.2 2.2 0 0 1 0 99.1V83.5a2.2 2.2 0 0 1 2.2-2.2h16.71a2.2 2.2 0 0 1 2.2 2.2v15.6a2.2 2.2 0 0 1-2.2 2.194zM2.2 82.088A1.417 1.417 0 0 0 .788 83.5v15.6a1.417 1.417 0 0 0 1.412 1.411h16.71a1.417 1.417 0 0 0 1.414-1.411V83.5a1.417 1.417 0 0 0-1.414-1.414z" class="cls-2" data-name="Path 324" transform="translate(0 -77.294)"/>
            <path id="Path_325" d="M45.925 42.524h-.788v-1.572a.065.065 0 0 0-.064-.064H28.552a.065.065 0 0 0-.064.064v1.572H27.7v-1.572a.853.853 0 0 1 .852-.852h16.521a.853.853 0 0 1 .852.852z" class="cls-2" data-name="Path 325" transform="translate(-26.335 -38.124)"/>
            <path id="Path_326" d="M113.106 2.326h-.788V.788h-9.529v1.538H102V.813a.743.743 0 0 1 .67-.813h9.756a.744.744 0 0 1 .675.813v1.513z" class="cls-2" data-name="Path 326" transform="translate(-96.974)"/>
            <path id="Path_327" d="M75.444 130.59a6.6 6.6 0 0 1-5.075-2.5 9.58 9.58 0 0 1 0-11.894 6.4 6.4 0 0 1 10.15 0 9.58 9.58 0 0 1 0 11.894 6.6 6.6 0 0 1-5.075 2.5zm0-16.107c-3.5 0-6.356 3.434-6.356 7.662s2.853 7.662 6.356 7.662 6.356-3.434 6.356-7.662-2.848-7.662-6.356-7.662z" class="cls-2" data-name="Path 327" transform="translate(-64.935 -108.098)"/>
            <path id="Path_328" d="M135.344 146.993a14.332 14.332 0 0 1-4.444-.754l.271-.739-.133.37.133-.37c.044.015 4.37 1.557 7.543.015l.345.71a8.528 8.528 0 0 1-3.715.768z" class="cls-2" data-name="Path 328" transform="translate(-124.45 -138.331)"/>
            <path id="Rectangle_202" d="M0 0h9.007v.788H0z" class="cls-2" data-name="Rectangle 202" transform="translate(6.006 20.103)"/>
            <path id="Path_329" d="M128.3 223.991h-1.6a1 1 0 1 1 0-1.991h1.6a1 1 0 1 1 0 1.991zm-1.6-1.2a.207.207 0 0 0 0 .414h1.6a.207.207 0 1 0 0-.414z" class="cls-2" data-name="Path 329" transform="translate(-119.507 -211.062)"/>
            <path id="Path_330" d="M139.078 257.991a1.178 1.178 0 0 1-1.178-1.178V255.7h.788v1.114a.389.389 0 1 0 .778 0V255.7h.788v1.114a1.178 1.178 0 0 1-1.176 1.177z" class="cls-2" data-name="Path 330" transform="translate(-131.106 -243.101)"/>
            <path id="Path_331" d="M228.3 223.991h-1.6a1 1 0 0 1 0-1.991h1.6a1 1 0 1 1 0 1.991zm-1.6-1.2a.207.207 0 0 0 0 .414h1.6a.207.207 0 1 0 0-.414z" class="cls-2" data-name="Path 331" transform="translate(-214.579 -211.062)"/>
            <path id="Path_332" d="M239.078 257.991a1.178 1.178 0 0 1-1.178-1.178V255.7h.788v1.114a.389.389 0 1 0 .778 0V255.7h.788v1.114a1.178 1.178 0 0 1-1.176 1.177z" class="cls-2" data-name="Path 332" transform="translate(-226.178 -243.101)"/>
        </g>
    </g>
</svg>
