<svg xmlns="http://www.w3.org/2000/svg" viewBox="0 0 40 40">
    <defs>
        <style>
            .cls-1{fill:none}.cls-2{fill:#1278ce}
        </style>
    </defs>
    <g id="icon_stove" transform="translate(-648 -2328)">
        <path id="Rectangle_78" d="M0 0h40v40H0z" class="cls-1" data-name="Rectangle 78" transform="translate(648 2328)"/>
        <g id="icon" transform="translate(656 2283)">
            <path id="Path_291" d="M359.469 186a.469.469 0 1 0 .469.469.469.469 0 0 0-.469-.469z" class="cls-2" data-name="Path 291" transform="translate(-342.172 -123.906)"/>
            <path id="Path_292" d="M136.469 186a.469.469 0 1 0 .469.469.469.469 0 0 0-.469-.469z" class="cls-2" data-name="Path 292" transform="translate(-129.625 -123.906)"/>
            <path id="Path_293" d="M22.594 56H1.406A1.408 1.408 0 0 0 0 57.406v15.938a1.408 1.408 0 0 0 1.406 1.406h21.188A1.408 1.408 0 0 0 24 73.344V57.406A1.408 1.408 0 0 0 22.594 56zm.469 17.344a.469.469 0 0 1-.469.469H1.406a.469.469 0 0 1-.469-.469v-4.219h22.126zm0-5.156H.938V57.406a.469.469 0 0 1 .469-.469h21.187a.469.469 0 0 1 .469.469z" class="cls-2" data-name="Path 293"/>
            <path id="Path_294" d="M295.035 121.372a3.748 3.748 0 0 0 0-4.6l.684-.684a.469.469 0 1 0-.663-.663l-.684.684a3.748 3.748 0 0 0-4.6 0l-.684-.684a.469.469 0 0 0-.663.663l.684.684a3.748 3.748 0 0 0 0 4.6l-.684.684a.469.469 0 0 0 .663.663l.684-.684a3.747 3.747 0 0 0 4.6 0l.684.684a.469.469 0 0 0 .663-.663zm-.67-.67l-.635-.635a.469.469 0 0 0-.663.663l.635.635a2.812 2.812 0 0 1-3.259 0l.635-.635a.469.469 0 0 0-.663-.663l-.635.635a2.812 2.812 0 0 1 0-3.259l.635.635a.469.469 0 1 0 .663-.663l-.635-.635a2.812 2.812 0 0 1 3.259 0l-.635.635a.469.469 0 1 0 .663.663l.635-.635a2.812 2.812 0 0 1 0 3.259z" class="cls-2" data-name="Path 294" transform="translate(-274.776 -56.51)"/>
            <path id="Path_295" d="M72.035 121.372a3.747 3.747 0 0 0 0-4.6l.684-.684a.469.469 0 1 0-.663-.663l-.684.684a3.747 3.747 0 0 0-4.6 0l-.684-.684a.469.469 0 0 0-.663.663l.684.684a3.747 3.747 0 0 0 0 4.6l-.684.684a.469.469 0 0 0 .663.663l.684-.684a3.747 3.747 0 0 0 4.6 0l.684.684a.469.469 0 1 0 .663-.663zm-.67-.67l-.635-.635a.469.469 0 0 0-.663.663l.635.635a2.812 2.812 0 0 1-3.259 0l.635-.635a.469.469 0 1 0-.663-.663l-.635.635a2.812 2.812 0 0 1 0-3.259l.635.635a.469.469 0 1 0 .663-.663l-.635-.635a2.812 2.812 0 0 1 3.259 0l-.635.635a.469.469 0 0 0 .663.663l.635-.635a2.812 2.812 0 0 1 0 3.259z" class="cls-2" data-name="Path 295" transform="translate(-62.23 -56.51)"/>
            <path id="Path_296" d="M390.406 356a1.406 1.406 0 1 0 1.406 1.406 1.408 1.408 0 0 0-1.406-1.406zm0 1.875a.469.469 0 1 1 .469-.469.469.469 0 0 1-.469.469z" class="cls-2" data-name="Path 296" transform="translate(-370.766 -285.938)"/>
            <path id="Path_297" d="M227.406 356a1.406 1.406 0 1 0 1.406 1.406 1.408 1.408 0 0 0-1.406-1.406zm0 1.875a.469.469 0 1 1 .469-.469.469.469 0 0 1-.469.469z" class="cls-2" data-name="Path 297" transform="translate(-215.406 -285.938)"/>
            <path id="Path_298" d="M64.406 356a1.406 1.406 0 1 0 1.406 1.406A1.408 1.408 0 0 0 64.406 356zm0 1.875a.469.469 0 1 1 .469-.469.469.469 0 0 1-.469.469z" class="cls-2" data-name="Path 298" transform="translate(-60.047 -285.938)"/>
            <path id="Path_299" d="M145.484 376h-2.016a.469.469 0 0 0 0 .938h2.016a.469.469 0 0 0 0-.937z" class="cls-2" data-name="Path 299" transform="translate(-136.297 -305)"/>
            <path id="Path_300" d="M308.484 376h-2.016a.469.469 0 0 0 0 .938h2.016a.469.469 0 0 0 0-.937z" class="cls-2" data-name="Path 300" transform="translate(-291.656 -305)"/>
        </g>
    </g>
</svg>
