<svg xmlns="http://www.w3.org/2000/svg" viewBox="0 0 40 40">
    <defs>
        <style>
            .cls-1{fill:none}.cls-2{fill:#1278ce}
        </style>
    </defs>
    <g id="icon_sauna" transform="translate(-848 -2270)">
        <path id="Rectangle_81" d="M0 0h40v40H0z" class="cls-1" data-name="Rectangle 81" transform="translate(848 2270)"/>
        <g id="icon" transform="translate(858.981 2277.912)">
            <path id="Path_259" d="M121.972 79.6c-1.851 0-2.747-2.5-2.784-2.6a.4.4 0 1 1 .753-.265 5.076 5.076 0 0 0 .578 1.1 1.87 1.87 0 0 0 1.479.976 2.372 2.372 0 0 0 2.02-1.941.4.4 0 0 1 .8 0 3.123 3.123 0 0 1-2.8 2.736z" class="cls-2" data-name="Path 259" transform="translate(-112.831 -72.328)"/>
            <path id="Path_262" d="M99.812 115.125a.4.4 0 0 1-.127-.774c.011-.005.992-.329 1.67-.546a1.055 1.055 0 0 0 .376-.186v-.819a.4.4 0 0 1 .8 0v.864c.005.175-.069.62-.933.9-.673.217-1.654.541-1.66.546a.311.311 0 0 1-.126.015zm1.925-1.41zm0 0zm0 0zm0 0z" class="cls-2" data-name="Path 262" transform="translate(-94.128 -106.357)"/>
            <path id="Path_261" d="M114.944 8.307a.3.3 0 0 1-.069-.005.39.39 0 0 1-.318-.461 15.489 15.489 0 0 0 .191-2.381 6.142 6.142 0 0 0-.923-3.706 2.205 2.205 0 0 0-1.718-.864 1.91 1.91 0 0 0-1.638.626 5.7 5.7 0 0 0-.939 3.7 16.6 16.6 0 0 0 .2 2.487.4.4 0 0 1-.785.138c-.037-.2-.832-4.862.933-6.851a2.7 2.7 0 0 1 2.28-.891 3.028 3.028 0 0 1 2.3 1.167c1.7 2.153.928 6.538.891 6.723a.418.418 0 0 1-.405.318z" class="cls-2" data-name="Path 261" transform="translate(-102.95)"/>
            <path id="Path_260" d="M117.923 30.74a2.631 2.631 0 0 1-.695-.09.4.4 0 0 1 .207-.769 2.513 2.513 0 0 0 2.036-.467 4.733 4.733 0 0 0 .939-.8.4.4 0 0 1 .329-.138.405.405 0 0 1 .308.186 3.2 3.2 0 0 0 1.49 1.294.4.4 0 0 1 .3.477.4.4 0 0 1-.477.3 2.971 2.971 0 0 1-1.426-.933 5.51 5.51 0 0 1-.265-.313 4.308 4.308 0 0 1-2.746 1.253z" class="cls-2" data-name="Path 260" transform="translate(-110.717 -26.882)"/>
            <path id="Path_263" d="M191.416 116.725a.356.356 0 0 1-.127-.021c-.011-.005-.986-.329-1.66-.546-.864-.276-.939-.721-.933-.9v-.858a.4.4 0 0 1 .8 0v.822a1.055 1.055 0 0 0 .376.186c.679.217 1.665.546 1.67.546a.4.4 0 0 1-.122.774zm-1.93-1.405zm0 0zm0-.005zm0 0z" class="cls-2" data-name="Path 263" transform="translate(-178.674 -107.872)"/>
            <path id="Path_264" d="M75.051 145.386h-.2a9.746 9.746 0 0 1-5.313-1.543.4.4 0 1 1 .472-.642 9.119 9.119 0 0 0 4.857 1.389h.18a8.237 8.237 0 0 0 4.719-1.384.4.4 0 0 1 .488.626 8.853 8.853 0 0 1-5.203 1.554z" class="cls-2" data-name="Path 264" transform="translate(-65.681 -135.451)"/>
            <path id="Path_265" d="M52.149 248.8H48.7a.4.4 0 0 1 0-.8h3.457a.4.4 0 1 1-.005.8z" class="cls-2" data-name="Path 265" transform="translate(-45.723 -234.767)"/>
            <path id="Path_266" d="M220.555 248.8H217.1a.4.4 0 0 1 0-.8h3.457a.4.4 0 0 1 0 .8z" class="cls-2" data-name="Path 266" transform="translate(-205.194 -234.767)"/>
            <path id="Path_267" d="M16.618 138.209c-.08 0-.159 0-.244-.005-1.744-.09-7.116 0-7.174 0h-.027c-.053 0-5.43-.09-7.174 0a2.045 2.045 0 0 1-1.734-.509 1.046 1.046 0 0 1-.239-.817v-10.7a.464.464 0 0 1 .011-.085c.032-.143.758-3.462 1.076-4.359A1.523 1.523 0 0 1 2.5 120.6h3.481a.4.4 0 0 1 0 .8H2.487c-.064.005-.429.048-.631.61-.286.8-.954 3.828-1.039 4.221v10.689a.193.193 0 0 1-.011.08.244.244 0 0 0 .069.2c.069.08.318.26 1.076.217 1.76-.1 6.957-.005 7.222 0h.011c.265-.005 5.461-.09 7.222 0 .769.042 1.013-.143 1.082-.228a.287.287 0 0 0 .064-.18.467.467 0 0 1-.011-.09v-10.693c-.085-.392-.758-3.42-1.039-4.221-.212-.6-.62-.61-.626-.61h-3.49a.4.4 0 1 1 0-.8h3.484a1.537 1.537 0 0 1 1.384 1.135c.323.9 1.05 4.221 1.076 4.359a.464.464 0 0 1 .011.085v10.705a1.05 1.05 0 0 1-.239.817 1.86 1.86 0 0 1-1.484.513zM.811 137z" class="cls-2" data-name="Path 267" transform="translate(0 -114.122)"/>
            <path id="Path_268" d="M165.6 178.356a.4.4 0 0 1-.4-.4V163.4a.4.4 0 0 1 .8 0v14.565a.393.393 0 0 1-.4.391z" class="cls-2" data-name="Path 268" transform="translate(-156.424 -154.274)"/>
            <path id="Path_270" d="M.942 152.909l-.233-.3a.628.628 0 0 1 0-.777l.236-.3a.3.3 0 0 0-.048-.423.3.3 0 0 0-.419.048l-.236.3a1.229 1.229 0 0 0 0 1.529l.233.3a.628.628 0 0 1 0 .777.3.3 0 0 0 .048.423.286.286 0 0 0 .185.066.293.293 0 0 0 .233-.115 1.229 1.229 0 0 0 .001-1.528z" class="cls-2" data-name="Path 270" transform="translate(2.044 -149.946)"/>
            <path id="Path_271" d="M.942 152.909l-.233-.3a.628.628 0 0 1 0-.777l.236-.3a.3.3 0 0 0-.048-.423.3.3 0 0 0-.419.048l-.236.3a1.229 1.229 0 0 0 0 1.529l.233.3a.628.628 0 0 1 0 .777.3.3 0 0 0 .048.423.286.286 0 0 0 .185.066.293.293 0 0 0 .233-.115 1.229 1.229 0 0 0 .001-1.528z" class="cls-2" data-name="Path 271" transform="translate(14.044 -149.946)"/>
        </g>
    </g>
</svg>
