<svg xmlns="http://www.w3.org/2000/svg" viewBox="0 0 40 40">
    <defs>
        <style>
            .cls-1{fill:none}.cls-2{fill:#1278ce;stroke:#1278ce;stroke-width:.2px}
        </style>
    </defs>
    <g id="icon_moving" transform="translate(-1048 -2328)">
        <path id="Rectangle_86" d="M0 0h40v40H0z" class="cls-1" data-name="Rectangle 86" transform="translate(1048 2328)"/>
        <g id="icon" transform="translate(1056 2338)">
            <path id="Path_116" d="M23.625 15.633v-4.041a.027.027 0 0 0 0-.018v-.027c0-.018-.014-.041-.019-.059l-2.25-4.726v-.009c0-.009-.009-.014-.009-.018s0-.009-.009-.014 0-.009-.009-.014l-.029-.022s0-.009-.009-.014l-.014-.014-.009-.009a.065.065 0 0 0-.019-.014s-.009 0-.009-.009a.065.065 0 0 0-.019-.014s-.009 0-.014-.009-.009 0-.014-.009-.009 0-.019-.009a.018.018 0 0 0-.014 0s-.014 0-.019-.009-.009 0-.014 0H21.075a.036.036 0 0 1-.019 0H15.75V.364A.37.37 0 0 0 15.375 0h-5.25a.37.37 0 0 0-.375.364v2.544H5.625a.37.37 0 0 0-.375.364v2.181H1.125a.37.37 0 0 0-.375.364v5.09H.375A.37.37 0 0 0 0 11.27V16a.37.37 0 0 0 .375.364H.75v1.113a.37.37 0 0 0 .375.364.411.411 0 0 0 .108-.014h2.17a2.636 2.636 0 0 0 5.194 0h7.181a2.636 2.636 0 0 0 5.194 0h2.653a.37.37 0 0 0 .375-.372V16a.371.371 0 0 0-.375-.367zm-6-8.362h3.136l1.9 4H18.75a1.111 1.111 0 0 1-1.125-1.091zM12.375.727h.75v1.091h-.75zm-1.875 0h1.125v1.454a.37.37 0 0 0 .375.364h1.5a.37.37 0 0 0 .375-.364V.727H15v10.18h-4.5zM6 3.636h1.5V4a.375.375 0 0 0 .75 0v-.364h1.5v3.635H6zM6 8h1.5v.727a.375.375 0 0 0 .75 0V8h1.5v2.908H6zM3 6.18h.75v.364H3zm-1.5 0h.75v.727a.37.37 0 0 0 .375.364h1.5a.37.37 0 0 0 .375-.363V6.18h.75v4.726H1.5zM6 19.268a1.819 1.819 0 1 1 1.875-1.818A1.847 1.847 0 0 1 6 19.268zm12.375 0a1.856 1.856 0 0 1-1.875-1.745.287.287 0 0 0 0-.145 1.875 1.875 0 1 1 1.875 1.89zm4.875-2.181h-2.278a2.636 2.636 0 0 0-5.194 0H8.6a2.636 2.636 0 0 0-5.194 0h-1.9v-.727h.75a.364.364 0 1 0 0-.727H.75v-4H15v1.454a.375.375 0 0 0 .75 0V7.271h1.125v2.909A1.847 1.847 0 0 0 18.75 12h4.125v1.818a.364.364 0 1 0 0 .727v1.091h-.366a.364.364 0 1 0 0 .727h.741z" class="cls-2" data-name="Path 116"/>
            <path id="Path_117" d="M105.125 360a1.091 1.091 0 1 0 1.125 1.091 1.112 1.112 0 0 0-1.125-1.091zm0 1.454a.364.364 0 1 1 .375-.364.37.37 0 0 1-.375.364z" class="cls-2" data-name="Path 117" transform="translate(-99.125 -343.64)"/>
            <path id="Path_118" d="M369.125 360a1.091 1.091 0 1 0 1.125 1.091 1.112 1.112 0 0 0-1.125-1.091zm0 1.454a.364.364 0 1 1 .375-.364.371.371 0 0 1-.375.364z" class="cls-2" data-name="Path 118" transform="translate(-350.75 -343.64)"/>
        </g>
    </g>
</svg>
