<svg xmlns="http://www.w3.org/2000/svg" viewBox="0 0 40 40">
    <defs>
        <style>
            .cls-1{fill:none}.cls-2{fill:#1278ce}
        </style>
    </defs>
    <g id="icon_jacuzzi" transform="translate(-448 -2272)">
        <path id="Rectangle" d="M0 0h40v40H0z" class="cls-1" transform="translate(448.001 2272)"/>
        <g id="icon" transform="translate(415 948)">
            <path id="Path_231" d="M363.284 153.573a.973.973 0 0 1 0-1.2l.366-.464a.471.471 0 0 0-.074-.656.46.46 0 0 0-.649.075l-.366.464a1.918 1.918 0 0 0 0 2.371l.362.459a.462.462 0 0 0 .362.178.443.443 0 0 0 .288-.1.477.477 0 0 0 .074-.661z" class="cls-2" data-name="Path 231" transform="translate(-303.352 1187.942)"/>
            <path id="Path_232" d="M434.646 114.933l-.362-.459a.973.973 0 0 1 0-1.2l.366-.464a.472.472 0 0 0-.074-.656.46.46 0 0 0-.649.075l-.366.464a1.917 1.917 0 0 0 0 2.371l.362.459a.973.973 0 0 1 0 1.2.471.471 0 0 0 .074.656.443.443 0 0 0 .288.1.455.455 0 0 0 .362-.178 1.9 1.9 0 0 0-.001-2.368z" class="cls-2" data-name="Path 232" transform="translate(-371.059 1225.209)"/>
            <path id="Path_233" d="M1.474 153.933l-.362-.459a.973.973 0 0 1 0-1.2l.366-.464a.471.471 0 0 0-.074-.656.46.46 0 0 0-.649.075l-.366.464a1.9 1.9 0 0 0 0 2.371l.362.459a.973.973 0 0 1 0 1.2.471.471 0 0 0 .074.656.443.443 0 0 0 .288.1.455.455 0 0 0 .362-.178 1.9 1.9 0 0 0-.001-2.368z" class="cls-2" data-name="Path 233" transform="translate(42.025 1188.037)"/>
            <path id="Path_234" d="M86.116 112.149a.466.466 0 0 0-.654.075l-.014.019a.478.478 0 0 0 .074.661.443.443 0 0 0 .288.1.455.455 0 0 0 .362-.178l.014-.019a.473.473 0 0 0-.07-.658z" class="cls-2" data-name="Path 234" transform="translate(-39.388 1225.209)"/>
            <path id="Path_235" d="M73.619 150.03l-.362-.459a.929.929 0 0 1-.176-.351.464.464 0 0 0-.566-.333.47.47 0 0 0-.329.572 1.862 1.862 0 0 0 .348.7l.362.459a.973.973 0 0 1 0 1.2.472.472 0 0 0 .074.656.443.443 0 0 0 .288.1.455.455 0 0 0 .362-.178 1.911 1.911 0 0 0-.001-2.366z" class="cls-2" data-name="Path 235" transform="translate(-26.822 1190.112)"/>
            <path id="Path_236" d="M28.778 13.534h-4.439a3.191 3.191 0 0 0-2.039-2.526l-2.059-.759c-.032-.014-.046-.028-.046-.033v-.848l.83-.483a.1.1 0 0 0 .023-.014 1.811 1.811 0 0 0 .77-1.387v-1.1a1.251 1.251 0 0 0 .422-.286l.134-.136a1.863 1.863 0 0 0 0-2.615l-2.023-2.039a1.984 1.984 0 0 0-1.28-1.354 2.1 2.1 0 0 0-2.171.52l-1.841 1.86a2.932 2.932 0 0 0-.844 2.057 2.89 2.89 0 0 0 .839 2.048l.366.37v.684a1.82 1.82 0 0 0 .765 1.387.1.1 0 0 1 .023.014l.835.483v.843a.064.064 0 0 1-.042.033l-2.064.764a3.185 3.185 0 0 0-2.037 2.527l-4.438-.009A.462.462 0 0 0 8 14v9.372a.468.468 0 0 0 .464.469h20.314a.468.468 0 0 0 .464-.469V14a.468.468 0 0 0-.464-.466zM20.3 2.583l1.424 1.439a.917.917 0 0 1 0 1.289l-.134.136a.35.35 0 0 1-.5 0l-1.693-1.71.455-.459a1.96 1.96 0 0 0 .448-.695zm-4.411 3.369l-.176-.178a1.977 1.977 0 0 1 0-2.769l1.841-1.86a1.189 1.189 0 0 1 1.224-.3 1.069 1.069 0 0 1 .422 1.766zm.8 2.132a.888.888 0 0 1-.339-.651v-.619L18.737 4.4l1.693 1.71a1.323 1.323 0 0 0 .459.3v1.023a.9.9 0 0 1-.343.651l-1.628.942a.1.1 0 0 0-.023.014.477.477 0 0 1-.552 0 .1.1 0 0 1-.023-.014zm-5.3 14.822H8.928v-1.593h2.458zm0-2.53H8.928v-3.093h2.458zm0-4.03H8.928v-1.875h2.458zm3.386 6.56h-2.462v-1.593h2.458zm0-2.53h-2.462v-3.093h2.458zm0-4.03h-2.462v-1.875h2.458zm3.386 6.56H15.7v-1.593h2.458zm0-2.53H15.7v-3.093h2.458zm0-4.03H15.7v-1.875h2.458zm3.386 6.56h-2.462v-1.593h2.458zm0-2.53h-2.462v-3.093h2.458zm0-4.03h-2.462v-1.875h2.458zm0-2.812h-7.7a2.263 2.263 0 0 1 1.415-1.649l2.064-.764a.977.977 0 0 0 .649-.909V9.9a1.381 1.381 0 0 0 .645.159 1.426 1.426 0 0 0 .645-.159v.309a.977.977 0 0 0 .649.909l2.064.764a2.246 2.246 0 0 1 1.415 1.649h-1.85zm3.386 9.372H22.47v-1.593h2.458v1.593zm0-2.53H22.47v-3.093h2.458v3.093zm0-4.03H22.47v-1.875h2.458v1.874zm3.386 6.56h-2.463v-1.593h2.458zm0-2.53h-2.463v-3.093h2.458zm0-4.03h-2.463v-1.875h2.458z" class="cls-2" data-name="Path 236" transform="translate(34.373 1332.156)"/>
            <path id="Path_237" d="M377.411 246.749a.46.46 0 0 0-.649.075l-.014.019a.478.478 0 0 0 .074.661.443.443 0 0 0 .288.1.455.455 0 0 0 .362-.178l.014-.019a.477.477 0 0 0-.075-.658z" class="cls-2" data-name="Path 237" transform="translate(-317.178 1096.917)"/>
        </g>
    </g>
</svg>
