<svg xmlns="http://www.w3.org/2000/svg" viewBox="0 0 40 40">
    <defs>
        <style>
            .cls-1{fill:none}.cls-2{fill:#1278ce}
        </style>
    </defs>
    <g id="icon_track" transform="translate(-848 -2270)">
        <path id="Rectangle_81" d="M0 0h40v40H0z" class="cls-1" data-name="Rectangle 81" transform="translate(848 2270)"/>
        <g id="icon" transform="translate(854 2167.297)">
            <path id="Path_273" d="M27.812 172.8a3.347 3.347 0 0 0-1.267-2.591.393.393 0 0 0-.572.1.46.46 0 0 0 .093.613 2.438 2.438 0 0 1 .92 1.758 2.358 2.358 0 0 0-1.18 1.05 19.052 19.052 0 0 1-9.039 1.042l-2.344-.544-.179-.053c-.158-.048-.305-.1-.445-.141l-2.119-.767c-.195-.067-.4-.136-.635-.208l-.061-.018-2.309-.57c-.4-.073-.8-.133-1.2-.178l-.277-.028v-.214a2.2 2.2 0 0 0-2.123-2.274H2.454v-.064a8.968 8.968 0 0 1 .275-2.206l.462-1.82a.164.164 0 0 1 .123-.126.153.153 0 0 1 .162.057l.341.423a.391.391 0 0 0 .578.046.461.461 0 0 0 .042-.62l-.341-.423a.946.946 0 0 0-.965-.34 1.018 1.018 0 0 0-.733.753l-.462 1.82a9.9 9.9 0 0 0-.3 2.437v2.869a1.034 1.034 0 0 0-.37.42l-1.208 2.484v.014l-.015.036v.013q-.006.017-.01.035v.014c0 .012 0 .024-.006.037s0 .008 0 .012a2.537 2.537 0 0 0 2.433 2.658h6.169a.747.747 0 0 0 .549-.247.81.81 0 0 0 .209-.49l.625.117a.414.414 0 0 0 .474-.357.437.437 0 0 0-.334-.508l-.68-.127a.72.72 0 0 0-.632.175.829.829 0 0 0-.27.56H7.165a2.5 2.5 0 0 0-2.4-2.169H1.094l.9-1.851a.173.173 0 0 1 .082-.081.383.383 0 0 0 .1-.023 19.914 19.914 0 0 1 3.727-.242 18.155 18.155 0 0 1 2.824.305 21.3 21.3 0 0 1 2.091.532c1.079.335 2.121.788 3.2 1.117.584.178 1.176.334 1.764.464h.006a18.838 18.838 0 0 0 9.509-.672l-.724 1.576-2.957.939a2.087 2.087 0 0 1-.633.1h-.629l-4.52-1.556a1.6 1.6 0 0 0-1.7.432l-1.015 1.07-1.261-.235a.414.414 0 0 0-.474.357.437.437 0 0 0 .334.508l1.469.274a1.662 1.662 0 0 0 .3.028h7.494a2.858 2.858 0 0 0 .866-.135l3.126-.993h.008l1.392-.442A2.428 2.428 0 0 0 28 174.4v-1.117a.728.728 0 0 0-.188-.483zm-23.047 3.336a1.642 1.642 0 0 1 1.563 1.291H2.444a1.642 1.642 0 0 1-1.563-1.291zM6.38 172.2a20.457 20.457 0 0 0-3.926.172v-1.719h2.623a1.353 1.353 0 0 1 1.3 1.4v.152zm7.859 5.226l.472-.5a.825.825 0 0 1 .874-.222l2.09.72zM27.18 174.4a1.55 1.55 0 0 1-1.037 1.487l-.5.158.809-1.761a1.537 1.537 0 0 1 .724-.746z" class="cls-2" data-name="Path 273" transform="translate(0 -47.044)"/>
            <path id="Path_274" d="M112.609 122.531l-2.062-.216a21.1 21.1 0 0 1-2.455-.406 34.956 34.956 0 0 1-3.8-2.5l.036-.046a.461.461 0 0 0-.05-.619.391.391 0 0 0-.578.054l-.075.1q-.4-.315-.785-.642l.046-.059a.461.461 0 0 0-.05-.619.392.392 0 0 0-.578.054l-.057.073q-.4-.354-.793-.721l.052-.066a.461.461 0 0 0-.05-.619.392.392 0 0 0-.578.054l-.035.045q-.686-.674-1.336-1.384l-.027-.027a1.022 1.022 0 0 0-1.48.091 4.625 4.625 0 0 0-.7 1.152 5.522 5.522 0 0 0-.471 2.561 3.328 3.328 0 0 1-3.1.4.4.4 0 0 0-.523.269.448.448 0 0 0 .251.56 4.153 4.153 0 0 0 4.614-1.214.762.762 0 0 1 .992-.148l-.437.557a.461.461 0 0 0 .05.619.4.4 0 0 0 .578-.054l.518-.66.8.524.1.062-.279.356a.461.461 0 0 0 .05.619.4.4 0 0 0 .578-.054l.372-.474q.442.262.894.5l-.185.236a.461.461 0 0 0 .05.619.4.4 0 0 0 .578-.054l.322-.411a22.668 22.668 0 0 0 4.831 1.711.386.386 0 0 0 .074.017 21.868 21.868 0 0 0 2.555.423l2.062.216h.04a.422.422 0 0 0 .408-.4.433.433 0 0 0-.367-.479zm-13.057-4.561l-.1-.067a1.537 1.537 0 0 0-1.835.115 4.63 4.63 0 0 1 .376-1.417 3.77 3.77 0 0 1 .557-.931.242.242 0 0 1 .339-.032q.67.731 1.378 1.424zm1.609 1.047l-.2-.131-.7-.454.615-.784q.392.367.793.721zm1.624.939q-.455-.238-.9-.5l.422-.538q.389.328.785.643zm.77.384l.2-.259q.581.441 1.181.859-.699-.277-1.381-.601z" class="cls-2" data-name="Path 274" transform="translate(-88.045)"/>
        </g>
    </g>
</svg>
