<svg xmlns="http://www.w3.org/2000/svg" viewBox="0 0 40 40">
    <defs>
        <style>
            .cls-1{fill:none}.cls-2{fill:#1278ce}
        </style>
    </defs>
    <g id="icon_dishwasher" transform="translate(-654 -2157)">
        <path id="Rectangle" d="M0 0h40v40H0z" class="cls-1" transform="translate(653.999 2157)"/>
        <g id="icon" transform="translate(661.998 2165)">
            <path id="Path_315" d="M22.84 14.71c0-.211.115-.378.336-.68A3.661 3.661 0 0 0 24 11.613a3.454 3.454 0 0 0-2.71-3.448V5.806h-.774V4.258h-2.322v.824a9.677 9.677 0 1 0-8.516 14.273 10.133 10.133 0 0 0 5.422-1.587v4.3A1.938 1.938 0 0 0 17.033 24h4.645a1.938 1.938 0 0 0 1.936-1.936v-4.645a3.941 3.941 0 0 0-.53-2.016 1.532 1.532 0 0 1-.244-.693zm-2.323-8.129v1.548h-2.322V6.581zm-1.548-1.549h.774v.774h-.774zm-.774.746v.028h-.061zM15.628 15.4a4.07 4.07 0 0 0-.485 1.4 9.349 9.349 0 0 1-5.464 1.782 8.9 8.9 0 1 1 8.014-12.776h-.273v2.359a2.845 2.845 0 0 0-.883.307 6.966 6.966 0 1 0-6.859 8.173 7.1 7.1 0 0 0 5.768-2.74l.09.125c.221.3.336.469.336.68a1.533 1.533 0 0 1-.244.69zm-.612-2.23a6.2 6.2 0 0 1-5.338 2.7 6.194 6.194 0 1 1 6.149-6.88 3.587 3.587 0 0 0-1.116 2.623 3.744 3.744 0 0 0 .305 1.56zm6.662 10.053h-4.645a1.163 1.163 0 0 1-1.161-1.161v-4.643a3.18 3.18 0 0 1 .442-1.658 2.207 2.207 0 0 0 .333-1.052 1.888 1.888 0 0 0-.485-1.137 2.91 2.91 0 0 1-.677-1.96A2.633 2.633 0 0 1 17.807 8.9h3.1a2.633 2.633 0 0 1 2.323 2.71 2.911 2.911 0 0 1-.677 1.96 1.889 1.889 0 0 0-.485 1.137 2.206 2.206 0 0 0 .333 1.052 3.18 3.18 0 0 1 .442 1.658v4.645a1.163 1.163 0 0 1-1.165 1.164z" class="cls-2" data-name="Path 315"/>
            <path id="Rectangle_198" d="M0 0h3.097v.774H0z" class="cls-2" data-name="Rectangle 198" transform="translate(16.259 11.226)"/>
            <path id="Rectangle_199" d="M0 0h5.419v.774H0z" class="cls-2" data-name="Rectangle 199" transform="translate(16.646 21.29)"/>
            <path id="Rectangle_200" d="M0 0h.774v.774H0z" class="cls-2" data-name="Rectangle 200" transform="translate(21.678 11.226)"/>
            <path id="Rectangle_201" d="M0 0h.774v.774H0z" class="cls-2" data-name="Rectangle 201" transform="translate(20.13 11.226)"/>
            <path id="Path_316" d="M3.485 215.625h-.774A2.713 2.713 0 0 1 0 218.335v.774a2.713 2.713 0 0 1 2.71 2.71h.774a2.713 2.713 0 0 1 2.71-2.71v-.774a2.713 2.713 0 0 1-2.709-2.71zm-.387 4.6a3.506 3.506 0 0 0-1.5-1.5 3.506 3.506 0 0 0 1.5-1.5 3.506 3.506 0 0 0 1.5 1.5 3.505 3.505 0 0 0-1.498 1.498z" class="cls-2" data-name="Path 316" transform="translate(0 -197.819)"/>
            <path id="Path_317" d="M63.648 98.438h-.774a1.938 1.938 0 0 1-1.936 1.936v.774a1.938 1.938 0 0 1 1.936 1.936h.774a1.938 1.938 0 0 1 1.936-1.936v-.774a1.938 1.938 0 0 1-1.936-1.936zm-.387 3.25a2.731 2.731 0 0 0-.928-.928 2.732 2.732 0 0 0 .928-.928 2.732 2.732 0 0 0 .928.928 2.736 2.736 0 0 0-.928.928z" class="cls-2" data-name="Path 317" transform="translate(-55.905 -90.309)"/>
        </g>
    </g>
</svg>
