<svg xmlns="http://www.w3.org/2000/svg" viewBox="0 0 40 40">
    <defs>
        <style>
            .cls-1{fill:none}.cls-2{fill:#1278ce}
        </style>
    </defs>
    <g id="icon_water" transform="translate(-448 -2216)">
        <path id="Rectangle_72" d="M0 0h40v40H0z" class="cls-1" data-name="Rectangle 72" transform="translate(448 2216)"/>
        <g id="icon" transform="translate(457 2224)">
            <path id="doplet" d="M236 238.354a2.326 2.326 0 0 0 2.319 2.319 2.289 2.289 0 0 0 2.319-2.319c0-1.072-1.536-3.942-1.855-4.493a.549.549 0 0 0-.464-.261.492.492 0 0 0-.464.261c-.29.551-1.855 3.42-1.855 4.493zm1.043 0a11.881 11.881 0 0 1 1.275-3.1 11.881 11.881 0 0 1 1.275 3.1 1.275 1.275 0 0 1-2.551 0z" class="cls-2" transform="translate(-218.899 -216.672)"/>
            <path id="water" d="M0 5.159V15.42a1.163 1.163 0 0 0 1.159 1.16H2.9a1.163 1.163 0 0 0 1.158-1.16v-2.434H6.2a5.8 5.8 0 0 0 4.522 2.029 5.706 5.706 0 0 0 4.522-2.029h2.116v1.652a1.2 1.2 0 0 0 1.249 1.162h1.681a1.2 1.2 0 0 0 1.246-1.159V11.42c0-1.565-.754-3.246-2.928-3.246h-3.362a5.4 5.4 0 0 0-1.652-1.333V4.812a1.163 1.163 0 0 0-1.159-1.159h-1.16v-2.61h2.116a.522.522 0 1 0 0-1.043H8.116a.522.522 0 0 0 0 1.043h2.116v2.609H9.1a1.163 1.163 0 0 0-1.158 1.16v1.971A5.2 5.2 0 0 0 6.2 8.174H4.058V5.159A1.163 1.163 0 0 0 2.9 4H1.159A1.163 1.163 0 0 0 0 5.159zM1.072 15.42V5.159a.093.093 0 0 1 .087-.087H2.9a.093.093 0 0 1 .087.087v3.566a.52.52 0 0 0 .522.522h2.955a.511.511 0 0 0 .436-.233 4.09 4.09 0 0 1 1.767-1.391.536.536 0 0 0 .319-.493V4.812c0-.058.029-.087.058-.087h3.362a.093.093 0 0 1 .087.087v2.347a.536.536 0 0 0 .319.493 4.2 4.2 0 0 1 1.681 1.362.511.511 0 0 0 .435.232h3.623c1.565 0 1.884 1.188 1.884 2.174v3.188c0 .029-.058.087-.174.087H18.58c-.116 0-.174-.058-.174-.087v-2.173a.52.52 0 0 0-.522-.522h-2.927a.511.511 0 0 0-.435.232 4.471 4.471 0 0 1-3.8 1.8 4.6 4.6 0 0 1-3.826-1.8.511.511 0 0 0-.435-.232H3.507a.52.52 0 0 0-.522.522v2.985a.093.093 0 0 1-.087.087H1.159a.093.093 0 0 1-.087-.087z" class="cls-2"/>
        </g>
    </g>
</svg>
