<svg xmlns="http://www.w3.org/2000/svg" viewBox="0 0 40 40">
    <defs>
        <style>
            .cls-1{fill:none}.cls-2{fill:#1278ce}
        </style>
    </defs>
    <g id="icon_ac" transform="translate(-648 -2328)">
        <path id="Rectangle_78" d="M0 0h40v40H0z" class="cls-1" data-name="Rectangle 78" transform="translate(648 2328)"/>
        <g id="icon" transform="translate(655 2338)">
            <path id="Rectangle_137" d="M0 0h1.761v1.765H0z" class="cls-2" data-name="Rectangle 137" transform="translate(4.07 3.317)"/>
            <path id="Rectangle_138" d="M0 0h1.761v1.765H0z" class="cls-2" data-name="Rectangle 138" transform="translate(7.476 3.317)"/>
            <path id="Rectangle_139" d="M0 0h18.517v1.172H0z" class="cls-2" data-name="Rectangle 139" transform="translate(3.741 8.268)"/>
            <path id="Path_73" d="M22.259 13.043H3.741A3.753 3.753 0 0 1 0 9.293V3.75A3.753 3.753 0 0 1 3.741 0h18.518A3.753 3.753 0 0 1 26 3.75v5.543a3.753 3.753 0 0 1-3.741 3.75zM3.741 1.172A2.579 2.579 0 0 0 1.169 3.75v5.543a2.579 2.579 0 0 0 2.572 2.578h18.518a2.579 2.579 0 0 0 2.572-2.578V3.75a2.579 2.579 0 0 0-2.572-2.578z" class="cls-2" data-name="Path 73"/>
            <path id="Path_74" d="M129.19 226.943l-.5-.315.5-.315a.319.319 0 0 0-.336-.542l-.453.286v-.535a.322.322 0 1 0-.643 0v.535l-.453-.286a.319.319 0 0 0-.336.542l.5.315-.5.315a.319.319 0 0 0 .336.542l.453-.286v.535a.322.322 0 1 0 .643 0v-.534l.453.286a.319.319 0 0 0 .336-.542z" class="cls-2" data-name="Path 74" transform="translate(-117.549 -208.708)"/>
            <path id="Path_75" d="M219.29 200.843l-.5-.315.5-.315a.319.319 0 0 0-.336-.542l-.453.286v-.535a.322.322 0 1 0-.643 0v.535l-.453-.286a.319.319 0 0 0-.336.542l.5.315-.5.315a.319.319 0 0 0 .336.542l.453-.286v.535a.322.322 0 1 0 .643 0v-.534l.453.286a.314.314 0 0 0 .438-.1.327.327 0 0 0-.102-.443z" class="cls-2" data-name="Path 75" transform="translate(-201.065 -184.519)"/>
            <path id="Path_76" d="M28.79 200.843l-.5-.315.5-.315a.319.319 0 0 0-.336-.542l-.453.286v-.535a.322.322 0 1 0-.643 0v.535l-.453-.286a.319.319 0 0 0-.336.542l.5.315-.5.315a.319.319 0 0 0 .336.542l.453-.286v.535a.322.322 0 1 0 .643 0v-.534l.453.286a.319.319 0 0 0 .336-.542z" class="cls-2" data-name="Path 76" transform="translate(-24.486 -184.519)"/>
            <path id="Path_77" d="M306.09 235.843l-.5-.315.5-.315a.319.319 0 0 0-.336-.542l-.453.286v-.535a.322.322 0 1 0-.643 0v.535l-.453-.286a.319.319 0 0 0-.336.542l.5.315-.5.315a.319.319 0 0 0 .336.542l.453-.286v.535a.322.322 0 1 0 .643 0v-.534l.453.286a.314.314 0 0 0 .438-.1.321.321 0 0 0-.102-.443z" class="cls-2" data-name="Path 77" transform="translate(-281.522 -216.956)"/>
        </g>
    </g>
</svg>
