<?xml version="1.0" encoding="utf-8"?>
<!-- Svg Vector Icons : http://www.onlinewebfonts.com/icon -->
<!DOCTYPE svg PUBLIC "-//W3C//DTD SVG 1.1//EN" "http://www.w3.org/Graphics/SVG/1.1/DTD/svg11.dtd">
<svg version="1.1" xmlns="http://www.w3.org/2000/svg" xmlns:xlink="http://www.w3.org/1999/xlink" x="0px" y="0px" viewBox="0 0 1000 1000" enable-background="new 0 0 1000 1000" xml:space="preserve">
<metadata> Svg Vector Icons : http://www.onlinewebfonts.com/icon </metadata>
<g><path d="M500,10C229.4,10,10,229.4,10,500c0,270.6,219.4,490,490,490c270.6,0,490-219.4,490-490C990,229.4,770.6,10,500,10 M367.8,74.5c-9.6,10-18.8,21.3-27.6,33.3c-0.8,1.1-1.6,2.3-2.5,3.4c-17.7,24.8-33.6,53.4-47.4,85.4c-0.8,1.7-1.4,3.5-2.2,5.3c-0.8,1.9-1.4,4-2.3,6c-27.5-13.4-52.1-29.5-73.7-47.5C257.3,122.1,309.9,92.5,367.8,74.5 M180.1,190.6c26.4,22.5,56.6,42.5,90.5,58.8c-0.6,1.8-1.2,3.7-1.8,5.5c-10.7,33.9-19.3,70.2-25.3,108.5c-0.8,4.8-1.4,9.8-2.1,14.7c-2,14.6-3.7,29.4-5,44.5c-0.5,5.6-1,11.2-1.4,16.9c-0.8,12.6-1,25.5-1.4,38.3H55.5C60.9,366.3,107.5,265.8,180.1,190.6 M55.5,522.3h178.1c0.4,12.8,0.6,25.7,1.4,38.3c0.4,5.7,0.9,11.3,1.4,16.9c1.3,15.1,3,29.9,5,44.5c0.7,4.9,1.3,9.8,2.1,14.7c6.1,38.3,14.6,74.6,25.3,108.5c0.6,1.8,1.2,3.7,1.8,5.5c-34,16.2-64.2,36.2-90.5,58.8C107.5,734.2,60.9,633.7,55.5,522.3 M212.3,839.6c21.6-17.9,46.2-34,73.7-47.5c0.8,2,1.4,4.1,2.3,6c0.7,1.7,1.4,3.5,2.2,5.3c13.8,32,29.7,60.6,47.4,85.3c0.8,1.2,1.7,2.3,2.5,3.4c8.8,12.1,18,23.3,27.6,33.3C309.9,907.5,257.3,877.9,212.3,839.6 M477.7,943.2c-61.9-12.3-116.2-75.3-152.5-167.8c46-17.1,97.8-27.1,152.5-29.4V943.2z M477.7,701.5c-59.8,2.3-116.4,13.3-167,32.1c-19.2-62-31-134-33-211.3h199.9V701.5z M477.7,477.7H277.8c1.9-77.3,13.8-149.3,33-211.3c50.6,18.8,107.2,29.8,167,32.1V477.7z M477.7,254c-54.8-2.3-106.5-12.4-152.5-29.4c36.4-92.5,90.7-155.6,152.5-167.8V254z M944.5,477.7H766.4c-0.4-12.8-0.6-25.7-1.4-38.3c-0.4-5.7-0.9-11.3-1.4-16.9c-1.3-15.1-3-29.9-5-44.5c-0.7-4.9-1.3-9.8-2.1-14.7c-6.1-38.4-14.6-74.7-25.3-108.5c-0.6-1.8-1.2-3.7-1.8-5.5c34-16.3,64.2-36.2,90.5-58.8C892.5,265.8,939,366.3,944.5,477.7 M787.7,160.4c-21.6,18-46.2,34-73.7,47.5c-0.8-2-1.4-4-2.2-6c-0.7-1.8-1.4-3.5-2.2-5.3c-13.8-32-29.7-60.6-47.4-85.4c-0.8-1.1-1.6-2.3-2.4-3.4c-8.8-12.1-18-23.3-27.5-33.3C690.1,92.5,742.7,122.1,787.7,160.4 M522.3,56.8c61.8,12.3,116.1,75.3,152.5,167.8c-46,17.1-97.7,27.1-152.5,29.4V56.8z M522.3,298.6c59.8-2.3,116.3-13.3,166.9-32.1c19.1,62,31,134,33,211.3H522.3V298.6z M522.3,522.3h199.9c-1.9,77.3-13.8,149.3-33,211.3c-50.6-18.8-107.2-29.8-166.9-32.1V522.3z M522.3,943.2V746c54.8,2.3,106.5,12.4,152.5,29.4C638.4,867.9,584.1,930.9,522.3,943.2 M632.2,925.5c9.6-10,18.7-21.3,27.5-33.3c0.8-1.1,1.6-2.2,2.4-3.4c17.7-24.8,33.6-53.4,47.4-85.4c0.7-1.7,1.4-3.5,2.2-5.3c0.8-1.9,1.4-4,2.2-6c27.5,13.4,52.1,29.5,73.7,47.5C742.7,877.9,690.1,907.5,632.2,925.5 M819.9,809.4c-26.4-22.6-56.6-42.5-90.5-58.8c0.6-1.8,1.2-3.7,1.8-5.5c10.7-33.9,19.3-70.2,25.3-108.5c0.8-4.9,1.4-9.8,2.1-14.7c2-14.6,3.7-29.4,5-44.5c0.5-5.6,1-11.2,1.4-16.9c0.8-12.5,1-25.4,1.4-38.3h178.1C939,633.7,892.5,734.2,819.9,809.4"/></g>
</svg>