<svg xmlns="http://www.w3.org/2000/svg" viewBox="0 0 96 96">
    <defs>
        <style>
            .cls-1{fill:none}.cls-2{fill:#1278ce;stroke:#fff;stroke-width:.6px}
        </style>
    </defs>
    <g id="icon_private" transform="translate(-33 -221)">
        <path id="Rectangle_56" d="M0 0h96v96H0z" class="cls-1" data-name="Rectangle 56" transform="translate(33 221)"/>
        <g id="icon" transform="translate(18.989 227)">
            <path id="Path_162" d="M99.567 81.169h-2.408V7.079a1.43 1.43 0 0 0-1.444-1.416H68.752a1.43 1.43 0 0 0-1.444 1.416v6.135h-2.889V7.079a1.43 1.43 0 0 0-1.444-1.416h-6.26V1.416a1.445 1.445 0 0 0-2.889 0v4.247h-6.259a1.43 1.43 0 0 0-1.444 1.416v6.135h-4.334a1.43 1.43 0 0 0-1.444 1.416v11.8H28.308a1.43 1.43 0 0 0-1.444 1.416v53.322h-2.409a1.416 1.416 0 1 0 0 2.832h75.112a1.416 1.416 0 1 0 0-2.831zM49.011 8.494h12.518v4.719H49.011zM44.2 81.169h-.963v-2.36a1.445 1.445 0 0 0-2.889 0v2.36h-.963V76.45H44.2zm9.63-36.337v36.337h-6.745v-6.135a1.43 1.43 0 0 0-1.444-1.416h-7.7a1.43 1.43 0 0 0-1.444 1.416v6.135h-6.745V29.258h24.074v15.573zm1.444-18.4H43.233V16.045h24.074v27.371H56.715V38.7h4.333a1.416 1.416 0 1 0 0-2.831h-4.333v-4.723h4.333a1.416 1.416 0 1 0 0-2.831h-4.333v-.472a1.43 1.43 0 0 0-1.445-1.416zm25.515 54.737H56.715V46.247h24.074zm13.481 0H83.678V42.944a1.445 1.445 0 0 0-2.889 0v.472H77.9v-.472a1.445 1.445 0 0 0-2.889 0v.472H70.2V8.494h24.07v72.675z" class="cls-2" data-name="Path 162"/>
            <path id="Path_163" d="M254.568 328.407a1.43 1.43 0 0 0 1.444-1.416v-26.426a1.445 1.445 0 0 0-2.889 0v26.427a1.43 1.43 0 0 0 1.445 1.415z" class="cls-2" data-name="Path 163" transform="translate(-191.594 -250.07)"/>
            <path id="Path_164" d="M289.085 328.407a1.43 1.43 0 0 0 1.444-1.416v-26.426a1.445 1.445 0 0 0-2.889 0v26.427a1.43 1.43 0 0 0 1.445 1.415z" class="cls-2" data-name="Path 164" transform="translate(-220.334 -250.07)"/>
            <path id="Path_165" d="M323.6 328.407a1.43 1.43 0 0 0 1.444-1.416v-26.426a1.445 1.445 0 0 0-2.889 0v26.427a1.43 1.43 0 0 0 1.445 1.415z" class="cls-2" data-name="Path 165" transform="translate(-249.072 -250.07)"/>
            <path id="Path_166" d="M335.107 85.259a1.43 1.43 0 0 0 1.444-1.416v-1.887a1.445 1.445 0 0 0-2.889 0v1.888a1.43 1.43 0 0 0 1.445 1.415z" class="cls-2" data-name="Path 166" transform="translate(-258.652 -67.326)"/>
            <path id="Path_167" d="M369.624 85.259a1.43 1.43 0 0 0 1.444-1.416v-1.887a1.445 1.445 0 0 0-2.889 0v1.888a1.43 1.43 0 0 0 1.445 1.415z" class="cls-2" data-name="Path 167" transform="translate(-287.391 -67.326)"/>
            <path id="Path_168" d="M404.141 85.259a1.43 1.43 0 0 0 1.444-1.416v-1.887a1.445 1.445 0 0 0-2.889 0v1.888a1.43 1.43 0 0 0 1.445 1.415z" class="cls-2" data-name="Path 168" transform="translate(-316.13 -67.326)"/>
            <path id="Path_169" d="M335.107 142.786a1.43 1.43 0 0 0 1.444-1.416v-1.888a1.445 1.445 0 0 0-2.889 0v1.888a1.43 1.43 0 0 0 1.445 1.416z" class="cls-2" data-name="Path 169" transform="translate(-258.652 -115.415)"/>
            <path id="Path_170" d="M369.624 142.786a1.43 1.43 0 0 0 1.444-1.416v-1.888a1.445 1.445 0 0 0-2.889 0v1.888a1.43 1.43 0 0 0 1.445 1.416z" class="cls-2" data-name="Path 170" transform="translate(-287.391 -115.415)"/>
            <path id="Path_171" d="M404.141 142.786a1.43 1.43 0 0 0 1.444-1.416v-1.888a1.445 1.445 0 0 0-2.889 0v1.888a1.43 1.43 0 0 0 1.445 1.416z" class="cls-2" data-name="Path 171" transform="translate(-316.13 -115.415)"/>
            <path id="Path_172" d="M335.107 200.315a1.43 1.43 0 0 0 1.444-1.416v-1.888a1.445 1.445 0 0 0-2.889 0v1.889a1.43 1.43 0 0 0 1.445 1.415z" class="cls-2" data-name="Path 172" transform="translate(-258.652 -163.506)"/>
            <path id="Path_173" d="M369.624 200.315a1.43 1.43 0 0 0 1.444-1.416v-1.888a1.445 1.445 0 0 0-2.889 0v1.889a1.43 1.43 0 0 0 1.445 1.415z" class="cls-2" data-name="Path 173" transform="translate(-287.391 -163.506)"/>
            <path id="Path_174" d="M404.141 200.315a1.43 1.43 0 0 0 1.444-1.416v-1.888a1.445 1.445 0 0 0-2.889 0v1.889a1.43 1.43 0 0 0 1.445 1.415z" class="cls-2" data-name="Path 174" transform="translate(-316.13 -163.506)"/>
            <path id="Path_175" d="M93.489 223.326a1.43 1.43 0 0 0 1.444-1.416v-1.888a1.445 1.445 0 0 0-2.889 0v1.888a1.43 1.43 0 0 0 1.445 1.416z" class="cls-2" data-name="Path 175" transform="translate(-57.478 -182.742)"/>
            <path id="Path_176" d="M128.006 223.326a1.43 1.43 0 0 0 1.444-1.416v-1.888a1.445 1.445 0 0 0-2.889 0v1.888a1.43 1.43 0 0 0 1.445 1.416z" class="cls-2" data-name="Path 176" transform="translate(-86.218 -182.742)"/>
            <path id="Path_177" d="M162.523 223.326a1.43 1.43 0 0 0 1.444-1.416v-1.888a1.445 1.445 0 0 0-2.889 0v1.888a1.43 1.43 0 0 0 1.445 1.416z" class="cls-2" data-name="Path 177" transform="translate(-114.957 -182.742)"/>
            <path id="Path_178" d="M93.489 280.854a1.43 1.43 0 0 0 1.444-1.416v-1.888a1.445 1.445 0 0 0-2.889 0v1.888a1.43 1.43 0 0 0 1.445 1.416z" class="cls-2" data-name="Path 178" transform="translate(-57.478 -230.832)"/>
            <path id="Path_179" d="M128.006 280.854a1.43 1.43 0 0 0 1.444-1.416v-1.888a1.445 1.445 0 0 0-2.889 0v1.888a1.43 1.43 0 0 0 1.445 1.416z" class="cls-2" data-name="Path 179" transform="translate(-86.218 -230.832)"/>
            <path id="Path_180" d="M162.523 280.854a1.43 1.43 0 0 0 1.444-1.416v-1.888a1.445 1.445 0 0 0-2.889 0v1.888a1.43 1.43 0 0 0 1.445 1.416z" class="cls-2" data-name="Path 180" transform="translate(-114.957 -230.832)"/>
            <path id="Path_181" d="M93.489 338.382a1.43 1.43 0 0 0 1.444-1.416v-1.888a1.445 1.445 0 0 0-2.889 0v1.888a1.43 1.43 0 0 0 1.445 1.416z" class="cls-2" data-name="Path 181" transform="translate(-57.478 -278.921)"/>
            <path id="Path_182" d="M128.006 338.382a1.43 1.43 0 0 0 1.444-1.416v-1.888a1.445 1.445 0 0 0-2.889 0v1.888a1.43 1.43 0 0 0 1.445 1.416z" class="cls-2" data-name="Path 182" transform="translate(-86.218 -278.921)"/>
            <path id="Path_183" d="M162.523 338.382a1.43 1.43 0 0 0 1.444-1.416v-1.888a1.445 1.445 0 0 0-2.889 0v1.888a1.43 1.43 0 0 0 1.445 1.416z" class="cls-2" data-name="Path 183" transform="translate(-114.957 -278.921)"/>
            <path id="Path_184" d="M93.489 395.91a1.43 1.43 0 0 0 1.444-1.416v-1.888a1.445 1.445 0 0 0-2.889 0v1.888a1.43 1.43 0 0 0 1.445 1.416z" class="cls-2" data-name="Path 184" transform="translate(-57.478 -327.011)"/>
            <path id="Path_185" d="M128.006 395.91a1.43 1.43 0 0 0 1.444-1.416v-1.888a1.445 1.445 0 0 0-2.889 0v1.888a1.43 1.43 0 0 0 1.445 1.416z" class="cls-2" data-name="Path 185" transform="translate(-86.218 -327.011)"/>
            <path id="Path_186" d="M162.523 395.91a1.43 1.43 0 0 0 1.444-1.416v-1.888a1.445 1.445 0 0 0-2.889 0v1.888a1.43 1.43 0 0 0 1.445 1.416z" class="cls-2" data-name="Path 186" transform="translate(-114.957 -327.011)"/>
            <path id="Path_187" d="M404.141 257.843a1.43 1.43 0 0 0 1.444-1.416v-1.887a1.445 1.445 0 0 0-2.889 0v1.888a1.43 1.43 0 0 0 1.445 1.415z" class="cls-2" data-name="Path 187" transform="translate(-316.13 -211.596)"/>
            <path id="Path_188" d="M404.141 315.371a1.43 1.43 0 0 0 1.444-1.416v-1.888a1.445 1.445 0 0 0-2.889 0v1.888a1.43 1.43 0 0 0 1.445 1.416z" class="cls-2" data-name="Path 188" transform="translate(-316.13 -259.686)"/>
            <path id="Path_189" d="M404.141 372.9a1.43 1.43 0 0 0 1.444-1.416V369.6a1.445 1.445 0 0 0-2.889 0v1.888a1.43 1.43 0 0 0 1.445 1.412z" class="cls-2" data-name="Path 189" transform="translate(-316.13 -307.775)"/>
            <path id="Path_190" d="M404.141 430.427a1.43 1.43 0 0 0 1.444-1.416v-1.888a1.445 1.445 0 0 0-2.889 0v1.888a1.43 1.43 0 0 0 1.445 1.416z" class="cls-2" data-name="Path 190" transform="translate(-316.13 -355.865)"/>
            <path id="Path_191" d="M187.028 127.978a1.43 1.43 0 0 0-1.444-1.416h-11.556a1.416 1.416 0 1 0 0 2.831h11.556a1.43 1.43 0 0 0 1.444-1.415z" class="cls-2" data-name="Path 191" transform="translate(-124.536 -105.798)"/>
        </g>
    </g>
</svg>
