<svg xmlns="http://www.w3.org/2000/svg" viewBox="0 0 96 96">
    <defs>
        <style>
            .cls-1{fill:none}.cls-2,.cls-3,.cls-4{fill:#85a0b7;stroke:#f1f6f9}.cls-2{stroke-width:.6px}.cls-3{stroke-width:1.6px}
        </style>
    </defs>
    <g id="icon_private" transform="translate(-33 -221)">
        <path id="Rectangle_56" d="M0 0h96v96H0z" class="cls-1" data-name="Rectangle 56" transform="translate(33 221)"/>
        <g id="Group_36" data-name="Group 36" transform="translate(-2 6)">
            <g id="Group_33" data-name="Group 33" transform="translate(64.246 249.837)">
                <path id="Path_119" d="M61.12 28.312V6.832a3.526 3.526 0 1 0-2.351 0V8.2a47.844 47.844 0 0 1-4.7-.367l-2.351-.353a47.238 47.238 0 0 1-8.389-2.2 97.936 97.936 0 0 1-1.425-.558c-2.483-1-5.877-2.365-8.992-2.365s-6.512 1.36-8.993 2.359c-.514.206-1 .4-1.425.558a47.575 47.575 0 0 1-8.389 2.2l-2.351.353c-1.6.206-3.174.323-4.7.367V6.832a3.526 3.526 0 1 0-2.351 0V28.3A9.422 9.422 0 0 0 0 36.437a2.358 2.358 0 0 0 2.351 2.351h1.175v2.351H2.351v9.4h2.615l1.175 4.7h8.889l1.175-4.7H49.63l1.175 4.7h8.889l1.175-4.7h2.6v-9.4H62.3v-2.351h1.175a2.358 2.358 0 0 0 2.351-2.351 9.379 9.379 0 0 0-4.706-8.125zM59.944 2.351a1.175 1.175 0 1 1-1.175 1.175 1.179 1.179 0 0 1 1.175-1.175zM23.317 7.478c.441-.162.94-.367 1.484-.588 2.292-.926 5.436-2.189 8.11-2.189s5.818 1.264 8.11 2.189c.544.22 1.028.411 1.484.588a53.412 53.412 0 0 0 16.264 3.071v16.793a9.546 9.546 0 0 0-2.351-.309h-1.175v-8.227a3.069 3.069 0 0 0-3.071-3.071 3.228 3.228 0 0 0-1.381.323l-1.455.72a12.684 12.684 0 0 0-4.672-1.058 12.684 12.684 0 0 0-4.672 1.058l-1.455-.72a3.178 3.178 0 0 0-1.381-.323 3.079 3.079 0 0 0-3.071 3.071v8.228h-2.35v-8.228a3.069 3.069 0 0 0-3.071-3.071 3.228 3.228 0 0 0-1.381.323l-1.455.72a12.684 12.684 0 0 0-4.672-1.058 12.684 12.684 0 0 0-4.672 1.058l-1.455-.72a3.178 3.178 0 0 0-1.381-.323 3.079 3.079 0 0 0-3.071 3.071v8.228H9.4a9.546 9.546 0 0 0-2.351.309V10.549a53.328 53.328 0 0 0 16.268-3.071zm29.575 11.328v8.228H36.437v-8.228a.745.745 0 0 1 1.058-.646l2.468 1.234.529-.264a10.86 10.86 0 0 1 4.173-1.058 10.86 10.86 0 0 1 4.173 1.058l.529.264 2.468-1.234a.745.745 0 0 1 1.057.646zm-23.508 0v8.228H12.929v-8.228a.745.745 0 0 1 1.058-.646l2.468 1.234.529-.264a10.86 10.86 0 0 1 4.173-1.058 10.86 10.86 0 0 1 4.173 1.058l.529.264 2.468-1.234a.745.745 0 0 1 1.057.646zM5.877 2.351A1.175 1.175 0 1 1 4.7 3.526a1.179 1.179 0 0 1 1.177-1.175zm7.317 50.541H7.963l-.588-2.351h6.391zm44.664 0h-5.216l-.588-2.351h6.391zm3.262-4.7H4.7v-4.7h50.543v-2.354H5.877v-3.526A3.537 3.537 0 0 1 9.4 34.086h47.018a3.537 3.537 0 0 1 3.526 3.526v3.526h-2.35v2.351h3.526zm1.058-11.754a5.893 5.893 0 0 0-5.759-4.7H9.4a5.893 5.893 0 0 0-5.759 4.7h-1.29A7.054 7.054 0 0 1 9.4 29.384h47.018a7.054 7.054 0 0 1 7.052 7.052z" class="cls-2" data-name="Path 119"/>
            </g>
            <g id="Group_34" data-name="Group 34" transform="translate(37 262.868)">
                <path id="Path_120" d="M63.6 150.1a1.683 1.683 0 0 0 1.137-.464 1.585 1.585 0 0 0 .463-1.136 1.653 1.653 0 0 0-.464-1.137 1.585 1.585 0 0 0-1.136-.463 1.683 1.683 0 0 0-1.137.464A1.585 1.585 0 0 0 62 148.5a1.653 1.653 0 0 0 .464 1.137 1.683 1.683 0 0 0 1.136.463z" class="cls-3" data-name="Path 120" transform="translate(-52.074 -123.881)"/>
                <path id="Path_121" d="M63.6 213.3a1.683 1.683 0 0 0-1.137.464A1.585 1.585 0 0 0 62 214.9a1.653 1.653 0 0 0 .464 1.137 1.585 1.585 0 0 0 1.137.464 1.683 1.683 0 0 0 1.137-.464 1.585 1.585 0 0 0 .462-1.137 1.683 1.683 0 0 0-.464-1.137 1.612 1.612 0 0 0-1.136-.463z" class="cls-3" data-name="Path 121" transform="translate(-52.074 -179.651)"/>
                <path id="Path_122" d="M21.453 18.235h-8.325v-3.922H18.7a1.589 1.589 0 0 0 1.233-.576 1.565 1.565 0 0 0 .336-1.313L18.2 1.313A1.61 1.61 0 0 0 16.634 0H6.42a1.582 1.582 0 0 0-1.569 1.313L2.786 12.407a1.62 1.62 0 0 0 .336 1.313 1.589 1.589 0 0 0 1.233.576h5.571v3.922H1.6A1.606 1.606 0 0 0 0 19.82v21.132a1.606 1.606 0 0 0 1.6 1.6h19.853a1.606 1.606 0 0 0 1.6-1.6V19.82a1.592 1.592 0 0 0-1.6-1.585zM7.749 3.2h7.556l1.473 7.909H6.276zm12.1 18.235V28.8H3.2v-7.363zM3.2 39.367V32h16.65v7.364z" class="cls-3" data-name="Path 122"/>
            </g>
            <g id="Group_35" data-name="Group 35" transform="translate(79 218.975)">
                <path id="Path_123" d="M1.359 28.025H31.81a1.363 1.363 0 0 0 1.359-1.359V10.353a1.363 1.363 0 0 0-1.359-1.359h-2.352L17.373.28a1.368 1.368 0 0 0-1.59 0L3.711 8.994H1.359A1.363 1.363 0 0 0 0 10.353v16.313a1.363 1.363 0 0 0 1.359 1.359zm22.579-2.719l-1.5-1.5 2.3-2.3 3.793 3.793zm-3.847 0H8.578l5.764-5.764zM16.585 3.053l8.224 5.941H8.36zM2.719 11.712H30.45v11.677l-4.744-4.744a1.354 1.354 0 0 0-1.917 0l-3.263 3.249-5.22-5.22a1.354 1.354 0 0 0-1.917 0l-8.658 8.632H2.719V11.712z" class="cls-4" data-name="Path 123"/>
                <path id="Path_124" d="M38.759 97.319a1.44 1.44 0 0 1 1.02.421 1.346 1.346 0 0 0 1.93 0 1.417 1.417 0 0 1 1.02-.421 1.359 1.359 0 1 0 0-2.719 4.178 4.178 0 0 0-1.985.5 4.138 4.138 0 0 0-1.985-.5 1.359 1.359 0 0 0 0 2.719z" class="cls-4" data-name="Path 124" transform="translate(-32.316 -81.719)"/>
                <path id="Path_125" d="M134.159 112.719a1.44 1.44 0 0 1 1.02.421 1.346 1.346 0 0 0 1.93 0 1.417 1.417 0 0 1 1.02-.421 1.359 1.359 0 0 0 0-2.719 4.178 4.178 0 0 0-1.985.5 4.138 4.138 0 0 0-1.985-.5 1.359 1.359 0 1 0 0 2.719z" class="cls-4" data-name="Path 125" transform="translate(-114.747 -95.025)"/>
            </g>
        </g>
    </g>
</svg>
