<svg xmlns="http://www.w3.org/2000/svg" viewBox="0 0 96 96">
    <defs>
        <style>
            .cls-1{fill:none}.cls-2{fill:#85a0b7;stroke:#f1f6f9;stroke-width:1.6px}
        </style>
    </defs>
    <g id="icon_whole" transform="translate(-32 -221)">
        <path id="Rectangle_56" d="M0 0h96v96H0z" class="cls-1" data-name="Rectangle 56" transform="translate(32 221)"/>
        <g id="Group_39" data-name="Group 39" transform="translate(33 227)">
            <path id="Path_126" d="M171.852 40h-44.018A1.839 1.839 0 0 0 126 41.834v14.673a1.839 1.839 0 0 0 1.834 1.834h44.017a1.839 1.839 0 0 0 1.834-1.834V41.834A1.839 1.839 0 0 0 171.852 40zm-1.834 14.672h-40.35v-11h40.349z" class="cls-2" data-name="Path 126" transform="translate(-102.891 -32.664)"/>
            <path id="Path_127" d="M92.07 72.977H84v-34.1h8.07a1.844 1.844 0 0 0 1.724-2.476L88.64 22.412a1.828 1.828 0 0 0-1.724-1.192h-8.693l-.092-5.5V1.834A1.839 1.839 0 0 0 76.3 0H17.607a1.839 1.839 0 0 0-1.834 1.834v26.025A7.692 7.692 0 0 0 10 25.273a7.773 7.773 0 0 0-7.758 7.758 7.575 7.575 0 0 0 .66 3.136 10 10 0 0 0 5.26 16.874v2.714H1.834A1.839 1.839 0 0 0 0 57.59v24.576A1.839 1.839 0 0 0 1.834 84h16.323a1.825 1.825 0 0 0 1.394-.642 5.791 5.791 0 0 0 2.641.642h49.52a5.186 5.186 0 0 0 .752-.055 1.563 1.563 0 0 0 .422.055H92.07a1.839 1.839 0 0 0 1.83-1.834v-7.355a1.839 1.839 0 0 0-1.83-1.834zm-6.438-48.089l3.815 10.326H74.83l3.815-10.326zM19.441 3.668h55.022v12.05l.257 9.189-1.632 4.438H19.441zM8.162 42.917v6.346a6.323 6.323 0 0 1-1.834-11.206 1.817 1.817 0 0 0 .4-2.586 4.09 4.09 0 1 1 7.372-2.44 3.978 3.978 0 0 1-.807 2.439 1.866 1.866 0 0 0-.348 1.376 1.822 1.822 0 0 0 .752 1.21 6.323 6.323 0 0 1-1.834 11.206v-6.345a1.839 1.839 0 0 0-1.834-1.834 1.871 1.871 0 0 0-1.867 1.834zm8.162 37.415H3.668V59.424h12.655zm57.59-2.2a2.207 2.207 0 0 1-2.2 2.2H22.192a2.207 2.207 0 0 1-2.2-2.2V66.393a3.3 3.3 0 1 1 6.6 0v5.869a1.839 1.839 0 0 0 1.836 1.838h37.048a1.839 1.839 0 0 0 1.834-1.834v-5.873a3.3 3.3 0 1 1 6.6 0zm-43.669-12.1h33.4c0 .128-.018.238-.018.367v4.035H30.262v-4.041a2.458 2.458 0 0 0-.018-.367zm-1.266-3.668a7.087 7.087 0 0 0-3.852-2.7V50.18a3.8 3.8 0 0 1 3.8-3.8h36.256a3.8 3.8 0 0 1 3.8 3.8v9.427a6.969 6.969 0 0 0-4.017 2.733H28.978zm43.651-2.641V50.18a7.471 7.471 0 0 0-7.465-7.465H28.923a7.471 7.471 0 0 0-7.465 7.465v9.482a6.812 6.812 0 0 0-1.467.587V57.59a1.839 1.839 0 0 0-1.834-1.834H11.83v-2.733a9.988 9.988 0 0 0 5.245-16.873 7.637 7.637 0 0 0 .66-3.136H71.73l-1.247 3.393a1.844 1.844 0 0 0 1.724 2.476h8.125v34.1h-2.751v-6.59a6.989 6.989 0 0 0-4.952-6.676zm17.606 20.609H77.159a5.876 5.876 0 0 0 .422-2.2v-1.487h12.655z" class="cls-2" data-name="Path 127"/>
        </g>
    </g>
</svg>
