<svg xmlns="http://www.w3.org/2000/svg" viewBox="0 0 96 96">
    <defs>
        <style>
            .cls-1{fill:none}.cls-2,.cls-3,.cls-4{fill:#85a0b7}.cls-2,.cls-3{stroke:#f1f6f9}.cls-3{stroke-width:1.2px}.cls-4{stroke:#85a0b7;stroke-width:.3px}
        </style>
    </defs>
    <g id="icon_share" transform="translate(-32 -221)">
        <path id="Rectangle_56" d="M0 0h96v96H0z" class="cls-1" data-name="Rectangle 56" transform="translate(32 221)"/>
        <g id="beds" transform="translate(76 4.509)">
            <path id="Path_128" d="M297.434 133.994v-7.1c0-3.6-3.2-6.4-7.162-6.4h-19.047c-4.114 0-7.314 2.8-7.314 6.4v7.1a5.539 5.539 0 0 0-4.571 5.163v18.667a2.885 2.885 0 0 0 3.048 2.667h3.048a2.885 2.885 0 0 0 3.048-2.667v-2.667h24.381v2.667a2.885 2.885 0 0 0 3.048 2.667h3.048a2.885 2.885 0 0 0 3.048-2.667v-18.666a5.539 5.539 0 0 0-4.575-5.164zm-30.476-7.1c0-2.133 1.829-3.733 4.267-3.733h18.9c2.438 0 4.267 1.6 4.267 3.733v6.933h-1.631c-.728-4.555-5.134-8-10.559-8h-3.048c-5.425 0-9.831 3.445-10.559 8h-1.631v-6.933zm22.7 6.933h-17.976a7.489 7.489 0 0 1 7.467-5.333h3.051a7.489 7.489 0 0 1 7.463 5.33zm-27.276 5.333a2.885 2.885 0 0 1 3.048-2.667h30.48a2.885 2.885 0 0 1 3.048 2.667v5.333h-36.571zm36.571 18.667h-3.043v-4a1.358 1.358 0 0 0-1.524-1.333h-27.428a1.445 1.445 0 0 0-1.524 1.333v4h-3.048v-10.669h36.571z" class="cls-2" data-name="Path 128" transform="translate(-253.339 145)"/>
            <path id="Path_129" d="M37.1 133.994v-7.1c0-3.6-3.2-6.4-7.162-6.4H10.886c-4.114 0-7.314 2.8-7.314 6.4v7.1A5.539 5.539 0 0 0-1 139.158v18.667a2.885 2.885 0 0 0 3.048 2.667H5.1a2.885 2.885 0 0 0 3.048-2.667v-2.667h24.376v2.667a2.885 2.885 0 0 0 3.048 2.667h3.048a2.885 2.885 0 0 0 3.048-2.667v-18.667a5.539 5.539 0 0 0-4.568-5.164zm-30.476-7.1c0-2.133 1.829-3.733 4.267-3.733h18.9c2.438 0 4.267 1.6 4.267 3.733v6.933h-1.642c-.728-4.555-5.134-8-10.559-8h-3.048c-5.425 0-9.831 3.445-10.559 8H6.619zm22.7 6.933H11.343a7.489 7.489 0 0 1 7.467-5.333h3.048a7.489 7.489 0 0 1 7.466 5.33zm-27.276 5.331a2.885 2.885 0 0 1 3.052-2.667h30.471a2.885 2.885 0 0 1 3.048 2.667v5.333H2.048zm36.571 18.667h-3.048v-4a1.358 1.358 0 0 0-1.524-1.333H6.619a1.445 1.445 0 0 0-1.519 1.332v4H2.048v-10.666h36.571z" class="cls-2" data-name="Path 129" transform="translate(-40 145)"/>
        </g>
        <g id="Group_40" data-name="Group 40" transform="translate(85 229.975)">
            <path id="Path_123" d="M1.359 28.025H31.81a1.363 1.363 0 0 0 1.359-1.359V10.353a1.363 1.363 0 0 0-1.359-1.359h-2.352L17.373.28a1.368 1.368 0 0 0-1.59 0L3.711 8.994H1.359A1.363 1.363 0 0 0 0 10.353v16.313a1.363 1.363 0 0 0 1.359 1.359zm22.579-2.719l-1.5-1.5 2.3-2.3 3.793 3.793zm-3.847 0H8.578l5.764-5.764zM16.585 3.053l8.224 5.941H8.36zM2.719 11.712H30.45v11.677l-4.744-4.744a1.354 1.354 0 0 0-1.917 0l-3.263 3.249-5.22-5.22a1.354 1.354 0 0 0-1.917 0l-8.658 8.632H2.719V11.712z" class="cls-3" data-name="Path 123" transform="translate(-1 2)"/>
            <path id="Path_124" d="M38.759 97.319a1.44 1.44 0 0 1 1.02.421 1.346 1.346 0 0 0 1.93 0 1.417 1.417 0 0 1 1.02-.421 1.359 1.359 0 1 0 0-2.719 4.178 4.178 0 0 0-1.985.5 4.138 4.138 0 0 0-1.985-.5 1.359 1.359 0 0 0 0 2.719z" class="cls-3" data-name="Path 124" transform="translate(-32.316 -79.719)"/>
            <path id="Path_125" d="M134.159 112.719a1.44 1.44 0 0 1 1.02.421 1.346 1.346 0 0 0 1.93 0 1.417 1.417 0 0 1 1.02-.421 1.359 1.359 0 0 0 0-2.719 4.178 4.178 0 0 0-1.985.5 4.138 4.138 0 0 0-1.985-.5 1.359 1.359 0 1 0 0 2.719z" class="cls-3" data-name="Path 125" transform="translate(-114.747 -93.025)"/>
        </g>
        <g id="bookshelf" transform="translate(47 231)">
            <path id="Path_130" d="M29.414 300.508H28.7a1.376 1.376 0 0 0 .014-.2v-7.369a1.369 1.369 0 0 0-1.367-1.367h-2.19a1.359 1.359 0 0 0-.781.246 1.359 1.359 0 0 0-.781-.246h-2.188a1.369 1.369 0 0 0-1.367 1.367v1.016a1.365 1.365 0 0 0-.2-.014h-2.183a1.369 1.369 0 0 0-1.367 1.367v5a1.367 1.367 0 0 0 .014.2h-6.042l1.058-4.193a.586.586 0 0 0-.568-.729h-.259a3.055 3.055 0 0 0 .617-2.816.586.586 0 0 0-.4-.379 3.067 3.067 0 0 0-2.78.627v-.5a.586.586 0 0 0-1.172 0v.5a3.068 3.068 0 0 0-2.78-.627.586.586 0 0 0-.4.379 3.055 3.055 0 0 0 .617 2.816H3.93a.586.586 0 0 0-.568.729l1.059 4.193H.586a.586.586 0 0 0-.586.586v2.813a.586.586 0 0 0 .586.586h28.828a.586.586 0 0 0 .586-.586v-2.812a.586.586 0 0 0-.586-.587zM10.7 292.39l-.032-.007zm14.26.554a.2.2 0 0 1 .2-.2h2.187a.2.2 0 0 1 .2.2v7.369a.2.2 0 0 1-.2.2h-2.19a.2.2 0 0 1-.2-.2zm-3.75 2.369v-2.369a.2.2 0 0 1 .2-.2h2.187a.2.2 0 0 1 .2.2v7.369a.2.2 0 0 1-.2.2h-2.19a.2.2 0 0 1-.2-.2zm-3.75 0a.2.2 0 0 1 .2-.2h2.187a.2.2 0 0 1 .2.2v5a.2.2 0 0 1-.2.2h-2.19a.2.2 0 0 1-.2-.2zm-9.535.111a1.943 1.943 0 0 1 .6-1.366 1.92 1.92 0 0 1 1.528-.6 2.052 2.052 0 0 1-1.947 2.125h-.174v-.109q-.005-.025-.006-.051zM10 296.758l-.947 3.75H5.629l-.947-3.75zm-5.37-3.3a1.92 1.92 0 0 1 1.526.6 1.943 1.943 0 0 1 .6 1.366v.16h-.179a1.943 1.943 0 0 1-1.35-.6 1.934 1.934 0 0 1-.597-1.523zm24.2 9.859H1.172v-1.637h27.656z" class="cls-4" data-name="Path 130" transform="translate(0 -274.492)"/>
            <path id="Path_132" d="M247.014 232.172a.586.586 0 1 0 .172.414.59.59 0 0 0-.172-.414z" class="cls-4" data-name="Path 132" transform="translate(-231.599 -218.406)"/>
            <path id="Path_131" d="M29.414 10.781h-2.558a5.273 5.273 0 1 0-6.621 0h-6.523V.586A.586.586 0 0 0 13.126 0H3.751a.586.586 0 0 0-.586.586v10.2H.586a.586.586 0 0 0-.586.581v2.813a.586.586 0 0 0 .586.586h11.427a.586.586 0 0 0 0-1.172H1.172v-1.641h27.656v1.641H17.776a.586.586 0 0 0 0 1.172h11.638A.586.586 0 0 0 30 14.18v-2.813a.586.586 0 0 0-.586-.586zm-16.874 0h-8.2V1.172h8.2zm11.005 0a4.1 4.1 0 1 1 4.1-4.1 4.106 4.106 0 0 1-4.1 4.1z" class="cls-4" data-name="Path 131"/>
            <path id="Path_133" d="M116.294 267.172a.586.586 0 1 0 .172.414.59.59 0 0 0-.172-.414z" class="cls-4" data-name="Path 133" transform="translate(-108.538 -251.355)"/>
            <path id="Path_134" d="M394.014 67.285h-1.007v-1.7a.586.586 0 0 0-1.172 0v2.285a.586.586 0 0 0 .586.586h1.592a.586.586 0 0 0 0-1.172z" class="cls-4" data-name="Path 134" transform="translate(-368.877 -61.191)"/>
            <path id="Path_135" d="M99.287 40H94.6a.586.586 0 0 0-.586.586v6.094a.586.586 0 0 0 .586.586h4.688a.586.586 0 0 0 .586-.586v-6.094a.586.586 0 0 0-.587-.586zm-.587 6.094h-3.514v-4.922H98.7z" class="cls-4" data-name="Path 135" transform="translate(-88.505 -37.656)"/>
        </g>
    </g>
</svg>
