<svg xmlns="http://www.w3.org/2000/svg" viewBox="0 0 40 40">
    <defs>
        <style>
            .cls-1{fill:none}.cls-2{fill:#1278ce}
        </style>
    </defs>
    <g id="icon_water" transform="translate(-448 -2216)">
        <path id="Rectangle_72" d="M0 0h40v40H0z" class="cls-1" data-name="Rectangle 72" transform="translate(448 2216)"/>
        <g id="icon" transform="translate(456.181 2225)">
            <path id="Path_214" d="M6.853 1.377A3.16 3.16 0 0 0 4.326 0 3.16 3.16 0 0 0 1.8 1.377a5.237 5.237 0 0 0-.98 3.134 5.236 5.236 0 0 0 .98 3.134 3.539 3.539 0 0 0 1.3 1.093L2.354 19.9a1.976 1.976 0 1 0 3.944 0L5.556 8.738a3.539 3.539 0 0 0 1.3-1.094 5.237 5.237 0 0 0 .98-3.134 5.237 5.237 0 0 0-.983-3.133zm-1.821 19.31a.967.967 0 0 1-1.671-.725l.728-10.954c.078.007.157.011.237.011s.158 0 .237-.011l.728 10.954a.958.958 0 0 1-.259.725zM4.326 8.01a1.818 1.818 0 0 1-.526-.079l-.043-.014a3.464 3.464 0 0 1-1.929-3.406c0-1.929 1.121-3.5 2.5-3.5s2.5 1.57 2.5 3.5S5.7 8.01 4.326 8.01z" class="cls-2" data-name="Path 214" transform="translate(0 -.003)"/>
            <path id="Path_215" d="M420.8 13.145V.568a.5.5 0 0 0-.766-.495 6.89 6.89 0 0 0-3.288 5.9v6.608a1.072 1.072 0 0 0 1.039 1.07v6.833a1.51 1.51 0 0 0 3.019 0v-7.339zm-2.987-.5a.062.062 0 0 1-.062-.062V5.974a5.881 5.881 0 0 1 2.043-4.474v11.143zm1.978 7.84a.5.5 0 0 1-1 0v-6.833h1z" class="cls-2" data-name="Path 215" transform="translate(-398.054)"/>
            <path id="Path_216" d="M219.338 0a.5.5 0 0 0-.5.5v5.74h-1.286V.508a.5.5 0 0 0-1.009 0V6.24h-1.286V.508a.5.5 0 1 0-1.009 0v7.3a1.493 1.493 0 0 0 1.488 1.492h.09l-.708 10.641a1.93 1.93 0 1 0 3.852 0L218.261 9.3h.09a1.493 1.493 0 0 0 1.492-1.492v-7.3a.5.5 0 0 0-.505-.508zm-1.622 20.7a.921.921 0 0 1-1.592-.69l.713-10.71h.413l.712 10.709a.911.911 0 0 1-.246.691zm1.118-12.89a.483.483 0 0 1-.482.482h-2.615a.483.483 0 0 1-.482-.482v-.561h3.58z" class="cls-2" data-name="Path 216" transform="translate(-204.254 -.003)"/>
        </g>
    </g>
</svg>
