<svg xmlns="http://www.w3.org/2000/svg" viewBox="0 0 40 40">
    <defs>
        <style>
            .cls-1{fill:none}.cls-2{fill:#1278ce;stroke:#1278ce;stroke-width:.2px}
        </style>
    </defs>
    <g id="icon_shopping" transform="translate(-448 -2216)">
        <path id="Rectangle_72" d="M0 0h40v40H0z" class="cls-1" data-name="Rectangle 72" transform="translate(448 2216)"/>
        <g id="shopping-bag" transform="translate(443.641 2225)">
            <path id="Path_205" d="M82.363 2.718a3.17 3.17 0 0 0-5.7-1.417.373.373 0 1 0 .6.44 2.424 2.424 0 0 1 4.358 1.082.373.373 0 0 0 .369.32.4.4 0 0 0 .053 0 .373.373 0 0 0 .32-.425z" class="cls-2" data-name="Path 205" transform="translate(-54.545)"/>
            <path id="Path_206" d="M39.284 46.417l-1.119-1.864a.372.372 0 0 0-.32-.181h-1.071a.373.373 0 0 0 0 .746h.861l.671 1.119h-15.09l.671-1.119h.395a.373.373 0 1 0 0-.746h-.606a.372.372 0 0 0-.32.181l-1.119 1.864a.373.373 0 0 0 .32.565h16.408a.373.373 0 0 0 .32-.565z" class="cls-2" data-name="Path 206" transform="translate(-6.081 -39.525)"/>
            <path id="Path_207" d="M111.5 20.491a.372.372 0 0 0-.232-.166l-5.083-1.189a.373.373 0 0 0-.448.278l-.383 1.639a.373.373 0 0 0 .726.17l.3-1.275 4.357 1.019-.685 2.927a.373.373 0 0 0 .278.448.377.377 0 0 0 .085.01.372.372 0 0 0 .362-.288l.77-3.29a.371.371 0 0 0-.047-.283z" class="cls-2" data-name="Path 207" transform="translate(-80.155 -17.037)"/>
            <path id="Path_208" d="M42.814 13.576l-.34-2.874a.373.373 0 0 0-.414-.327l-6.237.737a.373.373 0 0 0-.326.414l.566 4.793a.373.373 0 0 0 .37.329h.044a.373.373 0 0 0 .326-.414l-.523-4.423 5.5-.65.3 2.5a.373.373 0 0 0 .741-.087z" class="cls-2" data-name="Path 208" transform="translate(-17.936 -9.24)"/>
            <path id="Path_209" d="M68.479 36.133l-.74-3.078a.373.373 0 0 0-.45-.275l-6.007 1.445a.373.373 0 0 0-.275.45l.37 1.538a.373.373 0 1 0 .725-.174l-.283-1.176 5.282-1.27.653 2.715a.373.373 0 0 0 .725-.175z" class="cls-2" data-name="Path 209" transform="translate(-40.653 -29.19)"/>
            <path id="Path_210" d="M33.257 61.795a.373.373 0 0 0-.373-.354H16.477a.373.373 0 0 0-.373.354l-.746 14.542a.373.373 0 0 0 .372.392h17.9a.373.373 0 0 0 .37-.392zM16.124 75.983l.708-13.8h15.7l.708 13.8z" class="cls-2" data-name="Path 210" transform="translate(0 -54.729)"/>
            <path id="Path_211" d="M117.171 75.093a1.119 1.119 0 1 0 1.119 1.119 1.12 1.12 0 0 0-1.119-1.119zm0 1.492a.373.373 0 1 1 .373-.373.373.373 0 0 1-.373.373z" class="cls-2" data-name="Path 211" transform="translate(-89.693 -66.89)"/>
            <path id="Path_212" d="M65.971 75.093a1.119 1.119 0 1 0 1.119 1.119 1.12 1.12 0 0 0-1.119-1.119zm0 1.492a.373.373 0 1 1 .373-.373.373.373 0 0 1-.373.373z" class="cls-2" data-name="Path 212" transform="translate(-44.087 -66.89)"/>
            <path id="Path_213" d="M77.645 85.333h-.029a.373.373 0 0 0-.373.373.369.369 0 0 0 .029.144v1.907a2.424 2.424 0 0 1-4.848 0v-2.051a.373.373 0 1 0-.746 0v2.051a3.169 3.169 0 0 0 6.339 0v-2.051a.373.373 0 0 0-.372-.373z" class="cls-2" data-name="Path 213" transform="translate(-50.168 -76.011)"/>
        </g>
    </g>
</svg>
